<svg version="1.1" xmlns="http://www.w3.org/2000/svg" xmlns:xlink="http://www.w3.org/1999/xlink" width="89.46869" height="76.2524" viewBox="0,0,89.46869,76.2524"><g transform="translate(-202.70284,-149.51169)"><g data-paper-data="{&quot;isPaintingLayer&quot;:true}" fill-rule="nonzero" stroke-linejoin="miter" stroke-miterlimit="10" stroke-dasharray="" stroke-dashoffset="0" style="mix-blend-mode: normal"><g stroke="#000000" stroke-width="0" stroke-linecap="butt"><path d="M276.15574,185.73025c1.87804,19.48507 -14.34411,24.16754 -34.31421,24.16754c-19.97009,0 -37.63494,-5.40738 -38.00391,-24.16754c-0.24555,-12.48526 15.81999,-4.61212 35.79009,-4.61212c19.97009,0 35.79009,-6.76864 36.52803,4.61212z" fill="#006666"/><path d="M276.15574,185.73025c0.40215,6.20216 -16.55794,10.09844 -36.52803,10.09844c-19.97009,0 -35.79009,-3.88325 -35.79009,-10.09844c0,-12.48767 15.81999,-4.61212 35.79009,-4.61212c19.97009,0 35.79009,-6.76864 36.52803,4.61212z" fill="#01877e"/></g><path d="M240.96838,151.32124c22.06772,-1.51204 30.8909,26.22786 26.56584,30.99347c-5.7183,6.30496 -48.02734,6.63482 -54.97652,-0.36897c-4.60475,-4.64533 5.60834,-32.43061 28.41069,-30.6245z" fill="#99ffff" stroke="#000000" stroke-width="3.5" stroke-linecap="round"/><path d="M217.40328,193.04394c-13.27917,-1.18419 -15.26568,-8.36748 -10.80524,-13.80414c1.24512,-1.1357 4.05524,-1.44586 4.05524,-1.44586" fill="none" stroke="#000000" stroke-width="3.5" stroke-linecap="round"/><path d="M268.65327,177.79394c0,0 5.37749,1.00389 6.53999,3.26294c2.00629,4.56993 -2.71162,13.05975 -35.22772,13.00817c-0.83561,-0.00132 -14.28958,-0.20829 -15.16226,-0.22111" fill="none" stroke="#000000" stroke-width="3.5" stroke-linecap="round"/><path d="M275.19326,181.05688c0.6951,7.43859 2.18579,18.93047 -9.05667,23.2141c-6.70405,2.55439 -16.42851,4.33604 -25.27787,4.22255c-12.02779,-0.15426 -22.86066,-2.96617 -26.21184,-4.26551c-7.93924,-3.07824 -9.79419,-18.37846 -10.17693,-18.38408" fill="none" stroke="#000000" stroke-width="3.5" stroke-linecap="round"/><path d="M220.22503,169.29916c1.75189,-2.08565 4.12979,-5.85347 7.58221,-8.31522c4.96705,-3.54176 11.84835,-3.49642 11.84835,-3.49642" fill="none" stroke="#ffffff" stroke-width="5" stroke-linecap="round"/><path d="M227.63823,170.92016c0.93996,-1.11903 1.58968,-2.5145 4.06816,-4.46145c3.64892,-2.70531 6.53601,-2.59154 6.53601,-2.59154" fill="none" stroke="#ffffff" stroke-width="2.5" stroke-linecap="round"/><g fill="#fffe00" stroke="#f9ff00" stroke-width="1.5" stroke-linecap="butt"><path d="M210.87842,196.14543c0,-0.29863 0.32558,-0.54072 0.72721,-0.54072c0.40163,0 0.7272,0.24208 0.7272,0.54072c0,0.29863 -0.32557,0.54071 -0.7272,0.54071c-0.40163,0 -0.72721,-0.24208 -0.72721,-0.54071z"/><path d="M216.62865,198.55269c0,-0.29863 0.32558,-0.54072 0.72721,-0.54072c0.40163,0 0.7272,0.24209 0.7272,0.54072c0,0.29863 -0.32557,0.54071 -0.7272,0.54071c-0.40163,0 -0.72721,-0.24208 -0.72721,-0.54071z"/><path d="M223.20035,200.34915c0,-0.29863 0.32558,-0.54071 0.72721,-0.54071c0.40163,0 0.72721,0.24208 0.72721,0.54071c0,0.29863 -0.32558,0.54072 -0.72721,0.54072c-0.40163,0 -0.72721,-0.24208 -0.72721,-0.54072z"/><path d="M231.22168,201.06774c0,-0.29863 0.32558,-0.54071 0.72721,-0.54071c0.40163,0 0.72721,0.24208 0.72721,0.54071c0,0.29863 -0.32558,0.54072 -0.72721,0.54072c-0.40163,0 -0.72721,-0.24209 -0.72721,-0.54072z"/><path d="M247.74755,200.92402c0,-0.29863 0.32558,-0.54071 0.72721,-0.54071c0.40163,0 0.72721,0.24208 0.72721,0.54071c0,0.29863 -0.32558,0.54072 -0.72721,0.54072c-0.40163,0 -0.72721,-0.24209 -0.72721,-0.54072z"/><path d="M256.15546,199.918c0,-0.29863 0.32558,-0.54072 0.72721,-0.54072c0.40163,0 0.72721,0.24208 0.72721,0.54072c0,0.29863 -0.32558,0.54071 -0.72721,0.54071c-0.40163,0 -0.72721,-0.24208 -0.72721,-0.54071z"/><path d="M263.88686,197.97782c0,-0.29863 0.32558,-0.54072 0.72721,-0.54072c0.40163,0 0.72721,0.24209 0.72721,0.54072c0,0.29863 -0.32558,0.54071 -0.72721,0.54071c-0.40163,0 -0.72721,-0.24208 -0.72721,-0.54071z"/><path d="M269.29886,195.17533c0,-0.29863 0.32557,-0.54071 0.7272,-0.54071c0.40163,0 0.72721,0.24208 0.72721,0.54071c0,0.29863 -0.32558,0.54072 -0.72721,0.54072c-0.40163,0 -0.7272,-0.24208 -0.7272,-0.54072z"/><path d="M239.14637,201.14758c0,-0.29863 0.32558,-0.54072 0.72721,-0.54072c0.40163,0 0.7272,0.24208 0.7272,0.54072c0,0.29863 -0.32557,0.54072 -0.7272,0.54072c-0.40163,0 -0.72721,-0.24208 -0.72721,-0.54072z"/></g><text transform="translate(279.59213,198.25707) rotate(135) scale(0.4723,0.4723)" font-size="40" xml:space="preserve" data-paper-data="{&quot;index&quot;:null}" fill="#e18a06" fill-rule="nonzero" stroke="none" stroke-width="1" stroke-linecap="butt" stroke-linejoin="miter" stroke-miterlimit="10" stroke-dasharray="" stroke-dashoffset="0" font-family="Sans Serif" font-weight="normal" text-anchor="start" style="mix-blend-mode: normal"><tspan x="0" dy="0">🔥</tspan></text></g></g></svg>