<svg version="1.1" xmlns="http://www.w3.org/2000/svg" xmlns:xlink="http://www.w3.org/1999/xlink" width="86.43103" height="34.91401" viewBox="0,0,86.43103,34.91401"><g transform="translate(-196.78449,-162.54299)"><g data-paper-data="{&quot;isPaintingLayer&quot;:true}" fill-rule="nonzero" stroke="#000000" stroke-linejoin="miter" stroke-miterlimit="10" stroke-dasharray="" stroke-dashoffset="0" style="mix-blend-mode: normal"><path d="M252.32405,196.31141c0,0 -32.18057,0 -42.07965,0c-5.39782,0 -12.48473,-0.71582 -12.45985,-9.56146c0.01227,-4.36019 0.03326,-11.77771 0.0389,-14.2114c0.01213,-5.24347 3.27162,-8.99555 8.44886,-8.99555c18.31285,0 60.82325,0 69.58813,0c3.07688,0 6.35507,3.03403 6.35507,6.84936c0,6.46829 0,15.62877 0,19.30356c0,2.90453 -3.42283,6.76109 -6.59341,6.76109c-8.20613,0 -8.98398,0 -8.98398,0" data-paper-data="{&quot;index&quot;:null}" fill="#60d394" stroke-width="2" stroke-linecap="round"/><path d="M228.75301,182.69184c-0.11061,0 -0.20462,-0.03595 -0.28204,-0.10784c-0.07189,-0.07189 -0.10784,-0.16591 -0.10784,-0.28204v-6.95978c0,-0.11061 0.03595,-0.20185 0.10784,-0.27375c0.07742,-0.07742 0.17144,-0.11613 0.28204,-0.11613h4.64538c0.10507,0 0.19632,0.03595 0.27375,0.10784c0.07742,0.07189 0.11613,0.16314 0.11613,0.27375c0,0.09954 -0.03871,0.18526 -0.11613,0.25716c-0.07742,0.07189 -0.16867,0.10784 -0.27375,0.10784h-4.2555v2.73746h3.09416c0.11613,0 0.21015,0.03595 0.28204,0.10784c0.07189,0.07189 0.10784,0.16038 0.10784,0.26545c0,0.10507 -0.03595,0.19356 -0.10784,0.26545c-0.07189,0.07189 -0.16591,0.10784 -0.28204,0.10784h-3.09416v2.76234h4.2555c0.10507,0 0.19632,0.03871 0.27375,0.11613c0.07742,0.07189 0.11613,0.15761 0.11613,0.25716c0,0.11061 -0.03871,0.20185 -0.11613,0.27375c-0.07742,0.06637 -0.16867,0.09954 -0.27375,0.09954zM237.50665,182.74162c-0.50878,0 -0.96503,-0.1189 -1.36873,-0.3567c-0.39817,-0.24333 -0.71616,-0.57237 -0.95396,-0.98715c-0.23227,-0.42029 -0.34841,-0.89037 -0.34841,-1.41021c0,-0.52537 0.1189,-0.99544 0.3567,-1.41021c0.24333,-0.42029 0.57237,-0.74935 0.98715,-0.98715c0.41477,-0.24333 0.88483,-0.36499 1.41021,-0.36499c0.51984,0 0.98438,0.12166 1.39361,0.36499c0.41477,0.2378 0.74381,0.56685 0.98715,0.98715c0.24333,0.41477 0.36776,0.88483 0.37329,1.41021l-0.30693,0.24057c0,0.4756 -0.11061,0.90419 -0.33182,1.28577c-0.22121,0.37605 -0.52261,0.67469 -0.90419,0.8959c-0.38158,0.22121 -0.81294,0.33182 -1.29407,0.33182zM237.5896,182.04481c0.38158,0 0.72169,-0.08849 1.02032,-0.26545c0.30416,-0.17697 0.54196,-0.42306 0.7134,-0.73828c0.17697,-0.31522 0.26545,-0.66639 0.26545,-1.05351c0,-0.39817 -0.08849,-0.75211 -0.26545,-1.0618c-0.17144,-0.3097 -0.40924,-0.55579 -0.7134,-0.73828c-0.29863,-0.1825 -0.63874,-0.27375 -1.02032,-0.27375c-0.37605,0 -0.71616,0.09125 -1.02032,0.27375c-0.30416,0.1825 -0.54749,0.42859 -0.72999,0.73828c-0.17697,0.3097 -0.26545,0.66362 -0.26545,1.0618c0,0.38711 0.08849,0.73828 0.26545,1.05351c0.1825,0.31522 0.42583,0.56132 0.72999,0.73828c0.30416,0.17697 0.64427,0.26545 1.02032,0.26545zM239.95377,182.69184c-0.11061,0 -0.20185,-0.03318 -0.27375,-0.09954c-0.07189,-0.07189 -0.10784,-0.16314 -0.10784,-0.27375v-1.70054l0.1825,-0.77976l0.58897,0.14932v2.33099c0,0.11061 -0.03871,0.20185 -0.11613,0.27375c-0.07189,0.06637 -0.16314,0.09954 -0.27375,0.09954zM243.72265,182.74162c-0.39265,0 -0.77976,-0.06637 -1.16135,-0.19909c-0.38158,-0.13272 -0.69128,-0.33182 -0.92907,-0.59726c-0.07742,-0.07742 -0.11061,-0.16591 -0.09954,-0.26545c0.01659,-0.09954 0.06913,-0.18526 0.15761,-0.25716c0.08849,-0.06637 0.1825,-0.09125 0.28204,-0.07466c0.09954,0.01106 0.1825,0.05254 0.24886,0.12443c0.16038,0.18803 0.37053,0.33182 0.63045,0.43136c0.25992,0.09401 0.55026,0.14102 0.87101,0.14102c0.48666,0 0.83783,-0.08295 1.05351,-0.24886c0.22121,-0.17144 0.33458,-0.37329 0.34011,-0.60556c0,-0.2378 -0.11337,-0.43412 -0.34011,-0.58897c-0.22121,-0.16038 -0.58897,-0.28204 -1.10328,-0.36499c-0.66915,-0.10507 -1.15858,-0.29033 -1.46827,-0.55579c-0.3097,-0.26545 -0.46454,-0.57791 -0.46454,-0.93737c0,-0.33734 0.08849,-0.61662 0.26545,-0.83783c0.17697,-0.22674 0.41477,-0.39541 0.7134,-0.50602c0.29863,-0.11613 0.62491,-0.1742 0.97885,-0.1742c0.44242,0 0.824,0.07742 1.14476,0.23227c0.32075,0.14932 0.58067,0.35117 0.77976,0.60556c0.06637,0.08849 0.09125,0.17973 0.07466,0.27375c-0.01106,0.08849 -0.0636,0.16314 -0.15761,0.22397c-0.07742,0.04425 -0.16867,0.05807 -0.27375,0.04148c-0.09954,-0.01659 -0.18526,-0.0636 -0.25716,-0.14102c-0.16591,-0.18803 -0.35946,-0.32629 -0.58067,-0.41477c-0.21568,-0.09401 -0.46454,-0.14102 -0.74658,-0.14102c-0.36499,0 -0.6581,0.07466 -0.87931,0.22397c-0.21568,0.14932 -0.32352,0.33734 -0.32352,0.56408c0,0.14932 0.04148,0.28204 0.12443,0.39817c0.08295,0.11061 0.22397,0.21015 0.42306,0.29863c0.20462,0.08295 0.48942,0.15208 0.85442,0.20738c0.49219,0.08295 0.88207,0.20185 1.16964,0.3567c0.28757,0.15484 0.49219,0.33734 0.61386,0.54749c0.12166,0.20462 0.1825,0.42859 0.1825,0.67192c0,0.3097 -0.09125,0.58344 -0.27375,0.82124c-0.17697,0.23227 -0.42583,0.41477 -0.74658,0.54749c-0.32075,0.13272 -0.68851,0.19909 -1.10328,0.19909zM248.09899,185.04771c-0.0553,0 -0.11613,-0.01383 -0.1825,-0.04148c-0.22121,-0.09954 -0.28204,-0.25716 -0.1825,-0.47283l3.1937,-7.05103c0.09954,-0.21015 0.25716,-0.27098 0.47283,-0.1825c0.22674,0.09401 0.29033,0.25163 0.19079,0.47283l-3.21029,7.05103c-0.06637,0.14932 -0.16038,0.22397 -0.28204,0.22397zM249.19397,182.52592c-0.09954,0.04425 -0.19356,0.05254 -0.28204,0.02488c-0.08295,-0.03318 -0.14932,-0.09954 -0.19909,-0.19909l-2.21485,-4.57072c-0.04425,-0.09954 -0.04977,-0.19079 -0.01659,-0.27375c0.03318,-0.08849 0.09954,-0.15761 0.19909,-0.20738c0.09954,-0.04425 0.19079,-0.04977 0.27375,-0.01659c0.08849,0.02765 0.15484,0.09125 0.19909,0.19079l2.17338,4.57072c0.04977,0.09954 0.0636,0.19356 0.04148,0.28204c-0.01659,0.08295 -0.07466,0.14932 -0.1742,0.19909z" fill="#000000" stroke-width="0.5" stroke-linecap="square"/></g></g></svg>