<svg version="1.1" xmlns="http://www.w3.org/2000/svg" xmlns:xlink="http://www.w3.org/1999/xlink" width="90.05608" height="75.44059" viewBox="0,0,90.05608,75.44059"><g transform="translate(-187.44915,-149.82645)"><g data-paper-data="{&quot;isPaintingLayer&quot;:true}" fill-rule="nonzero" stroke-linejoin="miter" stroke-miterlimit="10" stroke-dasharray="" stroke-dashoffset="0" style="mix-blend-mode: normal"><text transform="translate(200.02882,197.75944) rotate(45) scale(0.47231,-0.47231)" font-size="40" xml:space="preserve" data-paper-data="{&quot;index&quot;:null}" fill="#e18a06" fill-rule="nonzero" stroke="none" stroke-width="1" stroke-linecap="butt" stroke-linejoin="miter" stroke-miterlimit="10" stroke-dasharray="" stroke-dashoffset="0" font-family="Sans Serif" font-weight="normal" text-anchor="start" style="mix-blend-mode: normal"><tspan x="0" dy="0">🔥</tspan></text><g stroke="#000000" stroke-width="0" stroke-linecap="butt"><path d="M276.17271,184.91022c1.87804,19.48507 -14.34411,24.16754 -34.31421,24.16754c-19.97009,0 -37.63494,-5.40738 -38.00391,-24.16754c-0.24555,-12.48526 15.81999,-4.61212 35.79009,-4.61212c19.97009,0 35.79009,-6.76864 36.52803,4.61212z" fill="#006666"/><path d="M276.17271,184.91022c0.40215,6.20216 -16.55794,10.09844 -36.52803,10.09844c-19.97009,0 -35.79009,-3.88325 -35.79009,-10.09844c0,-12.48767 15.81999,-4.61212 35.79009,-4.61212c19.97009,0 35.79009,-6.76864 36.52803,4.61212z" fill="#01877e"/></g><path d="M241.05475,151.636c22.06772,-1.51204 30.8909,26.22786 26.56584,30.99347c-5.7183,6.30496 -48.02734,6.63482 -54.97652,-0.36897c-4.60475,-4.64533 5.60834,-32.43061 28.41069,-30.6245z" fill="#99ffff" stroke="#000000" stroke-width="3.5" stroke-linecap="round"/><path d="M217.48965,193.3587c-13.27917,-1.18419 -15.26568,-8.36748 -10.80524,-13.80414c1.24512,-1.1357 4.05524,-1.44586 4.05524,-1.44586" fill="none" stroke="#000000" stroke-width="3.5" stroke-linecap="round"/><path d="M268.73964,178.1087c0,0 5.37749,1.00389 6.53999,3.26294c2.00629,4.56993 -2.71162,13.05975 -35.22772,13.00817c-0.83561,-0.00132 -14.28958,-0.20829 -15.16226,-0.22111" fill="none" stroke="#000000" stroke-width="3.5" stroke-linecap="round"/><path d="M275.27963,181.37164c0.6951,7.43859 2.18579,18.93047 -9.05667,23.2141c-15.816,6.02625 -45.67293,2.21235 -51.48971,-0.04296c-7.93924,-3.07824 -9.79419,-18.37846 -10.17693,-18.38408" fill="none" stroke="#000000" stroke-width="3.5" stroke-linecap="round"/><path d="M220.3114,169.61392c1.75189,-2.08565 4.12979,-5.85347 7.58221,-8.31522c4.96705,-3.54176 11.84835,-3.49642 11.84835,-3.49642" fill="none" stroke="#ffffff" stroke-width="5" stroke-linecap="round"/><path d="M227.7246,171.23492c0.93996,-1.11903 1.58968,-2.5145 4.06816,-4.46145c3.64892,-2.70531 6.53601,-2.59154 6.53601,-2.59154" fill="none" stroke="#ffffff" stroke-width="2.5" stroke-linecap="round"/><g fill="#fffe00" stroke="#f9ff00" stroke-width="1.5" stroke-linecap="butt"><path d="M211.63693,196.39424c0,-0.29863 0.32558,-0.54072 0.72721,-0.54072c0.40163,0 0.7272,0.24208 0.7272,0.54072c0,0.29863 -0.32557,0.54071 -0.7272,0.54071c-0.40163,0 -0.72721,-0.24208 -0.72721,-0.54071z"/><path d="M217.38716,198.80151c0,-0.29863 0.32558,-0.54072 0.72721,-0.54072c0.40163,0 0.7272,0.24209 0.7272,0.54072c0,0.29863 -0.32557,0.54071 -0.7272,0.54071c-0.40163,0 -0.72721,-0.24208 -0.72721,-0.54071z"/><path d="M223.95886,200.59796c0,-0.29863 0.32558,-0.54071 0.72721,-0.54071c0.40163,0 0.72721,0.24208 0.72721,0.54071c0,0.29863 -0.32558,0.54072 -0.72721,0.54072c-0.40163,0 -0.72721,-0.24208 -0.72721,-0.54072z"/><path d="M231.98019,201.31655c0,-0.29863 0.32558,-0.54071 0.72721,-0.54071c0.40163,0 0.72721,0.24208 0.72721,0.54071c0,0.29863 -0.32558,0.54072 -0.72721,0.54072c-0.40163,0 -0.72721,-0.24209 -0.72721,-0.54072z"/><path d="M248.50606,201.17283c0,-0.29863 0.32558,-0.54071 0.72721,-0.54071c0.40163,0 0.72721,0.24208 0.72721,0.54071c0,0.29863 -0.32558,0.54072 -0.72721,0.54072c-0.40163,0 -0.72721,-0.24209 -0.72721,-0.54072z"/><path d="M256.91397,200.16682c0,-0.29863 0.32558,-0.54072 0.72721,-0.54072c0.40163,0 0.72721,0.24208 0.72721,0.54072c0,0.29863 -0.32558,0.54071 -0.72721,0.54071c-0.40163,0 -0.72721,-0.24208 -0.72721,-0.54071z"/><path d="M264.64537,198.22664c0,-0.29863 0.32558,-0.54072 0.72721,-0.54072c0.40163,0 0.72721,0.24209 0.72721,0.54072c0,0.29863 -0.32558,0.54071 -0.72721,0.54071c-0.40163,0 -0.72721,-0.24208 -0.72721,-0.54071z"/><path d="M270.05737,195.42415c0,-0.29863 0.32557,-0.54071 0.7272,-0.54071c0.40163,0 0.72721,0.24208 0.72721,0.54071c0,0.29863 -0.32558,0.54072 -0.72721,0.54072c-0.40163,0 -0.7272,-0.24208 -0.7272,-0.54072z"/><path d="M239.90488,201.3964c0,-0.29863 0.32558,-0.54072 0.72721,-0.54072c0.40163,0 0.7272,0.24208 0.7272,0.54072c0,0.29863 -0.32557,0.54072 -0.7272,0.54072c-0.40163,0 -0.72721,-0.24208 -0.72721,-0.54072z"/></g></g></g></svg>