<svg version="1.1" xmlns="http://www.w3.org/2000/svg" xmlns:xlink="http://www.w3.org/1999/xlink" width="86.43103" height="34.91401" viewBox="0,0,86.43103,34.91401"><g transform="translate(-196.78449,-162.543)"><g data-paper-data="{&quot;isPaintingLayer&quot;:true}" fill-rule="nonzero" stroke="#000000" stroke-linejoin="miter" stroke-miterlimit="10" stroke-dasharray="" stroke-dashoffset="0" style="mix-blend-mode: normal"><path d="M227.67595,163.6886c0,0 32.18057,0 42.07965,0c5.39782,0 12.48473,0.71582 12.45985,9.56146c-0.01227,4.36019 -0.03326,11.77771 -0.0389,14.2114c-0.01213,5.24347 -3.27162,8.99555 -8.44886,8.99555c-18.31285,0 -60.82325,0 -69.58813,0c-3.07688,0 -6.35507,-3.03403 -6.35507,-6.84936c0,-6.46829 0,-15.62877 0,-19.30356c0,-2.90453 3.42283,-6.76109 6.59341,-6.76109c8.20613,0 8.98398,0 8.98398,0" data-paper-data="{&quot;index&quot;:null}" fill="#d83e41" stroke-width="2" stroke-linecap="round"/><path d="M226.83758,184.29763c-0.12363,0 -0.22871,-0.04018 -0.31525,-0.12054c-0.08036,-0.08036 -0.12054,-0.18544 -0.12054,-0.31525v-7.7793c0,-0.12363 0.04018,-0.22562 0.12054,-0.30598c0.08654,-0.08654 0.19162,-0.12981 0.31525,-0.12981c0.12363,0 0.22562,0.04327 0.30598,0.12981c0.08654,0.08036 0.12981,0.18235 0.12981,0.30598v3.4585h5.39637v-3.4585c0,-0.12363 0.04018,-0.22562 0.12054,-0.30598c0.08036,-0.08654 0.18544,-0.12981 0.31525,-0.12981c0.12363,0 0.22562,0.04327 0.30598,0.12981c0.08036,0.08036 0.12054,0.18235 0.12054,0.30598v7.7793c0,0.12981 -0.04018,0.23489 -0.12054,0.31525c-0.08036,0.08036 -0.18235,0.12054 -0.30598,0.12054c-0.12981,0 -0.23489,-0.04018 -0.31525,-0.12054c-0.08036,-0.08036 -0.12054,-0.18544 -0.12054,-0.31525v-3.55122h-5.39637v3.55122c0,0.12981 -0.04327,0.23489 -0.12981,0.31525c-0.08036,0.08036 -0.18235,0.12054 -0.30598,0.12054zM238.30474,184.35325c-0.56869,0 -1.07866,-0.1329 -1.5299,-0.3987c-0.44506,-0.27198 -0.80049,-0.63977 -1.06629,-1.10338c-0.25962,-0.46978 -0.38943,-0.99521 -0.38943,-1.57626c0,-0.58723 0.1329,-1.11265 0.3987,-1.57626c0.27198,-0.46978 0.63977,-0.83758 1.10338,-1.10338c0.46361,-0.27198 0.98903,-0.40797 1.57626,-0.40797c0.58105,0 1.10029,0.13599 1.55771,0.40797c0.46361,0.2658 0.8314,0.63359 1.10338,1.10338c0.27198,0.46361 0.41107,0.98903 0.41725,1.57626l-0.34307,0.26889c0,0.5316 -0.12363,1.01066 -0.37089,1.43718c-0.24726,0.42034 -0.58414,0.75413 -1.01066,1.00139c-0.42652,0.24726 -0.90867,0.37089 -1.44645,0.37089zM238.39747,183.57441c0.42652,0 0.80667,-0.0989 1.14047,-0.29671c0.33998,-0.19781 0.60578,-0.47288 0.7974,-0.82522c0.19781,-0.35234 0.29671,-0.74486 0.29671,-1.17756c0,-0.44506 -0.0989,-0.84067 -0.29671,-1.18683c-0.19162,-0.34616 -0.45743,-0.62123 -0.7974,-0.82522c-0.3338,-0.20399 -0.71395,-0.30598 -1.14047,-0.30598c-0.42034,0 -0.80049,0.10199 -1.14047,0.30598c-0.33998,0.20399 -0.61196,0.47906 -0.81595,0.82522c-0.19781,0.34616 -0.29671,0.74177 -0.29671,1.18683c0,0.43269 0.0989,0.82522 0.29671,1.17756c0.20399,0.35234 0.47597,0.62741 0.81595,0.82522c0.33998,0.19781 0.72013,0.29671 1.14047,0.29671zM241.04001,184.29763c-0.12363,0 -0.22562,-0.03709 -0.30598,-0.11126c-0.08036,-0.08036 -0.12054,-0.18235 -0.12054,-0.30598v-1.90078l0.20399,-0.87158l0.65832,0.1669v2.60546c0,0.12363 -0.04327,0.22562 -0.12981,0.30598c-0.08036,0.07418 -0.18235,0.11126 -0.30598,0.11126zM243.49099,180.57024c0.01855,-0.45743 0.13599,-0.8654 0.35234,-1.22392c0.22253,-0.36471 0.50687,-0.64905 0.85304,-0.85304c0.35234,-0.21017 0.74177,-0.31525 1.16829,-0.31525c0.33998,0 0.60269,0.04946 0.78813,0.14835c0.18544,0.09272 0.25653,0.2318 0.21326,0.41725c-0.03091,0.11126 -0.08345,0.18544 -0.15763,0.22253c-0.06799,0.03091 -0.15144,0.04327 -0.25035,0.03709c-0.0989,-0.00618 -0.21017,-0.01237 -0.3338,-0.01855c-0.41416,-0.03709 -0.78195,0.00618 -1.10338,0.12981c-0.32143,0.11744 -0.57797,0.30289 -0.76959,0.55632c-0.18544,0.25344 -0.27816,0.55323 -0.27816,0.8994zM243.5559,184.29763c-0.13599,0 -0.24107,-0.03709 -0.31525,-0.11126c-0.07418,-0.07418 -0.11126,-0.17617 -0.11126,-0.30598v-5.2202c0,-0.12981 0.03709,-0.2318 0.11126,-0.30598c0.07418,-0.07418 0.17926,-0.11126 0.31525,-0.11126c0.12981,0 0.2318,0.03709 0.30598,0.11126c0.07418,0.07418 0.11126,0.17617 0.11126,0.30598v5.2202c0,0.12981 -0.03709,0.2318 -0.11126,0.30598c-0.07418,0.07418 -0.17617,0.11126 -0.30598,0.11126zM250.51986,184.35325c-0.58723,0 -1.11265,-0.1329 -1.57626,-0.3987c-0.46361,-0.27198 -0.8314,-0.63977 -1.10338,-1.10338c-0.2658,-0.46978 -0.3987,-0.99829 -0.3987,-1.58553c0,-0.58105 0.12981,-1.10338 0.38943,-1.56699c0.2658,-0.46978 0.62123,-0.83758 1.06629,-1.10338c0.45124,-0.27198 0.96121,-0.40797 1.5299,-0.40797c0.49452,0 0.93958,0.10508 1.33519,0.31525c0.40179,0.21017 0.72632,0.48833 0.97357,0.83449v-3.25451c0,-0.12981 0.04018,-0.23489 0.12054,-0.31525c0.08036,-0.08036 0.18235,-0.12054 0.30598,-0.12054c0.12363,0 0.22562,0.04018 0.30598,0.12054c0.08654,0.08036 0.12981,0.18544 0.12981,0.31525v5.22947c-0.01855,0.57487 -0.16381,1.09411 -0.43579,1.55771c-0.2658,0.45743 -0.6305,0.81904 -1.09411,1.08484c-0.45743,0.2658 -0.97357,0.3987 -1.54845,0.3987zM250.51986,183.57441c0.42652,0 0.80667,-0.0989 1.14047,-0.29671c0.33998,-0.20399 0.60578,-0.47906 0.7974,-0.82522c0.19781,-0.35234 0.29671,-0.74795 0.29671,-1.18683c0,-0.43888 -0.0989,-0.8314 -0.29671,-1.17756c-0.19162,-0.35234 -0.45743,-0.62741 -0.7974,-0.82522c-0.3338,-0.20399 -0.71395,-0.30598 -1.14047,-0.30598c-0.42034,0 -0.80049,0.10199 -1.14047,0.30598c-0.33998,0.19781 -0.61196,0.47288 -0.81595,0.82522c-0.19781,0.34616 -0.29671,0.73868 -0.29671,1.17756c0,0.43888 0.0989,0.83449 0.29671,1.18683c0.20399,0.34616 0.47597,0.62123 0.81595,0.82522c0.33998,0.19781 0.72013,0.29671 1.14047,0.29671z" fill="#000000" stroke-width="0.5" stroke-linecap="square"/></g></g></svg>