<svg version="1.1" xmlns="http://www.w3.org/2000/svg" xmlns:xlink="http://www.w3.org/1999/xlink" width="74.17977" height="60.71205" viewBox="0,0,74.17977,60.71205"><g transform="translate(-202.76545,-151.37466)"><g data-paper-data="{&quot;isPaintingLayer&quot;:true}" fill-rule="nonzero" stroke-linejoin="miter" stroke-miterlimit="10" stroke-dasharray="" stroke-dashoffset="0" style="mix-blend-mode: normal"><path d="M207.47609,211.26238v-58.46641h40.40095v58.46641z" fill="#cc2525" stroke="#000000" stroke-width="0" stroke-linecap="butt"/><path d="M203.80366,211.05522v-14.69265h47.75111v14.69265z" fill="#c59e9e" stroke="#000000" stroke-width="0" stroke-linecap="butt"/><path d="M239.36428,196.36259h12.30117v14.72412h-47.9v-14.72412h27.9572" fill="none" stroke="#000000" stroke-width="2" stroke-linecap="round"/><path d="M207.61545,174.82466v-22.2h40.40094v42.8" data-paper-data="{&quot;index&quot;:null}" fill="none" stroke="#000000" stroke-width="2.5" stroke-linecap="round"/><path d="M207.47609,182.22466v12.8" fill="none" stroke="#000000" stroke-width="2" stroke-linecap="round"/><path d="M275.22617,155.2057c0,0 0.48363,16.8774 0.46905,27.37272c-0.01854,13.34131 -4.87114,16.9193 -9.6104,16.72593c-4.57217,-0.18655 -8.49986,-3.66137 -8.41871,-17.20161c0.0295,-4.9217 -0.13546,-13.70455 -0.24081,-17.92825c-0.0346,-1.38713 -0.82923,-3.82897 -1.88625,-4.63642c-1.85529,-1.41724 -4.81252,-2.26805 -7.31831,1.37035" fill="none" stroke="#000000" stroke-width="2.5" stroke-linecap="round"/><path d="M219.00165,168.91673c0,0 -0.25793,0 -2.97901,0c-1.05134,0 -2.18632,-1.2788 -2.18632,-2.24192c0,-1.21853 0,-4.25607 0,-6.4009c0,-1.26513 1.08702,-2.27119 2.10729,-2.27119c2.90636,0 17.00245,0 23.07484,0c1.71673,0 2.79755,1.24416 2.80157,2.98285c0.00187,0.80699 0.00883,3.26658 0.0129,4.71238c0.00825,2.93314 -2.34171,3.1705 -4.13158,3.1705c-3.28245,0 -13.95326,0 -13.95326,0" fill="#ffdddd" stroke="#000000" stroke-width="2" stroke-linecap="round"/><path d="M219.47749,176.84632h16.71429" fill="none" stroke="#9d0000" stroke-width="2.5" stroke-linecap="round"/><path d="M219.31942,182.02918h16.71429" fill="none" stroke="#9d0000" stroke-width="2.5" stroke-linecap="round"/><path d="M219.31942,187.52834h16.71429" fill="none" stroke="#9d0000" stroke-width="2.5" stroke-linecap="round"/></g></g></svg>