<svg version="1.1" xmlns="http://www.w3.org/2000/svg" xmlns:xlink="http://www.w3.org/1999/xlink" width="86.43104" height="34.91401" viewBox="0,0,86.43104,34.91401"><g transform="translate(-196.78448,-162.543)"><g data-paper-data="{&quot;isPaintingLayer&quot;:true}" fill-rule="nonzero" stroke="#000000" stroke-linejoin="miter" stroke-miterlimit="10" stroke-dasharray="" stroke-dashoffset="0" style="mix-blend-mode: normal"><path d="M252.32404,196.31141c0,0 -32.18058,0 -42.07965,0c-5.39781,0 -12.48472,-0.71582 -12.45984,-9.56146c0.01227,-4.36019 0.03326,-11.77771 0.0389,-14.2114c0.01213,-5.24346 3.27162,-8.99555 8.44886,-8.99555c18.31286,0 60.82325,0 69.58813,0c3.07689,0 6.35508,3.03403 6.35508,6.84936c0,6.46828 0,15.62877 0,19.30356c0,2.90454 -3.42282,6.76109 -6.59341,6.76109c-8.20612,0 -8.98397,0 -8.98397,0" data-paper-data="{&quot;index&quot;:null}" fill="#c2d6ea" stroke-width="2" stroke-linecap="round"/><path d="M225.70529,183.16487c-0.13004,0 -0.24057,-0.04226 -0.3316,-0.12679c-0.08453,-0.08453 -0.12679,-0.19506 -0.12679,-0.3316v-8.18279c0,-0.13004 0.04226,-0.23732 0.12679,-0.32185c0.09103,-0.09103 0.20156,-0.13654 0.3316,-0.13654h2.17492c0.56568,0 1.06958,0.12029 1.51172,0.36086c0.44864,0.23407 0.7965,0.56242 1.04357,0.98506c0.25358,0.42263 0.38037,0.91028 0.38037,1.46295c0,0.52666 -0.12679,0.99806 -0.38037,1.41419c-0.24708,0.40963 -0.59493,0.73148 -1.04357,0.96555c-0.44214,0.23407 -0.94604,0.35111 -1.51172,0.35111h-1.71653v3.10146c0,0.13654 -0.04551,0.24708 -0.13654,0.3316c-0.08453,0.08453 -0.19181,0.12679 -0.32185,0.12679zM230.57204,183.16487c-0.09753,0 -0.17555,-0.01951 -0.23407,-0.05852c-0.05852,-0.03901 -0.11378,-0.09753 -0.1658,-0.17555l-2.23344,-3.55985l0.90703,-0.23407l2.08715,3.32578c0.11704,0.18856 0.13654,0.35436 0.05852,0.4974c-0.07152,0.13654 -0.21131,0.20481 -0.41938,0.20481zM226.16368,178.72724h1.71653c0.39662,0 0.74773,-0.07802 1.05333,-0.23407c0.3056,-0.16255 0.54617,-0.38362 0.72172,-0.66321c0.18206,-0.27959 0.27308,-0.59819 0.27308,-0.9558c0,-0.37712 -0.09103,-0.71197 -0.27308,-1.00456c-0.17555,-0.29259 -0.41613,-0.52016 -0.72172,-0.68271c-0.3056,-0.16255 -0.6567,-0.24383 -1.05333,-0.24383h-1.71653zM235.22319,183.22338c-0.63069,0 -1.18987,-0.13654 -1.67752,-0.40963c-0.48115,-0.27959 -0.86152,-0.66321 -1.1411,-1.15086c-0.27308,-0.48765 -0.40963,-1.04683 -0.40963,-1.67752c0,-0.6372 0.13004,-1.19637 0.39012,-1.67752c0.26008,-0.48765 0.61769,-0.87127 1.07283,-1.15086c0.46164,-0.27959 0.99156,-0.41938 1.58974,-0.41938c0.58518,0 1.09559,0.13329 1.53122,0.39987c0.44214,0.26658 0.78349,0.6372 1.02407,1.11184c0.24057,0.47465 0.36086,1.01431 0.36086,1.619c0,0.12354 -0.03901,0.22432 -0.11704,0.30234c-0.07802,0.07152 -0.17881,0.10728 -0.30234,0.10728h-4.94478v-0.75098h5.04231l-0.4974,0.36086c0.0065,-0.44864 -0.07802,-0.85177 -0.25358,-1.20937c-0.16905,-0.35761 -0.40963,-0.6372 -0.72172,-0.83876c-0.3121,-0.20156 -0.68596,-0.30234 -1.1216,-0.30234c-0.44214,0 -0.83226,0.10728 -1.17036,0.32185c-0.3316,0.20807 -0.58843,0.4974 -0.77049,0.86802c-0.18206,0.36411 -0.27308,0.78349 -0.27308,1.25814c0,0.47465 0.10078,0.89403 0.30234,1.25814c0.20807,0.36411 0.4909,0.65345 0.84851,0.86802c0.35761,0.20807 0.77049,0.3121 1.23863,0.3121c0.27959,0 0.55917,-0.04877 0.83876,-0.1463c0.28609,-0.09753 0.51366,-0.22107 0.68271,-0.37061c0.08453,-0.07152 0.18206,-0.10728 0.29259,-0.10728c0.11054,-0.0065 0.20156,0.02276 0.27308,0.08778c0.10403,0.09103 0.15605,0.19181 0.15605,0.30234c0.0065,0.10403 -0.03576,0.19506 -0.12679,0.27308c-0.26008,0.22107 -0.58843,0.40313 -0.98506,0.54617c-0.39012,0.14304 -0.76724,0.21457 -1.13135,0.21457zM241.97343,183.16487c-0.40963,0 -0.77699,-0.09753 -1.10209,-0.29259c-0.3186,-0.19506 -0.57218,-0.46164 -0.76074,-0.79975c-0.18856,-0.3381 -0.28284,-0.72172 -0.28284,-1.15086v-5.69577c0,-0.13654 0.03901,-0.24708 0.11704,-0.3316c0.08453,-0.08453 0.19506,-0.12679 0.3316,-0.12679c0.13004,0 0.23732,0.04226 0.32185,0.12679c0.08453,0.08453 0.12679,0.19506 0.12679,0.3316v5.69577c0,0.39012 0.11704,0.71197 0.35111,0.96555c0.23407,0.25358 0.53316,0.38037 0.89728,0.38037h0.3121c0.12354,0 0.22432,0.04226 0.30234,0.12679c0.07802,0.08453 0.11704,0.19506 0.11704,0.3316c0,0.13004 -0.04551,0.23732 -0.13654,0.32185c-0.09103,0.07802 -0.20807,0.11704 -0.35111,0.11704zM239.07678,177.81046c-0.11704,0 -0.21457,-0.03576 -0.29259,-0.10728c-0.07802,-0.07802 -0.11704,-0.1723 -0.11704,-0.28284c0,-0.11704 0.03901,-0.21131 0.11704,-0.28284c0.07802,-0.07152 0.17555,-0.10728 0.29259,-0.10728h2.96492c0.11704,0 0.21457,0.03576 0.29259,0.10728c0.07802,0.07152 0.11704,0.1658 0.11704,0.28284c0,0.11054 -0.03901,0.20481 -0.11704,0.28284c-0.07802,0.07152 -0.17555,0.10728 -0.29259,0.10728zM244.53836,179.24415c0.01951,-0.48115 0.14304,-0.91028 0.37061,-1.2874c0.23407,-0.38362 0.53316,-0.68271 0.89728,-0.89728c0.37061,-0.22107 0.78024,-0.3316 1.22888,-0.3316c0.35761,0 0.63395,0.05202 0.82901,0.15605c0.19506,0.09753 0.26983,0.24383 0.22432,0.43889c-0.03251,0.11704 -0.08778,0.19506 -0.1658,0.23407c-0.07152,0.03251 -0.1593,0.04551 -0.26333,0.03901c-0.10403,-0.0065 -0.22107,-0.01301 -0.35111,-0.01951c-0.43563,-0.03901 -0.82251,0.0065 -1.16061,0.13654c-0.3381,0.12354 -0.60794,0.3186 -0.8095,0.58518c-0.19506,0.26658 -0.29259,0.58193 -0.29259,0.94604zM244.60663,183.16487c-0.14304,0 -0.25358,-0.03901 -0.3316,-0.11704c-0.07802,-0.07802 -0.11704,-0.18531 -0.11704,-0.32185v-5.49095c0,-0.13654 0.03901,-0.24383 0.11704,-0.32185c0.07802,-0.07802 0.18856,-0.11704 0.3316,-0.11704c0.13654,0 0.24383,0.03901 0.32185,0.11704c0.07802,0.07802 0.11704,0.18531 0.11704,0.32185v5.49095c0,0.13654 -0.03901,0.24383 -0.11704,0.32185c-0.07802,0.07802 -0.18531,0.11704 -0.32185,0.11704zM250.59353,185.93472c-0.06502,0 -0.13654,-0.01625 -0.21457,-0.04877c-0.26008,-0.11704 -0.3316,-0.30234 -0.21457,-0.55592l3.75491,-8.29007c0.11704,-0.24708 0.30234,-0.3186 0.55592,-0.21457c0.26658,0.11054 0.34136,0.29584 0.22432,0.55592l-3.77442,8.29007c-0.07802,0.17555 -0.18856,0.26333 -0.3316,0.26333zM251.88093,182.96981c-0.11704,0.05202 -0.22757,0.06177 -0.3316,0.02926c-0.09753,-0.03901 -0.17555,-0.11704 -0.23407,-0.23407l-2.60406,-5.37392c-0.05202,-0.11704 -0.05852,-0.22432 -0.01951,-0.32185c0.03901,-0.10403 0.11704,-0.18531 0.23407,-0.24383c0.11704,-0.05202 0.22432,-0.05852 0.32185,-0.01951c0.10403,0.03251 0.18206,0.10728 0.23407,0.22432l2.55529,5.37392c0.05852,0.11704 0.07477,0.22757 0.04877,0.3316c-0.01951,0.09753 -0.08778,0.17555 -0.20481,0.23407z" fill="#000000" stroke-width="0.5" stroke-linecap="square"/></g></g></svg>