<svg version="1.1" xmlns="http://www.w3.org/2000/svg" xmlns:xlink="http://www.w3.org/1999/xlink" width="19.81271" height="25.46311" viewBox="0,0,19.81271,25.46311"><g transform="translate(-230.09365,-167.26845)"><g data-paper-data="{&quot;isPaintingLayer&quot;:true}" fill="#ffffff" fill-rule="nonzero" stroke="none" stroke-width="1" stroke-linecap="square" stroke-linejoin="miter" stroke-miterlimit="10" stroke-dasharray="" stroke-dashoffset="0" style="mix-blend-mode: normal"><path d="M245.19942,180.00001c0,-2.7509 -0.45964,-4.79334 -1.37891,-6.12732c-0.91236,-1.34089 -2.18759,-2.01134 -3.82569,-2.01134c-1.62428,0 -2.88568,0.66353 -3.78422,1.9906c-0.89854,1.32016 -1.3478,3.36951 -1.3478,6.14806c0,2.7509 0.44927,4.7968 1.3478,6.13769c0.89854,1.33398 2.15994,2.00097 3.78422,2.00097c0.81559,0 1.54479,-0.16243 2.18759,-0.48728c0.64971,-0.33177 1.19574,-0.82942 1.6381,-1.49295c0.44236,-0.67045 0.78103,-1.51369 1.01604,-2.52972c0.24191,-1.02295 0.36287,-2.23252 0.36287,-3.6287zM249.90637,180.00001c0,2.35002 -0.25919,4.33716 -0.77758,5.96144c-0.51839,1.62428 -1.22685,2.93752 -2.12538,3.93973c-0.89162,1.00221 -1.94222,1.7245 -3.15179,2.16685c-1.20266,0.44236 -2.48825,0.66353 -3.85679,0.66353c-1.36854,0 -2.65759,-0.22463 -3.86716,-0.6739c-1.20266,-0.45618 -2.24979,-1.18883 -3.14142,-2.19796c-0.89162,-1.00912 -1.59663,-2.32237 -2.11501,-3.93973c-0.51839,-1.61736 -0.77758,-3.59069 -0.77758,-5.91997c0,-2.35002 0.25919,-4.33371 0.77758,-5.95107c0.51839,-1.61736 1.22339,-2.92715 2.11501,-3.92936c0.89162,-1.00221 1.93876,-1.72795 3.14142,-2.17722c1.20957,-0.44927 2.49862,-0.6739 3.86716,-0.6739c1.36854,0 2.65414,0.22809 3.85679,0.68427c1.20957,0.45618 2.26016,1.19229 3.15179,2.20832c0.89854,1.00912 1.607,2.31891 2.12538,3.92936c0.51839,1.61045 0.77758,3.58032 0.77758,5.9096z"/></g></g></svg>