<svg version="1.1" xmlns="http://www.w3.org/2000/svg" xmlns:xlink="http://www.w3.org/1999/xlink" width="17.34519" height="24.77884" viewBox="0,0,17.34519,24.77884"><g transform="translate(-231.3274,-167.61058)"><g data-paper-data="{&quot;isPaintingLayer&quot;:true}" fill="#ffffff" fill-rule="nonzero" stroke="none" stroke-width="1" stroke-linecap="square" stroke-linejoin="miter" stroke-miterlimit="10" stroke-dasharray="" stroke-dashoffset="0" style="mix-blend-mode: normal"><path d="M248.6726,175.04423c0,1.02295 -0.19699,1.98715 -0.59096,2.89259c-0.38706,0.90545 -0.91927,1.69685 -1.59663,2.37421c-0.67045,0.67045 -1.45494,1.20266 -2.35347,1.59663c-0.89854,0.38706 -1.86273,0.58059 -2.89259,0.58059h-2.48825c-0.34559,0 -0.66699,0.06566 -0.9642,0.19699c-0.29721,0.12441 -0.55986,0.30066 -0.78795,0.52875c-0.22118,0.22118 -0.39743,0.48037 -0.52875,0.77758c-0.12441,0.29721 -0.18662,0.61861 -0.18662,0.9642v2.47788h11.71552v4.95577h-16.67129v-7.43365c0,-1.02295 0.19353,-1.98715 0.58059,-2.89259c0.39397,-0.90545 0.92618,-1.69339 1.59663,-2.36384c0.67736,-0.67736 1.4653,-1.20611 2.36384,-1.58626c0.89854,-0.38706 1.85928,-0.58059 2.88223,-0.58059h2.48825c0.34559,0 0.66699,-0.06221 0.9642,-0.18662c0.30412,-0.13132 0.56677,-0.30758 0.78795,-0.52875c0.22809,-0.22809 0.40434,-0.49419 0.52875,-0.79831c0.13132,-0.30412 0.19699,-0.62897 0.19699,-0.97457c0,-0.34559 -0.06566,-0.66699 -0.19699,-0.9642c-0.12441,-0.30412 -0.30066,-0.56677 -0.52875,-0.78795c-0.22118,-0.22809 -0.48383,-0.40434 -0.78795,-0.52875c-0.29721,-0.12441 -0.61861,-0.18662 -0.9642,-0.18662h-8.84366v-4.96614h8.84366c1.02986,0 1.99406,0.19699 2.89259,0.59096c0.89854,0.39397 1.68303,0.92964 2.35347,1.607c0.67736,0.67045 1.20957,1.45494 1.59663,2.35347c0.39397,0.89854 0.59096,1.85928 0.59096,2.88223z"/></g></g></svg>