<svg version="1.1" xmlns="http://www.w3.org/2000/svg" xmlns:xlink="http://www.w3.org/1999/xlink" width="86.43097" height="34.91401" viewBox="0,0,86.43097,34.91401"><g transform="translate(-196.78451,-162.54304)"><g data-paper-data="{&quot;isPaintingLayer&quot;:true}" fill-rule="nonzero" stroke="#000000" stroke-linejoin="miter" stroke-miterlimit="10" stroke-dasharray="" stroke-dashoffset="0" style="mix-blend-mode: normal"><path d="M266.6381,163.54304c0,0 0.77785,0 8.98397,0c3.17059,0 6.59341,3.85655 6.59341,6.76109c0,3.67479 0,12.83528 0,19.30356c0,3.81533 -3.27819,6.84936 -6.35508,6.84936c-8.76488,0 -51.27527,0 -69.58813,0c-5.17724,0 -8.43673,-3.75209 -8.44886,-8.99555c-0.00564,-2.43369 -0.02663,-9.85121 -0.0389,-14.2114c-0.02488,-8.84564 7.06203,-9.56146 12.45984,-9.56146c9.89907,0 42.07965,0 42.07965,0" data-paper-data="{&quot;index&quot;:null}" fill-opacity="0.77809" fill="#a5b4cb" stroke-width="2" stroke-linecap="round"/><path d="M203.46137,184.2977c-0.11745,0 -0.21944,-0.04019 -0.30598,-0.12054c-0.08654,-0.08035 -0.12981,-0.18544 -0.12981,-0.31525v-7.77931c0,-0.11744 0.04327,-0.21944 0.12981,-0.30598c0.08654,-0.08654 0.18854,-0.12981 0.30598,-0.12981c0.11745,0 0.21944,0.04327 0.30598,0.12981c0.08654,0.08654 0.12981,0.18854 0.12981,0.30598v7.39915h4.32081c0.11745,0 0.21944,0.04018 0.30598,0.12054c0.08654,0.07418 0.12981,0.16999 0.12981,0.28744c0,0.11744 -0.04327,0.21636 -0.12981,0.29671c-0.08654,0.07418 -0.18854,0.11127 -0.30598,0.11127zM212.67602,184.3533c-0.59959,0 -1.1312,-0.12981 -1.5948,-0.38943c-0.45743,-0.2658 -0.81904,-0.63051 -1.08484,-1.09411c-0.25962,-0.4636 -0.38942,-0.99521 -0.38942,-1.59481c0,-0.60578 0.12363,-1.13738 0.37088,-1.59481c0.24725,-0.4636 0.58723,-0.82831 1.01993,-1.09411c0.43888,-0.2658 0.94267,-0.3987 1.51136,-0.3987c0.55632,0 1.04156,0.12671 1.45572,0.38016c0.42033,0.25344 0.74487,0.60579 0.97358,1.05703c0.22871,0.45124 0.34306,0.9643 0.34306,1.53917c0,0.11744 -0.03709,0.21326 -0.11127,0.28744c-0.07417,0.06799 -0.16999,0.10199 -0.28743,0.10199h-4.70096v-0.71395h4.79368l-0.47287,0.34307c0.00618,-0.42652 -0.07417,-0.80977 -0.24107,-1.14974c-0.16072,-0.33997 -0.38943,-0.60578 -0.68614,-0.7974c-0.29671,-0.19162 -0.65214,-0.28744 -1.06629,-0.28744c-0.42033,0 -0.79122,0.102 -1.11265,0.30598c-0.31525,0.19781 -0.55942,0.47288 -0.7325,0.82522c-0.17308,0.34616 -0.25962,0.74486 -0.25962,1.1961c0,0.45124 0.09581,0.84994 0.28743,1.1961c0.1978,0.34616 0.4667,0.62124 0.80667,0.82522c0.33998,0.19781 0.7325,0.29671 1.17756,0.29671c0.2658,0 0.53161,-0.04637 0.79741,-0.13909c0.27199,-0.09272 0.48833,-0.21016 0.64905,-0.35234c0.08035,-0.06799 0.17308,-0.102 0.27816,-0.102c0.10509,-0.00618 0.19163,0.02164 0.25962,0.08345c0.0989,0.08654 0.14836,0.18235 0.14836,0.28744c0.00618,0.0989 -0.034,0.18544 -0.12054,0.25962c-0.24725,0.21017 -0.55942,0.38325 -0.93649,0.51924c-0.37088,0.13599 -0.72941,0.20399 -1.07557,0.20399zM219.16857,184.3533c-0.56869,0 -1.07866,-0.1329 -1.5299,-0.3987c-0.44506,-0.27198 -0.80049,-0.63978 -1.06629,-1.10338c-0.25962,-0.46979 -0.38943,-0.99521 -0.38943,-1.57626c0,-0.58724 0.1329,-1.11266 0.3987,-1.57626c0.27199,-0.46979 0.63978,-0.83758 1.10338,-1.10338c0.46361,-0.27198 0.98903,-0.40798 1.57627,-0.40798c0.58105,0 1.10029,0.13599 1.55772,0.40798c0.46361,0.2658 0.83139,0.6336 1.10338,1.10338c0.27199,0.4636 0.41107,0.98902 0.41725,1.57626l-0.34307,0.26889c0,0.53161 -0.12363,1.01066 -0.37089,1.43718c-0.24725,0.42034 -0.58414,0.75413 -1.01066,1.00139c-0.42652,0.24725 -0.90867,0.37089 -1.44645,0.37089zM219.2613,183.57447c0.42652,0 0.80667,-0.09891 1.14047,-0.29671c0.33998,-0.19781 0.60578,-0.47288 0.7974,-0.82522c0.1978,-0.35234 0.29671,-0.74486 0.29671,-1.17756c0,-0.44506 -0.09891,-0.84067 -0.29671,-1.18683c-0.19162,-0.34616 -0.45743,-0.62124 -0.7974,-0.82522c-0.3338,-0.20398 -0.71395,-0.30598 -1.14047,-0.30598c-0.42033,0 -0.8005,0.102 -1.14048,0.30598c-0.33998,0.20398 -0.61196,0.47906 -0.81594,0.82522c-0.1978,0.34616 -0.29671,0.74177 -0.29671,1.18683c0,0.4327 0.09891,0.82522 0.29671,1.17756c0.20398,0.35234 0.47597,0.62741 0.81594,0.82522c0.33998,0.19781 0.72014,0.29671 1.14048,0.29671zM221.90385,184.2977c-0.12363,0 -0.22563,-0.03709 -0.30598,-0.11127c-0.08035,-0.08035 -0.12054,-0.18235 -0.12054,-0.30598v-1.90078l0.20399,-0.87158l0.65832,0.1669v2.60547c0,0.12363 -0.04327,0.22563 -0.12981,0.30598c-0.08035,0.07418 -0.18235,0.11127 -0.30598,0.11127zM226.7563,184.3533c-0.58724,0 -1.11266,-0.1329 -1.57626,-0.3987c-0.46361,-0.27198 -0.8314,-0.63978 -1.10338,-1.10338c-0.2658,-0.46979 -0.39871,-0.9983 -0.39871,-1.58553c0,-0.58105 0.12981,-1.10339 0.38943,-1.56699c0.2658,-0.46979 0.62124,-0.83758 1.0663,-1.10338c0.45124,-0.27198 0.96121,-0.40798 1.5299,-0.40798c0.49451,0 0.93957,0.10508 1.33518,0.31525c0.40179,0.21017 0.72632,0.48834 0.97358,0.8345v-3.25451c0,-0.12981 0.04018,-0.2349 0.12053,-0.31525c0.08035,-0.08035 0.18235,-0.12054 0.30598,-0.12054c0.12363,0 0.22562,0.04018 0.30598,0.12054c0.08654,0.08035 0.12981,0.18544 0.12981,0.31525v5.22947c-0.01855,0.57487 -0.16381,1.09411 -0.43579,1.55772c-0.2658,0.45743 -0.63051,0.81904 -1.09411,1.08484c-0.45743,0.2658 -0.97358,0.3987 -1.54845,0.3987zM226.7563,183.57447c0.42652,0 0.80667,-0.09891 1.14047,-0.29671c0.33997,-0.20398 0.60578,-0.47906 0.79741,-0.82522c0.19781,-0.35234 0.29671,-0.74795 0.29671,-1.18683c0,-0.43888 -0.0989,-0.8314 -0.29671,-1.17756c-0.19162,-0.35234 -0.45743,-0.62741 -0.79741,-0.82522c-0.3338,-0.20398 -0.71395,-0.30598 -1.14047,-0.30598c-0.42034,0 -0.8005,0.102 -1.14047,0.30598c-0.33997,0.19781 -0.61196,0.47288 -0.81594,0.82522c-0.1978,0.34616 -0.29671,0.73868 -0.29671,1.17756c0,0.43888 0.09891,0.83449 0.29671,1.18683c0.20398,0.34616 0.47597,0.62124 0.81594,0.82522c0.33997,0.19781 0.72013,0.29671 1.14047,0.29671zM234.57417,184.3533c-0.5996,0 -1.1312,-0.12981 -1.5948,-0.38943c-0.45743,-0.2658 -0.81904,-0.63051 -1.08484,-1.09411c-0.25962,-0.4636 -0.38943,-0.99521 -0.38943,-1.59481c0,-0.60578 0.12363,-1.13738 0.37089,-1.59481c0.24725,-0.4636 0.58723,-0.82831 1.01993,-1.09411c0.43888,-0.2658 0.94266,-0.3987 1.51135,-0.3987c0.55633,0 1.04157,0.12671 1.45573,0.38016c0.42034,0.25344 0.74486,0.60579 0.97357,1.05703c0.22871,0.45124 0.34307,0.9643 0.34307,1.53917c0,0.11744 -0.03709,0.21326 -0.11127,0.28744c-0.07418,0.06799 -0.16999,0.10199 -0.28744,0.10199h-4.70096v-0.71395h4.79368l-0.47287,0.34307c0.00618,-0.42652 -0.07418,-0.80977 -0.24108,-1.14974c-0.16072,-0.33997 -0.38942,-0.60578 -0.68613,-0.7974c-0.29671,-0.19162 -0.65214,-0.28744 -1.0663,-0.28744c-0.42034,0 -0.79122,0.102 -1.11265,0.30598c-0.31525,0.19781 -0.55942,0.47288 -0.7325,0.82522c-0.17308,0.34616 -0.25962,0.74486 -0.25962,1.1961c0,0.45124 0.09581,0.84994 0.28744,1.1961c0.19781,0.34616 0.4667,0.62124 0.80667,0.82522c0.33997,0.19781 0.7325,0.29671 1.17756,0.29671c0.2658,0 0.5316,-0.04637 0.7974,-0.13909c0.27198,-0.09272 0.48833,-0.21016 0.64905,-0.35234c0.08035,-0.06799 0.17308,-0.102 0.27817,-0.102c0.10508,-0.00618 0.19162,0.02164 0.25962,0.08345c0.0989,0.08654 0.14836,0.18235 0.14836,0.28744c0.00618,0.0989 -0.034,0.18544 -0.12054,0.25962c-0.24725,0.21017 -0.55942,0.38325 -0.93649,0.51924c-0.37088,0.13599 -0.72941,0.20399 -1.07557,0.20399zM238.97951,180.57026c0.01855,-0.45743 0.13599,-0.8654 0.35234,-1.22392c0.22253,-0.36471 0.50688,-0.64905 0.85304,-0.85303c0.35234,-0.21017 0.74177,-0.31525 1.16829,-0.31525c0.33997,0 0.60269,0.04945 0.78813,0.14835c0.18544,0.09272 0.25653,0.2318 0.21326,0.41724c-0.03091,0.11127 -0.08345,0.18545 -0.15762,0.22253c-0.06799,0.03091 -0.15144,0.04326 -0.25034,0.03708c-0.0989,-0.00618 -0.21017,-0.01236 -0.3338,-0.01854c-0.41415,-0.03709 -0.78195,0.00617 -1.10339,0.1298c-0.32144,0.11744 -0.57796,0.30289 -0.76959,0.55633c-0.18544,0.25344 -0.27817,0.55324 -0.27817,0.8994zM239.04441,184.2977c-0.13599,0 -0.24108,-0.03709 -0.31526,-0.11127c-0.07418,-0.07418 -0.11127,-0.17617 -0.11127,-0.30598v-5.2202c0,-0.12981 0.03709,-0.23181 0.11127,-0.30598c0.07418,-0.07418 0.17927,-0.11127 0.31526,-0.11127c0.12981,0 0.2318,0.03709 0.30598,0.11127c0.07418,0.07418 0.11127,0.17617 0.11127,0.30598v5.2202c0,0.12981 -0.03709,0.23181 -0.11127,0.30598c-0.07418,0.07418 -0.17617,0.11127 -0.30598,0.11127zM246.75744,184.3533c-0.57487,0 -1.09412,-0.1329 -1.55772,-0.3987c-0.45743,-0.2658 -0.82213,-0.62741 -1.09411,-1.08484c-0.2658,-0.4636 -0.40488,-0.98285 -0.41724,-1.55772v-5.22947c0,-0.12981 0.04018,-0.2349 0.12054,-0.31525c0.08035,-0.08035 0.18544,-0.12054 0.31525,-0.12054c0.12363,0 0.22253,0.04018 0.29671,0.12054c0.08035,0.08035 0.12054,0.18544 0.12054,0.31525v3.25451c0.24725,-0.34616 0.57178,-0.62433 0.97357,-0.8345c0.40179,-0.21017 0.84994,-0.31525 1.34446,-0.31525c0.56869,0 1.07867,0.13599 1.5299,0.40798c0.45124,0.2658 0.80667,0.6336 1.06629,1.10338c0.25962,0.4636 0.38943,0.98594 0.38943,1.56699c0,0.58724 -0.13599,1.11575 -0.40798,1.58553c-0.2658,0.4636 -0.63051,0.8314 -1.09411,1.10338c-0.4636,0.2658 -0.99211,0.3987 -1.58553,0.3987zM246.75744,183.57447c0.42652,0 0.80976,-0.09891 1.14974,-0.29671c0.33997,-0.20398 0.60887,-0.47906 0.80668,-0.82522c0.19781,-0.35234 0.29671,-0.74795 0.29671,-1.18683c0,-0.43888 -0.0989,-0.8314 -0.29671,-1.17756c-0.19781,-0.35234 -0.4667,-0.62741 -0.80668,-0.82522c-0.33997,-0.20398 -0.72322,-0.30598 -1.14974,-0.30598c-0.42034,0 -0.8005,0.102 -1.14047,0.30598c-0.33997,0.19781 -0.60578,0.47288 -0.7974,0.82522c-0.19162,0.34616 -0.28744,0.73868 -0.28744,1.17756c0,0.43888 0.09581,0.83449 0.28744,1.18683c0.19162,0.34616 0.45743,0.62124 0.7974,0.82522c0.33997,0.19781 0.72014,0.29671 1.14047,0.29671zM254.2786,184.3533c-0.59341,0 -1.12193,-0.1329 -1.58553,-0.3987c-0.4636,-0.2658 -0.82831,-0.63051 -1.09411,-1.09411c-0.2658,-0.4636 -0.39871,-0.99212 -0.39871,-1.58553c0,-0.5996 0.1329,-1.1312 0.39871,-1.59481c0.2658,-0.4636 0.63051,-0.82831 1.09411,-1.09411c0.4636,-0.2658 0.99212,-0.3987 1.58553,-0.3987c0.58724,0 1.11266,0.1329 1.57626,0.3987c0.4636,0.2658 0.82832,0.63051 1.09412,1.09411c0.2658,0.4636 0.40179,0.99521 0.40797,1.59481c0,0.59341 -0.13599,1.12193 -0.40797,1.58553c-0.2658,0.4636 -0.63051,0.82831 -1.09412,1.09411c-0.4636,0.2658 -0.98902,0.3987 -1.57626,0.3987zM254.2786,183.57447c0.42652,0 0.80977,-0.09891 1.14974,-0.29671c0.33997,-0.19781 0.60578,-0.46979 0.7974,-0.81594c0.19162,-0.34616 0.28744,-0.74177 0.28744,-1.18683c0,-0.44506 -0.09582,-0.84067 -0.28744,-1.18683c-0.19162,-0.35234 -0.45743,-0.62741 -0.7974,-0.82522c-0.33997,-0.20398 -0.72323,-0.30598 -1.14974,-0.30598c-0.42652,0 -0.80977,0.102 -1.14974,0.30598c-0.33997,0.19781 -0.60887,0.47288 -0.80667,0.82522c-0.19781,0.34616 -0.29671,0.74177 -0.29671,1.18683c0,0.44506 0.09891,0.84067 0.29671,1.18683c0.19781,0.34616 0.4667,0.61814 0.80667,0.81594c0.33997,0.19781 0.72322,0.29671 1.14974,0.29671zM261.68088,184.3533c-0.56869,0 -1.07866,-0.1329 -1.5299,-0.3987c-0.44506,-0.27198 -0.80049,-0.63978 -1.06629,-1.10338c-0.25962,-0.46979 -0.38943,-0.99521 -0.38943,-1.57626c0,-0.58724 0.1329,-1.11266 0.3987,-1.57626c0.27198,-0.46979 0.63978,-0.83758 1.10339,-1.10338c0.4636,-0.27198 0.98903,-0.40798 1.57626,-0.40798c0.58105,0 1.10029,0.13599 1.55771,0.40798c0.4636,0.2658 0.8314,0.6336 1.10339,1.10338c0.27198,0.4636 0.41107,0.98902 0.41724,1.57626l-0.34307,0.26889c0,0.53161 -0.12363,1.01066 -0.37089,1.43718c-0.24725,0.42034 -0.58414,0.75413 -1.01066,1.00139c-0.42652,0.24725 -0.90867,0.37089 -1.44645,0.37089zM261.77361,183.57447c0.42652,0 0.80667,-0.09891 1.14047,-0.29671c0.33997,-0.19781 0.60578,-0.47288 0.7974,-0.82522c0.19781,-0.35234 0.29671,-0.74486 0.29671,-1.17756c0,-0.44506 -0.0989,-0.84067 -0.29671,-1.18683c-0.19162,-0.34616 -0.45743,-0.62124 -0.7974,-0.82522c-0.3338,-0.20398 -0.71395,-0.30598 -1.14047,-0.30598c-0.42034,0 -0.8005,0.102 -1.14047,0.30598c-0.33997,0.20398 -0.61196,0.47906 -0.81595,0.82522c-0.19781,0.34616 -0.2967,0.74177 -0.2967,1.18683c0,0.4327 0.0989,0.82522 0.2967,1.17756c0.20398,0.35234 0.47598,0.62741 0.81595,0.82522c0.33997,0.19781 0.72014,0.29671 1.14047,0.29671zM264.41616,184.2977c-0.12363,0 -0.22562,-0.03709 -0.30598,-0.11127c-0.08035,-0.08035 -0.12054,-0.18235 -0.12054,-0.30598v-1.90078l0.20399,-0.87158l0.65832,0.1669v2.60547c0,0.12363 -0.04327,0.22563 -0.12981,0.30598c-0.08035,0.07418 -0.18235,0.11127 -0.30598,0.11127zM266.86714,180.57026c0.01855,-0.45743 0.13599,-0.8654 0.35234,-1.22392c0.22253,-0.36471 0.50688,-0.64905 0.85304,-0.85303c0.35234,-0.21017 0.74176,-0.31525 1.16828,-0.31525c0.33997,0 0.60269,0.04945 0.78813,0.14835c0.18544,0.09272 0.25653,0.2318 0.21326,0.41724c-0.03091,0.11127 -0.08345,0.18545 -0.15762,0.22253c-0.06799,0.03091 -0.15145,0.04326 -0.25035,0.03708c-0.0989,-0.00618 -0.21016,-0.01236 -0.33379,-0.01854c-0.41415,-0.03709 -0.78195,0.00617 -1.10338,0.1298c-0.32144,0.11744 -0.57797,0.30289 -0.76959,0.55633c-0.18544,0.25344 -0.27816,0.55324 -0.27816,0.8994zM266.93204,184.2977c-0.13599,0 -0.24108,-0.03709 -0.31526,-0.11127c-0.07418,-0.07418 -0.11127,-0.17617 -0.11127,-0.30598v-5.2202c0,-0.12981 0.03709,-0.23181 0.11127,-0.30598c0.07418,-0.07418 0.17927,-0.11127 0.31526,-0.11127c0.12981,0 0.2318,0.03709 0.30598,0.11127c0.07418,0.07418 0.11127,0.17617 0.11127,0.30598v5.2202c0,0.12981 -0.03709,0.23181 -0.11127,0.30598c-0.07418,0.07418 -0.17617,0.11127 -0.30598,0.11127zM273.89602,184.3533c-0.58724,0 -1.11266,-0.1329 -1.57626,-0.3987c-0.4636,-0.27198 -0.8314,-0.63978 -1.10339,-1.10338c-0.2658,-0.46979 -0.3987,-0.9983 -0.3987,-1.58553c0,-0.58105 0.12981,-1.10339 0.38943,-1.56699c0.2658,-0.46979 0.62123,-0.83758 1.06629,-1.10338c0.45124,-0.27198 0.96121,-0.40798 1.5299,-0.40798c0.49451,0 0.93957,0.10508 1.33518,0.31525c0.40179,0.21017 0.72631,0.48834 0.97357,0.8345v-3.25451c0,-0.12981 0.04019,-0.2349 0.12054,-0.31525c0.08035,-0.08035 0.18235,-0.12054 0.30598,-0.12054c0.12363,0 0.22563,0.04018 0.30598,0.12054c0.08654,0.08035 0.12981,0.18544 0.12981,0.31525v5.22947c-0.01855,0.57487 -0.16381,1.09411 -0.43579,1.55772c-0.2658,0.45743 -0.6305,0.81904 -1.09411,1.08484c-0.45743,0.2658 -0.97358,0.3987 -1.54845,0.3987zM273.89602,183.57447c0.42652,0 0.80667,-0.09891 1.14047,-0.29671c0.33997,-0.20398 0.60578,-0.47906 0.7974,-0.82522c0.19781,-0.35234 0.29671,-0.74795 0.29671,-1.18683c0,-0.43888 -0.0989,-0.8314 -0.29671,-1.17756c-0.19162,-0.35234 -0.45743,-0.62741 -0.7974,-0.82522c-0.3338,-0.20398 -0.71395,-0.30598 -1.14047,-0.30598c-0.42034,0 -0.8005,0.102 -1.14047,0.30598c-0.33997,0.19781 -0.61197,0.47288 -0.81595,0.82522c-0.19781,0.34616 -0.2967,0.73868 -0.2967,1.17756c0,0.43888 0.0989,0.83449 0.2967,1.18683c0.20398,0.34616 0.47598,0.62124 0.81595,0.82522c0.33997,0.19781 0.72013,0.29671 1.14047,0.29671z" fill="#000000" stroke-width="0.5" stroke-linecap="square"/></g></g></svg>