<svg version="1.1" xmlns="http://www.w3.org/2000/svg" xmlns:xlink="http://www.w3.org/1999/xlink" width="113.6233" height="75.97217" viewBox="0,0,113.6233,75.97217"><g transform="translate(-147.98641,-170.9258)"><g data-paper-data="{&quot;isPaintingLayer&quot;:true}" fill-rule="nonzero" stroke-linejoin="miter" stroke-miterlimit="10" stroke-dasharray="" stroke-dashoffset="0" style="mix-blend-mode: normal"><path d="M188.50487,172.22951c0,0 51.01518,0.29208 64.10241,0.29208c4.67171,0 8.01376,1.30381 8.0024,7.67562c-0.01622,9.09438 -0.04398,41.21416 -0.05145,46.29029c-0.01603,10.93667 -4.32531,14.08935 -11.16994,14.08935c-24.2108,0 -80.41228,0 -92.00005,0c-4.06786,0 -8.10975,-3.11537 -8.10975,-11.07331c0,-13.49134 -0.29208,-42.52881 -0.29208,-50.19354c0,-6.05821 4.52519,-7.38421 8.71691,-7.38421c10.84904,0 11.87739,0 11.87739,0" data-paper-data="{&quot;index&quot;:null}" fill="#000000" stroke-opacity="0.50876" stroke="#ffffff" stroke-width="2" stroke-linecap="round"/><text transform="translate(155.44361,183.439) scale(0.26224,0.26224)" font-size="40" xml:space="preserve" fill="#a0a0a0" fill-rule="nonzero" stroke="none" stroke-width="1" stroke-linecap="butt" stroke-linejoin="miter" stroke-miterlimit="10" stroke-dasharray="" stroke-dashoffset="0" font-family="Sans Serif" font-weight="normal" text-anchor="start" style="mix-blend-mode: normal"><tspan x="0" dy="0">Credits</tspan></text><text transform="translate(152.30122,194.52543) scale(0.20044,0.2142)" font-size="40" xml:space="preserve" fill="#a0a0a0" fill-rule="nonzero" stroke="none" stroke-width="1" stroke-linecap="butt" stroke-linejoin="miter" stroke-miterlimit="10" stroke-dasharray="" stroke-dashoffset="0" font-family="Sans Serif" font-weight="normal" text-anchor="start" style="mix-blend-mode: normal"><tspan x="0" dy="0">Thanks to David_783576, </tspan><tspan x="0" dy="48px">and his project Cosmic Skip,</tspan><tspan x="0" dy="48px">on scratch, which inspired</tspan><tspan x="0" dy="48px">me and whom I used for</tspan><tspan x="0" dy="48px">the design.</tspan><tspan x="0" dy="48px"> </tspan></text></g></g></svg>