<svg version="1.1" xmlns="http://www.w3.org/2000/svg" xmlns:xlink="http://www.w3.org/1999/xlink" width="17.75989" height="24.77885" viewBox="0,0,17.75989,24.77885"><g transform="translate(-231.12005,-167.61057)"><g data-paper-data="{&quot;isPaintingLayer&quot;:true}" fill="#ffffff" fill-rule="nonzero" stroke="none" stroke-width="1" stroke-linecap="square" stroke-linejoin="miter" stroke-miterlimit="10" stroke-dasharray="" stroke-dashoffset="0" style="mix-blend-mode: normal"><path d="M248.87995,184.59291c0,1.20957 -0.21427,2.29818 -0.6428,3.26583c-0.42853,0.96765 -0.99876,1.7867 -1.71067,2.45715c-0.71192,0.67045 -1.53788,1.18538 -2.47788,1.54479c-0.94001,0.3525 -1.92148,0.52875 -2.94443,0.52875h-9.98411v-4.95577h9.98411c0.33177,0 0.66699,-0.05184 1.00567,-0.15552c0.34559,-0.10368 0.65317,-0.26956 0.92273,-0.49765c0.26956,-0.235 0.48728,-0.52875 0.65317,-0.88126c0.16588,-0.35941 0.24883,-0.79486 0.24883,-1.30633c0,-0.45618 -0.08294,-0.86052 -0.24883,-1.21302c-0.16588,-0.3525 -0.38361,-0.64625 -0.65317,-0.88126c-0.26956,-0.235 -0.57714,-0.41125 -0.92273,-0.52875c-0.33868,-0.12441 -0.6739,-0.18662 -1.00567,-0.18662h-9.98411l1.45148,-14.17267h15.28202v4.96614h-10.8239l-0.45618,4.2404h4.53069c1.02295,0 2.00443,0.17971 2.94443,0.53912c0.94001,0.35941 1.76597,0.8778 2.47788,1.55516c0.71192,0.67045 1.28214,1.48604 1.71067,2.44678c0.42853,0.96074 0.6428,2.03898 0.6428,3.23473z"/></g></g></svg>