<svg version="1.1" xmlns="http://www.w3.org/2000/svg" xmlns:xlink="http://www.w3.org/1999/xlink" width="86.43104" height="35.07721" viewBox="0,0,86.43104,35.07721"><g transform="translate(-196.7845,-162.54301)"><g data-paper-data="{&quot;isPaintingLayer&quot;:true}" fill-rule="nonzero" stroke-linejoin="miter" stroke-miterlimit="10" stroke-dasharray="" stroke-dashoffset="0" style="mix-blend-mode: normal"><path d="M227.67598,163.68933c0,0 32.18058,0 42.07965,0c5.39781,0 12.48472,0.71937 12.45984,9.60887c-0.01227,4.38181 -0.03326,11.83611 -0.0389,14.28186c-0.01213,5.26946 -3.27162,9.04016 -8.44886,9.04016c-18.31286,0 -60.82325,0 -69.58813,0c-3.07689,0 -6.35508,-3.04908 -6.35508,-6.88332c0,-6.50035 0,-15.70627 0,-19.39927c0,-2.91894 3.42282,-6.79461 6.59341,-6.79461c8.20612,0 8.98397,0 8.98397,0" data-paper-data="{&quot;index&quot;:null}" fill="#000000" stroke-opacity="0.50876" stroke="#ffffff" stroke-width="2" stroke-linecap="round"/><path d="M218.42248,182.92915c-0.15696,0 -0.28944,-0.05299 -0.39748,-0.15899c-0.106,-0.10804 -0.159,-0.24053 -0.159,-0.39749v-7.24032c0,-0.16307 0.05301,-0.29658 0.159,-0.40054c0.10804,-0.10396 0.24052,-0.15593 0.39748,-0.15593h1.93544c0.61355,0 1.17104,0.10192 1.67248,0.30576c0.50348,0.2018 0.94071,0.49023 1.3117,0.86529c0.37098,0.37506 0.65636,0.81536 0.85611,1.32087c0.19977,0.50552 0.29964,1.06505 0.29964,1.67861c0,0.61355 -0.09987,1.17512 -0.29964,1.68471c-0.19977,0.50959 -0.48513,0.95193 -0.85611,1.32699c-0.37098,0.37506 -0.80822,0.66451 -1.3117,0.86835c-0.50144,0.2018 -1.05893,0.30271 -1.67248,0.30271zM218.97896,181.94462h1.37897c0.59928,0 1.12824,-0.13657 1.58687,-0.40972c0.46068,-0.27518 0.82249,-0.6533 1.08543,-1.13435c0.26498,-0.48105 0.39748,-1.03245 0.39748,-1.65415c0,-0.62783 -0.13249,-1.18022 -0.39748,-1.6572c-0.26295,-0.47698 -0.62476,-0.85102 -1.08543,-1.12212c-0.45864,-0.27111 -0.98759,-0.40666 -1.58687,-0.40666h-1.37897zM226.78472,182.92915c-0.15695,0 -0.28741,-0.05096 -0.39137,-0.15288c-0.10192,-0.10396 -0.15288,-0.23442 -0.15288,-0.39137v-4.76063c0,-0.16307 0.05096,-0.29454 0.15288,-0.39443c0.10395,-0.09988 0.23442,-0.14982 0.39137,-0.14982c0.16511,0 0.2976,0.04994 0.39749,0.14982c0.09988,0.09988 0.14983,0.23136 0.14983,0.39443v4.76063c0,0.15696 -0.04994,0.28741 -0.14983,0.39137c-0.09988,0.10192 -0.23237,0.15288 -0.39749,0.15288zM226.78779,176.12609c-0.19365,0 -0.35977,-0.06931 -0.49838,-0.20792c-0.13861,-0.13861 -0.20792,-0.30473 -0.20792,-0.49838c0,-0.19161 0.0693,-0.35672 0.20792,-0.49533c0.13861,-0.13861 0.30474,-0.20791 0.49838,-0.20791c0.19161,0 0.35672,0.0693 0.49533,0.20791c0.14065,0.13861 0.21097,0.30372 0.21097,0.49533c0,0.19365 -0.07032,0.35977 -0.21097,0.49838c-0.13861,0.13861 -0.30372,0.20792 -0.49533,0.20792zM230.01473,182.92915c-0.15695,0 -0.28741,-0.05299 -0.39137,-0.15899c-0.10192,-0.10804 -0.15288,-0.23646 -0.15288,-0.38526v-5.2743c0,-0.53405 0.10498,-0.99574 0.31493,-1.38508c0.20995,-0.38933 0.54119,-0.68999 0.99371,-0.90197c0.45252,-0.21402 1.03957,-0.32104 1.76116,-0.32104c0.34244,0 0.64005,0.03974 0.8928,0.11924c0.25275,0.07746 0.45049,0.18346 0.59317,0.31799c0.14268,0.13453 0.21403,0.29454 0.21403,0.48003c0,0.31391 -0.19263,0.47087 -0.57788,0.47087c-0.1488,0 -0.28232,-0.03159 -0.40054,-0.09479c-0.11822,-0.06523 -0.23442,-0.14065 -0.34857,-0.22625c-0.11415,-0.08561 -0.23543,-0.16002 -0.36385,-0.22321c-0.12842,-0.06523 -0.27824,-0.09784 -0.44946,-0.09784c-0.26295,0 -0.51264,0.05198 -0.7491,0.15593c-0.23442,0.10396 -0.42501,0.29148 -0.57177,0.56259c-0.14472,0.27111 -0.21709,0.65229 -0.21709,1.14354v5.27429c0,0.14881 -0.05198,0.27722 -0.15593,0.38526c-0.10395,0.106 -0.23442,0.15899 -0.39137,0.15899zM229.00879,178.21135c-0.1488,0 -0.27008,-0.0428 -0.36385,-0.12842c-0.09172,-0.08561 -0.1376,-0.19264 -0.1376,-0.32105c0,-0.14065 0.04587,-0.25377 0.1376,-0.33938c0.09377,-0.08561 0.21504,-0.12842 0.36385,-0.12842h2.65397c0.1488,0 0.26907,0.04281 0.36079,0.12842c0.09377,0.08561 0.14065,0.19873 0.14065,0.33938c0,0.12842 -0.04688,0.23544 -0.14065,0.32105c-0.09172,0.08561 -0.21199,0.12842 -0.36079,0.12842zM233.57679,182.92915c-0.15695,0 -0.28742,-0.05096 -0.39137,-0.15288c-0.10192,-0.10396 -0.15287,-0.23442 -0.15287,-0.39137v-4.76063c0,-0.16307 0.05095,-0.29454 0.15287,-0.39443c0.10395,-0.09988 0.23442,-0.14982 0.39137,-0.14982c0.16307,0 0.29454,0.04994 0.39443,0.14982c0.09988,0.09988 0.14982,0.23136 0.14982,0.39443v4.76063c0,0.15696 -0.04994,0.28741 -0.14982,0.39137c-0.09988,0.10192 -0.23135,0.15288 -0.39443,0.15288zM238.76316,182.97198c-0.57074,0 -1.07932,-0.12943 -1.52572,-0.38831c-0.44437,-0.26091 -0.79293,-0.61459 -1.04569,-1.06099c-0.25275,-0.4464 -0.37913,-0.9509 -0.37913,-1.51349c0,-0.57685 0.12434,-1.08951 0.37302,-1.53796c0.25072,-0.45048 0.59317,-0.80209 1.02734,-1.05485c0.43417,-0.25276 0.93358,-0.37914 1.49821,-0.37914c0.41991,0 0.80414,0.08051 1.1527,0.24155c0.3506,0.15899 0.66451,0.39851 0.94173,0.71854c0.09988,0.11415 0.13555,0.23237 0.10701,0.35467c-0.02853,0.12026 -0.10701,0.22728 -0.23543,0.32104c-0.09988,0.07134 -0.20995,0.09479 -0.33022,0.07032c-0.12027,-0.0265 -0.23034,-0.08969 -0.33022,-0.18957c-0.3506,-0.37098 -0.78579,-0.55647 -1.30558,-0.55647c-0.36487,0 -0.68592,0.08459 -0.96314,0.25378c-0.27722,0.16715 -0.4943,0.40054 -0.65126,0.70018c-0.15695,0.29964 -0.23543,0.65227 -0.23543,1.05791c0,0.38526 0.0795,0.72771 0.23849,1.02735c0.16103,0.29964 0.38423,0.5371 0.6696,0.71241c0.28537,0.17326 0.61661,0.2599 0.99371,0.2599c0.25072,0 0.46985,-0.02955 0.65738,-0.08867c0.18957,-0.06115 0.36283,-0.15594 0.51978,-0.28436c0.11415,-0.09376 0.23136,-0.14574 0.35162,-0.15593c0.1223,-0.0102 0.22932,0.02345 0.32104,0.1009c0.1223,0.09988 0.19059,0.21301 0.20486,0.33939c0.01427,0.12435 -0.02854,0.23645 -0.12842,0.33633c-0.51367,0.47698 -1.15576,0.71547 -1.92627,0.71547zM244.99845,182.98115c-0.49125,0 -0.93155,-0.10497 -1.32088,-0.31493c-0.38729,-0.20995 -0.69407,-0.51775 -0.92032,-0.92339c-0.22422,-0.40768 -0.33633,-0.90708 -0.33633,-1.49821v-2.63255c0,-0.15491 0.05198,-0.28436 0.15593,-0.38831c0.10396,-0.10396 0.23442,-0.15593 0.39137,-0.15593c0.15695,0 0.28639,0.05198 0.38831,0.15593c0.10395,0.10396 0.15593,0.2334 0.15593,0.38831v2.63255c0,0.39953 0.0744,0.72974 0.2232,0.99066c0.15084,0.25887 0.35467,0.4515 0.61151,0.57788c0.25684,0.12435 0.54527,0.18651 0.86529,0.18651c0.30779,0 0.58094,-0.06014 0.81943,-0.1804c0.2385,-0.1223 0.42908,-0.28639 0.57176,-0.49227c0.14268,-0.20792 0.21404,-0.44029 0.21404,-0.69712h0.67266c0,0.44233 -0.10905,0.84186 -0.32716,1.19857c-0.21607,0.35671 -0.51164,0.63801 -0.8867,0.8439c-0.37302,0.20587 -0.79904,0.30881 -1.27806,0.30881zM247.36196,182.92915c-0.15695,0 -0.28741,-0.05096 -0.39137,-0.15288c-0.10192,-0.10396 -0.15288,-0.23442 -0.15288,-0.39137v-4.77286c0,-0.16307 0.05096,-0.29454 0.15288,-0.39443c0.10395,-0.09988 0.23442,-0.14982 0.39137,-0.14982c0.16511,0 0.2976,0.04993 0.39748,0.14982c0.09988,0.09988 0.14983,0.23136 0.14983,0.39443v4.77286c0,0.15696 -0.04994,0.28741 -0.14983,0.39137c-0.09988,0.10192 -0.23237,0.15288 -0.39748,0.15288zM251.2256,182.92915c-0.31391,0 -0.59215,-0.08561 -0.83472,-0.25683c-0.24257,-0.17122 -0.43214,-0.40462 -0.56871,-0.70019c-0.13453,-0.29557 -0.2018,-0.63596 -0.2018,-1.02122v-5.83996c0,-0.15696 0.04994,-0.28537 0.14982,-0.38526c0.09988,-0.09988 0.2283,-0.14982 0.38526,-0.14982c0.15695,0 0.28537,0.04993 0.38525,0.14982c0.09988,0.09988 0.14982,0.2283 0.14982,0.38526v5.83996c0,0.26295 0.04994,0.48004 0.14982,0.65126c0.09988,0.17122 0.2283,0.25683 0.38526,0.25683h0.266c0.14268,0 0.25786,0.04993 0.34551,0.14982c0.08969,0.09988 0.13453,0.2283 0.13453,0.38526c0,0.15696 -0.06829,0.28537 -0.20486,0.38526c-0.13453,0.09988 -0.30779,0.14983 -0.51979,0.14983zM255.17108,182.92915c-0.35671,0 -0.67777,-0.09071 -0.96314,-0.27212c-0.28537,-0.18141 -0.51061,-0.42908 -0.67572,-0.74299c-0.16307,-0.31391 -0.24461,-0.66757 -0.24461,-1.06098v-5.10002c0,-0.15696 0.04994,-0.28538 0.14982,-0.38526c0.09988,-0.09988 0.2283,-0.14981 0.38525,-0.14981c0.15695,0 0.28537,0.04993 0.38525,0.14981c0.09988,0.09988 0.14982,0.2283 0.14982,0.38526v5.10002c0,0.28537 0.07848,0.52488 0.23543,0.71852c0.15695,0.19161 0.34958,0.28742 0.57788,0.28742h0.36385c0.12842,0 0.23645,0.04993 0.3241,0.14982c0.08969,0.09988 0.13453,0.2283 0.13453,0.38526c0,0.15696 -0.05911,0.28537 -0.17733,0.38526c-0.11618,0.09988 -0.26703,0.14983 -0.45252,0.14983zM252.79536,178.21135c-0.1488,0 -0.27008,-0.0428 -0.36385,-0.12842c-0.09172,-0.08561 -0.1376,-0.19264 -0.1376,-0.32105c0,-0.14065 0.04587,-0.25377 0.1376,-0.33938c0.09377,-0.08561 0.21505,-0.12842 0.36385,-0.12842h2.47051c0.15084,0 0.27212,0.04281 0.36385,0.12842c0.09377,0.08561 0.14065,0.19873 0.14065,0.33938c0,0.12842 -0.04688,0.23544 -0.14065,0.32105c-0.09172,0.08561 -0.21301,0.12842 -0.36385,0.12842zM258.38061,185.49753c-0.07134,0 -0.15695,-0.02141 -0.25684,-0.06421c-0.31391,-0.14269 -0.39952,-0.36793 -0.25684,-0.67572l3.26242,-7.36874c0.14268,-0.29964 0.3669,-0.38525 0.67266,-0.25683c0.32002,0.13657 0.40869,0.3608 0.26601,0.67267l-3.27159,7.35956c-0.08562,0.22218 -0.22422,0.33328 -0.41584,0.33328zM259.64032,182.69373c-0.13453,0.05707 -0.26091,0.06318 -0.37914,0.01834c-0.11822,-0.04689 -0.212,-0.13861 -0.2813,-0.27518l-2.45216,-4.65361c-0.07134,-0.13453 -0.08052,-0.26397 -0.02753,-0.38831c0.05503,-0.12435 0.14983,-0.21506 0.28436,-0.27213c0.13657,-0.05707 0.26499,-0.06217 0.38526,-0.01529c0.1223,0.04484 0.21505,0.13556 0.27824,0.27213l2.34209,4.65055c0.07134,0.13657 0.09784,0.26703 0.0795,0.39137c-0.0163,0.12435 -0.09274,0.21505 -0.22932,0.27212z" fill="#828282" stroke="#828282" stroke-width="0.5" stroke-linecap="square"/></g></g></svg>