<svg version="1.1" xmlns="http://www.w3.org/2000/svg" xmlns:xlink="http://www.w3.org/1999/xlink" width="86.43096" height="34.91401" viewBox="0,0,86.43096,34.91401"><g transform="translate(-196.78456,-162.54299)"><g data-paper-data="{&quot;isPaintingLayer&quot;:true}" fill-rule="nonzero" stroke="#000000" stroke-linejoin="miter" stroke-miterlimit="10" stroke-dasharray="" stroke-dashoffset="0" style="mix-blend-mode: normal"><path d="M266.63812,163.54299c0,0 0.77785,0 8.98398,0c3.17058,0 6.59341,3.85656 6.59341,6.76109c0,3.67479 0,12.83527 0,19.30356c0,3.81533 -3.27819,6.84936 -6.35507,6.84936c-8.76488,0 -51.27528,0 -69.58813,0c-5.17724,0 -8.43673,-3.75208 -8.44886,-8.99555c-0.00564,-2.43369 -0.02663,-9.85121 -0.0389,-14.2114c-0.02488,-8.84564 7.06203,-9.56146 12.45985,-9.56146c9.89908,0 42.07965,0 42.07965,0" data-paper-data="{&quot;index&quot;:null}" fill="#e5dc39" stroke-width="2" stroke-linecap="round"/><path d="M218.23325,184.28843c-0.11732,0 -0.2192,-0.04014 -0.30566,-0.12041c-0.08645,-0.08645 -0.12967,-0.19142 -0.12967,-0.31492v-7.77102c0,-0.1235 0.04322,-0.22538 0.12967,-0.30566c0.08645,-0.08645 0.18833,-0.12967 0.30566,-0.12967c0.17907,0 0.30874,0.0741 0.38902,0.2223l3.72342,7.4098h-0.37049l3.65859,-7.4098c0.08645,-0.1482 0.21612,-0.2223 0.38902,-0.2223c0.11732,0 0.21612,0.04322 0.29639,0.12967c0.08027,0.08027 0.12041,0.18216 0.12041,0.30566v7.77102c0,0.1235 -0.04014,0.22847 -0.12041,0.31492c-0.08027,0.08027 -0.17907,0.12041 -0.29639,0.12041c-0.12967,0 -0.23773,-0.04014 -0.32418,-0.12041c-0.08027,-0.08645 -0.12041,-0.19142 -0.12041,-0.31492v-6.65029l0.18525,0.00926l-3.26031,6.66882c-0.08027,0.14202 -0.20686,0.21303 -0.37975,0.21303c-0.18525,0 -0.318,-0.08953 -0.39828,-0.26861l-3.27883,-6.56693l0.2223,-0.05558v6.65029c0,0.1235 -0.04322,0.22847 -0.12967,0.31492c-0.08645,0.08027 -0.18833,0.12041 -0.30566,0.12041zM231.28667,184.34401c-0.59896,0 -1.13,-0.12967 -1.59311,-0.38902c-0.45694,-0.26552 -0.81817,-0.62983 -1.08369,-1.09294c-0.25934,-0.46311 -0.38902,-0.99415 -0.38902,-1.59311c0,-0.60513 0.1235,-1.13617 0.37049,-1.59311c0.24699,-0.46311 0.58661,-0.82743 1.01885,-1.09294c0.43841,-0.26552 0.94166,-0.39828 1.50975,-0.39828c0.55573,0 1.04046,0.12658 1.45417,0.37975c0.41989,0.25317 0.74407,0.60513 0.97253,1.05589c0.22847,0.45076 0.3427,0.96327 0.3427,1.53753c0,0.11732 -0.03705,0.21303 -0.11115,0.28713c-0.0741,0.06792 -0.16981,0.10189 -0.28713,0.10189h-4.69596v-0.71319h4.78858l-0.47238,0.3427c0.00617,-0.42606 -0.0741,-0.80891 -0.24082,-1.14852c-0.16055,-0.33961 -0.38902,-0.60513 -0.68541,-0.79655c-0.29639,-0.19142 -0.65144,-0.28713 -1.06516,-0.28713c-0.41989,0 -0.79038,0.10189 -1.11147,0.30566c-0.31492,0.1976 -0.55882,0.47238 -0.73172,0.82434c-0.17289,0.34579 -0.25934,0.74407 -0.25934,1.19483c0,0.45076 0.09571,0.84904 0.28713,1.19483c0.1976,0.34579 0.4662,0.62057 0.80581,0.82434c0.33961,0.1976 0.73172,0.29639 1.17631,0.29639c0.26552,0 0.53103,-0.04631 0.79655,-0.13894c0.27169,-0.09262 0.48781,-0.20994 0.64836,-0.35197c0.08027,-0.06792 0.17289,-0.10189 0.27787,-0.10189c0.10497,-0.00617 0.19142,0.02161 0.25934,0.08336c0.0988,0.08645 0.1482,0.18216 0.1482,0.28713c0.00617,0.0988 -0.03396,0.18525 -0.12041,0.25934c-0.24699,0.20994 -0.55882,0.38284 -0.93549,0.51869c-0.37049,0.13584 -0.72863,0.20377 -1.07442,0.20377zM237.86493,184.34401c-0.58661,0 -1.11147,-0.13276 -1.57458,-0.39828c-0.46311,-0.27169 -0.83051,-0.63909 -1.10221,-1.10221c-0.26552,-0.46928 -0.39828,-0.99723 -0.39828,-1.58384c0,-0.58044 0.12967,-1.10221 0.38902,-1.56532c0.26552,-0.46928 0.62057,-0.83669 1.06516,-1.10221c0.45076,-0.27169 0.96019,-0.40754 1.52827,-0.40754c0.49399,0 0.93858,0.10497 1.33377,0.31492c0.40136,0.20994 0.72555,0.48781 0.97253,0.8336v-3.25105c0,-0.12967 0.04014,-0.23464 0.12041,-0.31492c0.08027,-0.08027 0.18216,-0.12041 0.30566,-0.12041c0.1235,0 0.22538,0.04014 0.30566,0.12041c0.08645,0.08027 0.12967,0.18525 0.12967,0.31492v5.22391c-0.01853,0.57426 -0.16363,1.09294 -0.43533,1.55606c-0.26552,0.45694 -0.62983,0.81817 -1.09294,1.08369c-0.45694,0.26552 -0.97253,0.39828 -1.5468,0.39828zM237.86493,183.56596c0.42606,0 0.80581,-0.0988 1.13925,-0.29639c0.33961,-0.20377 0.60513,-0.47855 0.79655,-0.82434c0.1976,-0.35197 0.29639,-0.74715 0.29639,-1.18557c0,-0.43841 -0.0988,-0.83051 -0.29639,-1.17631c-0.19142,-0.35197 -0.45694,-0.62675 -0.79655,-0.82434c-0.33344,-0.20377 -0.71319,-0.30566 -1.13925,-0.30566c-0.41989,0 -0.79964,0.10189 -1.13925,0.30566c-0.33961,0.1976 -0.61131,0.47238 -0.81508,0.82434c-0.1976,0.34579 -0.29639,0.73789 -0.29639,1.17631c0,0.43841 0.0988,0.8336 0.29639,1.18557c0.20377,0.34579 0.47546,0.62057 0.81508,0.82434c0.33961,0.1976 0.71937,0.29639 1.13925,0.29639zM243.53489,184.28843c-0.12967,0 -0.23464,-0.03705 -0.31492,-0.11115c-0.0741,-0.08027 -0.11115,-0.18833 -0.11115,-0.32418v-5.18686c0,-0.12967 0.03705,-0.23156 0.11115,-0.30566c0.08027,-0.08027 0.18525,-0.12041 0.31492,-0.12041c0.1235,0 0.22538,0.04014 0.30566,0.12041c0.08027,0.0741 0.12041,0.17598 0.12041,0.30566v5.18686c0,0.13584 -0.04014,0.24391 -0.12041,0.32418c-0.08027,0.0741 -0.18216,0.11115 -0.30566,0.11115zM243.52562,177.09166c-0.16672,0 -0.30874,-0.05866 -0.42606,-0.17598c-0.11732,-0.1235 -0.17598,-0.26861 -0.17598,-0.43533c0,-0.18525 0.06175,-0.33036 0.18525,-0.43533c0.1235,-0.10497 0.26552,-0.15746 0.42606,-0.15746c0.15437,0 0.29022,0.05248 0.40754,0.15746c0.1235,0.10497 0.18525,0.25008 0.18525,0.43533c0,0.16672 -0.05866,0.31183 -0.17598,0.43533c-0.11732,0.11732 -0.25934,0.17598 -0.42606,0.17598zM248.75941,184.35327c-0.52486,0 -0.99415,-0.10806 -1.40786,-0.32418c-0.41372,-0.21612 -0.74098,-0.53412 -0.9818,-0.95401c-0.23464,-0.41989 -0.35197,-0.9324 -0.35197,-1.53753v-2.88056c0,-0.11732 0.04014,-0.21612 0.12041,-0.29639c0.08027,-0.08027 0.17907,-0.12041 0.29639,-0.12041c0.1235,0 0.22538,0.04014 0.30566,0.12041c0.08027,0.08027 0.12041,0.17907 0.12041,0.29639v2.88056c0,0.45694 0.08645,0.8336 0.25934,1.13c0.17907,0.29022 0.4168,0.50942 0.71319,0.65762c0.29639,0.1482 0.63292,0.2223 1.00958,0.2223c0.36432,0 0.69158,-0.06792 0.9818,-0.20377c0.29022,-0.14202 0.51869,-0.33344 0.68541,-0.57426c0.17289,-0.24699 0.25934,-0.52486 0.25934,-0.8336h0.61131c-0.0247,0.46311 -0.15437,0.87683 -0.38902,1.24114c-0.22847,0.36432 -0.5403,0.65144 -0.93549,0.86139c-0.38902,0.20994 -0.82125,0.31492 -1.29672,0.31492zM251.18612,184.28843c-0.1235,0 -0.22538,-0.03705 -0.30566,-0.11115c-0.0741,-0.08027 -0.11115,-0.18833 -0.11115,-0.32418v-5.19612c0,-0.1235 0.03705,-0.2223 0.11115,-0.29639c0.08027,-0.08027 0.18216,-0.12041 0.30566,-0.12041c0.12967,0 0.23464,0.04014 0.31492,0.12041c0.08027,0.0741 0.12041,0.17289 0.12041,0.29639v5.19612c0,0.13584 -0.04014,0.24391 -0.12041,0.32418c-0.08027,0.0741 -0.18525,0.11115 -0.31492,0.11115zM261.78526,184.28843c-0.1235,0 -0.22847,-0.03705 -0.31492,-0.11115c-0.08027,-0.08027 -0.12041,-0.18216 -0.12041,-0.30566v-3.18621c0,-0.52486 -0.13584,-0.93858 -0.40754,-1.24114c-0.27169,-0.30874 -0.62057,-0.46311 -1.04663,-0.46311c-0.45694,0 -0.8336,0.15437 -1.13,0.46311c-0.29022,0.30256 -0.43223,0.70702 -0.42606,1.21336h-0.7595c0.00617,-0.49399 0.11115,-0.92622 0.31492,-1.29672c0.20994,-0.37667 0.49399,-0.66688 0.85213,-0.87065c0.36432,-0.20994 0.77494,-0.31492 1.23188,-0.31492c0.43841,0 0.82434,0.10497 1.15778,0.31492c0.33344,0.20377 0.59278,0.49399 0.77803,0.87065c0.19142,0.37049 0.28713,0.81199 0.28713,1.3245v3.18621c0,0.1235 -0.04014,0.22538 -0.12041,0.30566c-0.0741,0.0741 -0.17289,0.11115 -0.29639,0.11115zM254.04202,184.28843c-0.12967,0 -0.23464,-0.03705 -0.31492,-0.11115c-0.08027,-0.08027 -0.12041,-0.18216 -0.12041,-0.30566v-5.20538c0,-0.1235 0.04014,-0.22538 0.12041,-0.30566c0.08027,-0.08027 0.18525,-0.12041 0.31492,-0.12041c0.1235,0 0.2223,0.04014 0.29639,0.12041c0.08027,0.08027 0.12041,0.18216 0.12041,0.30566v5.20538c0,0.1235 -0.04014,0.22538 -0.12041,0.30566c-0.0741,0.0741 -0.17289,0.11115 -0.29639,0.11115zM257.92291,184.28843c-0.1235,0 -0.22538,-0.03705 -0.30566,-0.11115c-0.08027,-0.08027 -0.12041,-0.18216 -0.12041,-0.30566v-3.18621c0,-0.52486 -0.13894,-0.93858 -0.4168,-1.24114c-0.27169,-0.30874 -0.62057,-0.46311 -1.04663,-0.46311c-0.45694,0 -0.8336,0.15128 -1.13,0.45385c-0.29639,0.29639 -0.44459,0.68232 -0.44459,1.15778h-0.60205c0.01235,-0.46928 0.11424,-0.88609 0.30566,-1.25041c0.1976,-0.36432 0.4662,-0.64836 0.80581,-0.85213c0.33961,-0.20994 0.72245,-0.31492 1.14852,-0.31492c0.43841,0 0.82434,0.10497 1.15778,0.31492c0.33961,0.20377 0.60205,0.49399 0.78729,0.87065c0.18525,0.37049 0.27787,0.81199 0.27787,1.3245v3.18621c0,0.1235 -0.04014,0.22538 -0.12041,0.30566c-0.0741,0.0741 -0.17289,0.11115 -0.29639,0.11115z" fill="#000000" stroke-width="0.5" stroke-linecap="square"/></g></g></svg>