<svg version="1.1" xmlns="http://www.w3.org/2000/svg" xmlns:xlink="http://www.w3.org/1999/xlink" width="505.99779" height="383.63475" viewBox="0,0,505.99779,383.63475"><g transform="translate(28.89712,8.73849)"><g data-paper-data="{&quot;isPaintingLayer&quot;:true}" fill-rule="nonzero" stroke="none" stroke-width="0.5" stroke-linecap="butt" stroke-linejoin="miter" stroke-miterlimit="10" stroke-dasharray="" stroke-dashoffset="0" style="mix-blend-mode: normal"><path d="M391.39336,69.65644c0,-1.63071 1.32196,-2.95267 2.95267,-2.95267c1.63071,0 2.95267,1.32196 2.95267,2.95267c0,1.63071 -1.32196,2.95267 -2.95267,2.95267c-1.63071,0 -2.95267,-1.32196 -2.95267,-2.95267z" fill="#ffffff"/><path d="M187.45493,-5.78582c0,-1.63071 1.32196,-2.95267 2.95267,-2.95267c1.63071,0 2.95267,1.32196 2.95267,2.95267c0,1.63071 -1.32196,2.95267 -2.95267,2.95267c-1.63071,0 -2.95267,-1.32196 -2.95267,-2.95267z" fill="#ffffff"/><path d="M86.37243,178.64544c0,-1.63071 1.32196,-2.95267 2.95267,-2.95267c1.63071,0 2.95267,1.32196 2.95267,2.95267c0,1.63071 -1.32196,2.95267 -2.95267,2.95267c-1.63071,0 -2.95267,-1.32196 -2.95267,-2.95267z" fill="#ffffff"/><path d="M391.39336,258.44743c0,-1.63071 1.32196,-2.95267 2.95267,-2.95267c1.63071,0 2.95267,1.32196 2.95267,2.95267c0,1.63071 -1.32196,2.95267 -2.95267,2.95267c-1.63071,0 -2.95267,-1.32196 -2.95267,-2.95267z" fill="#ffffff"/><path d="M210.50884,123.67074c0,-1.63071 1.32196,-2.95267 2.95267,-2.95267c1.63071,0 2.95267,1.32196 2.95267,2.95267c0,1.63071 -1.32196,2.95267 -2.95267,2.95267c-1.63071,0 -2.95267,-1.32196 -2.95267,-2.95267z" fill="#ffffff"/><path d="M160.85428,327.60915c0,-1.63071 1.32196,-2.95267 2.95267,-2.95267c1.63071,0 2.95267,1.32196 2.95267,2.95267c0,1.63071 -1.32196,2.95267 -2.95267,2.95267c-1.63071,0 -2.95267,-1.32196 -2.95267,-2.95267z" fill="#ffffff"/><path d="M228.24262,231.84676c0,-1.63071 1.32196,-2.95267 2.95267,-2.95267c1.63071,0 2.95267,1.32196 2.95267,2.95267c0,1.63071 -1.32196,2.95267 -2.95267,2.95267c-1.63071,0 -2.95267,-1.32196 -2.95267,-2.95267z" fill="#ffffff"/><path d="M75.73215,285.04808c0,-1.63071 1.32196,-2.95267 2.95267,-2.95267c1.63071,0 2.95267,1.32196 2.95267,2.95267c0,1.63071 -1.32196,2.95267 -2.95267,2.95267c-1.63071,0 -2.95267,-1.32196 -2.95267,-2.95267z" fill="#ffffff"/><path d="M1.2503,231.84676c0,-1.63071 1.32196,-2.95267 2.95267,-2.95267c1.63071,0 2.95267,1.32196 2.95267,2.95267c0,1.63071 -1.32196,2.95267 -2.95267,2.95267c-1.63071,0 -2.95267,-1.32196 -2.95267,-2.95267z" fill="#ffffff"/><path d="M128.93347,61.60253c0,-1.63071 1.32196,-2.95267 2.95267,-2.95267c1.63071,0 2.95267,1.32196 2.95267,2.95267c0,1.63071 -1.32196,2.95267 -2.95267,2.95267c-1.63071,0 -2.95267,-1.32196 -2.95267,-2.95267z" fill="#ffffff"/><path d="M382.52647,163.2318c0,-1.63071 1.32196,-2.95267 2.95267,-2.95267c1.63071,0 2.95267,1.32196 2.95267,2.95267c0,1.63071 -1.32196,2.95267 -2.95267,2.95267c-1.63071,0 -2.95267,-1.32196 -2.95267,-2.95267z" fill="#ffffff"/><path d="M277.89718,52.73563c0,-1.63071 1.32196,-2.95267 2.95267,-2.95267c1.63071,0 2.95267,1.32196 2.95267,2.95267c0,1.63071 -1.32196,2.95267 -2.95267,2.95267c-1.63071,0 -2.95267,-1.32196 -2.95267,-2.95267z" fill="#ffffff"/><path d="M313.36474,313.42213c0,-1.63071 1.32196,-2.95267 2.95267,-2.95267c1.63071,0 2.95267,1.32196 2.95267,2.95267c0,1.63071 -1.32196,2.95267 -2.95267,2.95267c-1.63071,0 -2.95267,-1.32196 -2.95267,-2.95267z" fill="#ffffff"/><path d="M449.91481,144.21749c0,-1.63071 1.32196,-2.95267 2.95267,-2.95267c1.63071,0 2.95267,1.32196 2.95267,2.95267c0,1.63071 -1.32196,2.95267 -2.95267,2.95267c-1.63071,0 -2.95267,-1.32196 -2.95267,-2.95267z" fill="#ffffff"/><path d="M471.19534,8.40119c0,-1.63071 1.32196,-2.95267 2.95267,-2.95267c1.63071,0 2.95267,1.32196 2.95267,2.95267c0,1.63071 -1.32196,2.95267 -2.95267,2.95267c-1.63071,0 -2.95267,-1.32196 -2.95267,-2.95267z" fill="#ffffff"/><path d="M311.59137,244.26041c0,-1.63071 1.32196,-2.95267 2.95267,-2.95267c1.63071,0 2.95267,1.32196 2.95267,2.95267c0,1.63071 -1.32196,2.95267 -2.95267,2.95267c-1.63071,0 -2.95267,-1.32196 -2.95267,-2.95267z" fill="#ffffff"/><path d="M444.59468,341.79618c0,-1.63071 1.32196,-2.95267 2.95267,-2.95267c1.63071,0 2.95267,1.32196 2.95267,2.95267c0,1.63071 -1.32196,2.95267 -2.95267,2.95267c-1.63071,0 -2.95267,-1.32196 -2.95267,-2.95267z" fill="#ffffff"/><path d="M82.82564,343.56955c0,-1.63071 1.32196,-2.95267 2.95267,-2.95267c1.63071,0 2.95267,1.32196 2.95267,2.95267c0,1.63071 -1.32196,2.95267 -2.95267,2.95267c-1.63071,0 -2.95267,-1.32196 -2.95267,-2.95267z" fill="#ffffff"/><path d="M20.75744,102.3902c0,-1.63071 1.32196,-2.95267 2.95267,-2.95267c1.63071,0 2.95267,1.32196 2.95267,2.95267c0,1.63071 -1.32196,2.95267 -2.95267,2.95267c-1.63071,0 -2.95267,-1.32196 -2.95267,-2.95267z" fill="#ffffff"/><path d="M159.0809,205.2461c0,-1.63071 1.32196,-2.95267 2.95267,-2.95267c1.63071,0 2.95267,1.32196 2.95267,2.95267c0,1.63071 -1.32196,2.95267 -2.95267,2.95267c-1.63071,0 -2.95267,-1.32196 -2.95267,-2.95267z" fill="#ffffff"/><path d="M467.64859,230.07339c0,-1.63071 1.32196,-2.95267 2.95267,-2.95267c1.63071,0 2.95267,1.32196 2.95267,2.95267c0,1.63071 -1.32196,2.95267 -2.95267,2.95267c-1.63071,0 -2.95267,-1.32196 -2.95267,-2.95267z" fill="#ffffff"/><path d="M240.65626,354.20981c0,-1.63071 1.32196,-2.95267 2.95267,-2.95267c1.63071,0 2.95267,1.32196 2.95267,2.95267c0,1.63071 -1.32196,2.95267 -2.95267,2.95267c-1.63071,0 -2.95267,-1.32196 -2.95267,-2.95267z" fill="#ffffff"/><path d="M452.86748,20.22076c-1.63071,0 -2.95267,-1.32196 -2.95267,-2.95267c0,-1.63071 1.32196,-2.95267 2.95267,-2.95267c1.63071,0 2.95267,1.32196 2.95267,2.95267c0,1.63071 -1.32196,2.95267 -2.95267,2.95267z" data-paper-data="{&quot;index&quot;:null}" fill="#fffd00"/><path d="M62.72442,87.60911c-1.63071,0 -2.95267,-1.32196 -2.95267,-2.95267c0,-1.63071 1.32196,-2.95267 2.95267,-2.95267c1.63071,0 2.95267,1.32196 2.95267,2.95267c0,1.63071 -1.32196,2.95267 -2.95267,2.95267z" data-paper-data="{&quot;index&quot;:null}" fill="#fffd00"/><path d="M257.79596,14.90063c-1.63071,0 -2.95267,-1.32196 -2.95267,-2.95267c0,-1.63071 1.32196,-2.95267 2.95267,-2.95267c1.63071,0 2.95267,1.32196 2.95267,2.95267c0,1.63071 -1.32196,2.95267 -2.95267,2.95267z" data-paper-data="{&quot;index&quot;:null}" fill="#fffd00"/><path d="M358.87847,199.33189c-1.63071,0 -2.95267,-1.32196 -2.95267,-2.95267c0,-1.63071 1.32196,-2.95267 2.95267,-2.95267c1.63071,0 2.95267,1.32196 2.95267,2.95267c0,1.63071 -1.32196,2.95267 -2.95267,2.95267z" data-paper-data="{&quot;index&quot;:null}" fill="#fffd00"/><path d="M53.85753,279.13388c-1.63071,0 -2.95267,-1.32196 -2.95267,-2.95267c0,-1.63071 1.32196,-2.95267 2.95267,-2.95267c1.63071,0 2.95267,1.32196 2.95267,2.95267c0,1.63071 -1.32196,2.95267 -2.95267,2.95267z" data-paper-data="{&quot;index&quot;:null}" fill="#fffd00"/><path d="M234.74204,144.35719c-1.63071,0 -2.95267,-1.32196 -2.95267,-2.95267c0,-1.63071 1.32196,-2.95267 2.95267,-2.95267c1.63071,0 2.95267,1.32196 2.95267,2.95267c0,1.63071 -1.32196,2.95267 -2.95267,2.95267z" data-paper-data="{&quot;index&quot;:null}" fill="#fffd00"/><path d="M284.39662,348.2956c-1.63071,0 -2.95267,-1.32196 -2.95267,-2.95267c0,-1.63071 1.32196,-2.95267 2.95267,-2.95267c1.63071,0 2.95267,1.32196 2.95267,2.95267c0,1.63071 -1.32196,2.95267 -2.95267,2.95267z" data-paper-data="{&quot;index&quot;:null}" fill="#fffd00"/><path d="M217.00827,252.53322c-1.63071,0 -2.95267,-1.32196 -2.95267,-2.95267c0,-1.63071 1.32196,-2.95267 2.95267,-2.95267c1.63071,0 2.95267,1.32196 2.95267,2.95267c0,1.63071 -1.32196,2.95267 -2.95267,2.95267z" data-paper-data="{&quot;index&quot;:null}" fill="#fffd00"/><path d="M369.51874,305.73454c-1.63071,0 -2.95267,-1.32196 -2.95267,-2.95267c0,-1.63071 1.32196,-2.95267 2.95267,-2.95267c1.63071,0 2.95267,1.32196 2.95267,2.95267c0,1.63071 -1.32196,2.95267 -2.95267,2.95267z" data-paper-data="{&quot;index&quot;:null}" fill="#fffd00"/><path d="M444.00059,252.53322c-1.63071,0 -2.95267,-1.32196 -2.95267,-2.95267c0,-1.63071 1.32196,-2.95267 2.95267,-2.95267c1.63071,0 2.95267,1.32196 2.95267,2.95267c0,1.63071 -1.32196,2.95267 -2.95267,2.95267z" data-paper-data="{&quot;index&quot;:null}" fill="#fffd00"/><path d="M316.31742,82.28897c-1.63071,0 -2.95267,-1.32196 -2.95267,-2.95267c0,-1.63071 1.32196,-2.95267 2.95267,-2.95267c1.63071,0 2.95267,1.32196 2.95267,2.95267c0,1.63071 -1.32196,2.95267 -2.95267,2.95267z" data-paper-data="{&quot;index&quot;:null}" fill="#fffd00"/><path d="M131.88615,197.55851c-1.63071,0 -2.95267,-1.32196 -2.95267,-2.95267c0,-1.63071 1.32196,-2.95267 2.95267,-2.95267c1.63071,0 2.95267,1.32196 2.95267,2.95267c0,1.63071 -1.32196,2.95267 -2.95267,2.95267z" data-paper-data="{&quot;index&quot;:null}" fill="#fffd00"/><path d="M167.35369,73.42209c-1.63071,0 -2.95267,-1.32196 -2.95267,-2.95267c0,-1.63071 1.32196,-2.95267 2.95267,-2.95267c1.63071,0 2.95267,1.32196 2.95267,2.95267c0,1.63071 -1.32196,2.95267 -2.95267,2.95267z" data-paper-data="{&quot;index&quot;:null}" fill="#fffd00"/><path d="M131.88615,334.10859c-1.63071,0 -2.95267,-1.32196 -2.95267,-2.95267c0,-1.63071 1.32196,-2.95267 2.95267,-2.95267c1.63071,0 2.95267,1.32196 2.95267,2.95267c0,1.63071 -1.32196,2.95267 -2.95267,2.95267z" data-paper-data="{&quot;index&quot;:null}" fill="#fffd00"/><path d="M-4.66394,147.90394c-1.63071,0 -2.95267,-1.32196 -2.95267,-2.95267c0,-1.63071 1.32196,-2.95267 2.95267,-2.95267c1.63071,0 2.95267,1.32196 2.95267,2.95267c0,1.63071 -1.32196,2.95267 -2.95267,2.95267z" data-paper-data="{&quot;index&quot;:null}" fill="#fffd00"/><path d="M-25.94445,29.08765c-1.63071,0 -2.95267,-1.32196 -2.95267,-2.95267c0,-1.63071 1.32196,-2.95267 2.95267,-2.95267c1.63071,0 2.95267,1.32196 2.95267,2.95267c0,1.63071 -1.32196,2.95267 -2.95267,2.95267z" data-paper-data="{&quot;index&quot;:null}" fill="#fffd00"/><path d="M133.65952,264.94686c-1.63071,0 -2.95267,-1.32196 -2.95267,-2.95267c0,-1.63071 1.32196,-2.95267 2.95267,-2.95267c1.63071,0 2.95267,1.32196 2.95267,2.95267c0,1.63071 -1.32196,2.95267 -2.95267,2.95267z" data-paper-data="{&quot;index&quot;:null}" fill="#fffd00"/><path d="M0.65621,362.48262c-1.63071,0 -2.95267,-1.32196 -2.95267,-2.95267c0,-1.63071 1.32196,-2.95267 2.95267,-2.95267c1.63071,0 2.95267,1.32196 2.95267,2.95267c0,1.63071 -1.32196,2.95267 -2.95267,2.95267z" data-paper-data="{&quot;index&quot;:null}" fill="#fffd00"/><path d="M362.42524,364.256c-1.63071,0 -2.95267,-1.32196 -2.95267,-2.95267c0,-1.63071 1.32196,-2.95267 2.95267,-2.95267c1.63071,0 2.95267,1.32196 2.95267,2.95267c0,1.63071 -1.32196,2.95267 -2.95267,2.95267z" data-paper-data="{&quot;index&quot;:null}" fill="#fffd00"/><path d="M424.49345,123.07666c-1.63071,0 -2.95267,-1.32196 -2.95267,-2.95267c0,-1.63071 1.32196,-2.95267 2.95267,-2.95267c1.63071,0 2.95267,1.32196 2.95267,2.95267c0,1.63071 -1.32196,2.95267 -2.95267,2.95267z" data-paper-data="{&quot;index&quot;:null}" fill="#fffd00"/><path d="M286.16999,225.93256c-1.63071,0 -2.95267,-1.32196 -2.95267,-2.95267c0,-1.63071 1.32196,-2.95267 2.95267,-2.95267c1.63071,0 2.95267,1.32196 2.95267,2.95267c0,1.63071 -1.32196,2.95267 -2.95267,2.95267z" data-paper-data="{&quot;index&quot;:null}" fill="#fffd00"/><path d="M-22.3977,250.75984c-1.63071,0 -2.95267,-1.32196 -2.95267,-2.95267c0,-1.63071 1.32196,-2.95267 2.95267,-2.95267c1.63071,0 2.95267,1.32196 2.95267,2.95267c0,1.63071 -1.32196,2.95267 -2.95267,2.95267z" data-paper-data="{&quot;index&quot;:null}" fill="#fffd00"/><path d="M204.59462,374.89626c-1.63071,0 -2.95267,-1.32196 -2.95267,-2.95267c0,-1.63071 1.32196,-2.95267 2.95267,-2.95267c1.63071,0 2.95267,1.32196 2.95267,2.95267c0,1.63071 -1.32196,2.95267 -2.95267,2.95267z" data-paper-data="{&quot;index&quot;:null}" fill="#fffd00"/><path d="M94.94225,230.07339c0,-0.81536 0.66097,-1.47634 1.47634,-1.47634c0.81536,0 1.47634,0.66097 1.47634,1.47634c0,0.81536 -0.66097,1.47634 -1.47634,1.47634c-0.81536,0 -1.47634,-0.66097 -1.47634,-1.47634z" fill="#fffd00"/><path d="M171.1975,249.58054c0,-0.81536 0.66097,-1.47634 1.47634,-1.47634c0.81536,0 1.47634,0.66097 1.47634,1.47634c0,0.81536 -0.66097,1.47634 -1.47634,1.47634c-0.81536,0 -1.47634,-0.66097 -1.47634,-1.47634z" fill="#ffffff"/><path d="M50.51297,38.34269c0,-1.38071 1.11929,-2.5 2.5,-2.5c1.38071,0 2.5,1.11929 2.5,2.5c0,1.38071 -1.11929,2.5 -2.5,2.5c-1.38071,0 -2.5,-1.11929 -2.5,-2.5z" fill="#fffd00"/><path d="M322.28475,128.43278c0,-1.38071 1.11929,-2.5 2.5,-2.5c1.38071,0 2.5,1.11929 2.5,2.5c0,1.38071 -1.11929,2.5 -2.5,2.5c-1.38071,0 -2.5,-1.11929 -2.5,-2.5z" fill="#fffd00"/><path d="M146.60907,137.44179c0,-1.38071 1.11929,-2.5 2.5,-2.5c1.38071,0 2.5,1.11929 2.5,2.5c0,1.38071 -1.11929,2.5 -2.5,2.5c-1.38071,0 -2.5,-1.11929 -2.5,-2.5z" fill="#fffd00"/><path d="M247.20967,174.97933c0,-1.38071 1.11929,-2.5 2.5,-2.5c1.38071,0 2.5,1.11929 2.5,2.5c0,1.38071 -1.11929,2.5 -2.5,2.5c-1.38071,0 -2.5,-1.11929 -2.5,-2.5z" fill="#fffd00"/><path d="M50.51297,214.01837c0,-1.38071 1.11929,-2.5 2.5,-2.5c1.38071,0 2.5,1.11929 2.5,2.5c0,1.38071 -1.11929,2.5 -2.5,2.5c-1.38071,0 -2.5,-1.11929 -2.5,-2.5z" fill="#fffd00"/><path d="M361.32379,27.83218c0,-1.38071 1.11929,-2.5 2.5,-2.5c1.38071,0 2.5,1.11929 2.5,2.5c0,1.38071 -1.11929,2.5 -2.5,2.5c-1.38071,0 -2.5,-1.11929 -2.5,-2.5z" fill="#fffd00"/><path d="M461.9244,54.85921c0,-1.38071 1.11929,-2.5 2.5,-2.5c1.38071,0 2.5,1.11929 2.5,2.5c0,1.38071 -1.11929,2.5 -2.5,2.5c-1.38071,0 -2.5,-1.11929 -2.5,-2.5z" fill="#fffd00"/><path d="M95.55802,113.41777c0,-1.38071 1.11929,-2.5 2.5,-2.5c1.38071,0 2.5,1.11929 2.5,2.5c0,1.38071 -1.11929,2.5 -2.5,2.5c-1.38071,0 -2.5,-1.11929 -2.5,-2.5z" fill="#ffffff"/><path d="M238.20066,302.60696c0,-1.38071 1.11929,-2.5 2.5,-2.5c1.38071,0 2.5,1.11929 2.5,2.5c0,1.38071 -1.11929,2.5 -2.5,2.5c-1.38071,0 -2.5,-1.11929 -2.5,-2.5z" fill="#ffffff"/><path d="M211.17365,60.86522c0,-1.38071 1.11929,-2.5 2.5,-2.5c1.38071,0 2.5,1.11929 2.5,2.5c0,1.38071 -1.11929,2.5 -2.5,2.5c-1.38071,0 -2.5,-1.11929 -2.5,-2.5z" fill="#ffffff"/><path d="M266.7292,107.41176c0,-1.38071 1.11929,-2.5 2.5,-2.5c1.38071,0 2.5,1.11929 2.5,2.5c0,1.38071 -1.11929,2.5 -2.5,2.5c-1.38071,0 -2.5,-1.11929 -2.5,-2.5z" fill="#ffffff"/><path d="M326.78925,23.32768c0,-1.38071 1.11929,-2.5 2.5,-2.5c1.38071,0 2.5,1.11929 2.5,2.5c0,1.38071 -1.11929,2.5 -2.5,2.5c-1.38071,0 -2.5,-1.11929 -2.5,-2.5z" fill="#ffffff"/><path d="M436.39887,209.51387c0,-1.38071 1.11929,-2.5 2.5,-2.5c1.38071,0 2.5,1.11929 2.5,2.5c0,1.38071 -1.11929,2.5 -2.5,2.5c-1.38071,0 -2.5,-1.11929 -2.5,-2.5z" fill="#ffffff"/><path d="M203.66614,182.48684c0,-1.38071 1.11929,-2.5 2.5,-2.5c1.38071,0 2.5,1.11929 2.5,2.5c0,1.38071 -1.11929,2.5 -2.5,2.5c-1.38071,0 -2.5,-1.11929 -2.5,-2.5z" fill="#ffffff"/><path d="M43.00547,173.47783c0,-1.38071 1.11929,-2.5 2.5,-2.5c1.38071,0 2.5,1.11929 2.5,2.5c0,1.38071 -1.11929,2.5 -2.5,2.5c-1.38071,0 -2.5,-1.11929 -2.5,-2.5z" fill="#ffffff"/><path d="M433.39587,301.10546c0,-1.38071 1.11929,-2.5 2.5,-2.5c1.38071,0 2.5,1.11929 2.5,2.5c0,1.38071 -1.11929,2.5 -2.5,2.5c-1.38071,0 -2.5,-1.11929 -2.5,-2.5z" fill="#ffffff"/><path d="M173.63611,290.59495c0,-1.38071 1.11929,-2.5 2.5,-2.5c1.38071,0 2.5,1.11929 2.5,2.5c0,1.38071 -1.11929,2.5 -2.5,2.5c-1.38071,0 -2.5,-1.11929 -2.5,-2.5z" fill="#ffffff"/><path d="M89.55201,29.33369c0,-1.38071 1.11929,-2.5 2.5,-2.5c1.38071,0 2.5,1.11929 2.5,2.5c0,1.38071 -1.11929,2.5 -2.5,2.5c-1.38071,0 -2.5,-1.11929 -2.5,-2.5z" fill="#ffffff"/></g></g></svg>