<svg version="1.1" xmlns="http://www.w3.org/2000/svg" xmlns:xlink="http://www.w3.org/1999/xlink" width="19.38764" height="26.19922" viewBox="0,0,19.38764,26.19922"><g transform="translate(-230.30618,-166.90039)"><g data-paper-data="{&quot;isPaintingLayer&quot;:true}" fill="#ffffff" fill-rule="nonzero" stroke="none" stroke-width="1" stroke-linecap="square" stroke-linejoin="miter" stroke-miterlimit="10" stroke-dasharray="" stroke-dashoffset="0" style="mix-blend-mode: normal"><path d="M249.6938,185.37566c0,1.1128 -0.25574,2.14266 -0.76721,3.08958c-0.50456,0.94692 -1.1992,1.76251 -2.08391,2.44678c-0.8778,0.68427 -1.9042,1.21993 -3.07921,1.607c-1.17501,0.38706 -2.4295,0.58059 -3.76348,0.58059c-1.33398,0 -2.58847,-0.19353 -3.76348,-0.58059c-1.17501,-0.38706 -2.20487,-0.92273 -3.08958,-1.607c-0.8778,-0.68427 -1.57244,-1.49986 -2.08391,-2.44678c-0.50456,-0.94692 -0.75684,-1.97678 -0.75684,-3.08958c0,-0.64971 0.0864,-1.28214 0.25919,-1.89729c0.1728,-0.61515 0.42162,-1.19229 0.74648,-1.73141c0.33177,-0.54603 0.72574,-1.04368 1.18192,-1.49295c0.46309,-0.45618 0.98493,-0.8467 1.56553,-1.17155c-0.35941,-0.31103 -0.68081,-0.66699 -0.9642,-1.06787c-0.28338,-0.4078 -0.5253,-0.83633 -0.72574,-1.2856c-0.20044,-0.44927 -0.3525,-0.91236 -0.45618,-1.38927c-0.10368,-0.47692 -0.15552,-0.95037 -0.15552,-1.42038c0,-0.96765 0.21427,-1.8731 0.6428,-2.71634c0.43544,-0.85015 1.0264,-1.59317 1.77288,-2.22906c0.75339,-0.6428 1.63119,-1.14736 2.6334,-1.51369c1.00221,-0.37324 2.06663,-0.55986 3.19326,-0.55986c1.14045,0 2.21178,0.18662 3.21399,0.55986c1.00221,0.36633 1.88001,0.87089 2.6334,1.51369c0.75339,0.63589 1.34435,1.37891 1.77288,2.22906c0.43544,0.84324 0.65317,1.74869 0.65317,2.71634c0,0.47 -0.05529,0.94346 -0.16588,1.42038c-0.11059,0.47692 -0.26265,0.94346 -0.45618,1.39964c-0.19353,0.45618 -0.43199,0.88817 -0.71537,1.29596c-0.28338,0.40089 -0.60133,0.7603 -0.95383,1.07824c0.55986,0.32486 1.06787,0.71192 1.52405,1.16118c0.46309,0.44927 0.85706,0.94692 1.18192,1.49295c0.32486,0.53912 0.57368,1.1128 0.74648,1.72104c0.1728,0.60824 0.25919,1.23721 0.25919,1.88692zM243.42133,174.45845c0,-0.4078 -0.08985,-0.78449 -0.26956,-1.13008c-0.17971,-0.3525 -0.42162,-0.66008 -0.72574,-0.92273c-0.30412,-0.26956 -0.66353,-0.47692 -1.07824,-0.62206c-0.41471,-0.15206 -0.85361,-0.22809 -1.3167,-0.22809c-0.47,0 -0.91236,0.07603 -1.32707,0.22809c-0.41471,0.14515 -0.77412,0.3525 -1.07824,0.62206c-0.30412,0.26265 -0.54603,0.57022 -0.72574,0.92273c-0.17971,0.34559 -0.26956,0.72228 -0.26956,1.13008c0,0.40089 0.08985,0.77412 0.26956,1.11971c0.17971,0.34559 0.42162,0.64625 0.72574,0.90199c0.30412,0.24883 0.66353,0.44927 1.07824,0.60133c0.41471,0.14515 0.85706,0.21772 1.32707,0.21772c0.46309,0 0.90199,-0.07257 1.3167,-0.21772c0.41471,-0.15206 0.77412,-0.3525 1.07824,-0.60133c0.30412,-0.25574 0.54603,-0.5564 0.72574,-0.90199c0.17971,-0.34559 0.26956,-0.71883 0.26956,-1.11971zM244.76914,185.23052c0,-0.55294 -0.12441,-1.06787 -0.37324,-1.54479c-0.24883,-0.47692 -0.59096,-0.89162 -1.0264,-1.24413c-0.42853,-0.35941 -0.93309,-0.6428 -1.51369,-0.85015c-0.58059,-0.20735 -1.1992,-0.31103 -1.85582,-0.31103c-0.65662,0 -1.27523,0.10368 -1.85582,0.31103c-0.57368,0.20735 -1.07824,0.49074 -1.51369,0.85015c-0.42853,0.3525 -0.76721,0.76721 -1.01604,1.24413c-0.24191,0.47692 -0.36287,0.99184 -0.36287,1.54479c0,0.55294 0.12096,1.06096 0.36287,1.52405c0.24883,0.46309 0.5875,0.86052 1.01604,1.19229c0.43544,0.33177 0.94001,0.59442 1.51369,0.78795c0.58059,0.18662 1.1992,0.27993 1.85582,0.27993c0.65662,0 1.27523,-0.09331 1.85582,-0.27993c0.58059,-0.19353 1.08515,-0.45618 1.51369,-0.78795c0.43544,-0.33177 0.77758,-0.7292 1.0264,-1.19229c0.24883,-0.46309 0.37324,-0.97111 0.37324,-1.52405z"/></g></g></svg>