<svg version="1.1" xmlns="http://www.w3.org/2000/svg" xmlns:xlink="http://www.w3.org/1999/xlink" width="86.43096" height="34.91401" viewBox="0,0,86.43096,34.91401"><g transform="translate(-196.78457,-162.54301)"><g data-paper-data="{&quot;isPaintingLayer&quot;:true}" fill-rule="nonzero" stroke-linejoin="miter" stroke-miterlimit="10" stroke-dasharray="" stroke-dashoffset="0" style="mix-blend-mode: normal"><path d="M266.63814,163.54301c0,0 0.77785,0 8.98398,0c3.17058,0 6.59341,3.85656 6.59341,6.76109c0,3.67479 0,12.83527 0,19.30356c0,3.81533 -3.27819,6.84936 -6.35507,6.84936c-8.76488,0 -51.27528,0 -69.58813,0c-5.17724,0 -8.43673,-3.75208 -8.44886,-8.99555c-0.00564,-2.43369 -0.02663,-9.85121 -0.0389,-14.2114c-0.02488,-8.84564 7.06203,-9.56146 12.45985,-9.56146c9.89908,0 42.07965,0 42.07965,0" data-paper-data="{&quot;index&quot;:null}" fill="#d93fb9" stroke="#000000" stroke-width="2" stroke-linecap="round"/><text transform="translate(209.99194,185.17827) scale(0.44882,0.44882)" font-size="40" xml:space="preserve" fill="#000000" fill-rule="nonzero" stroke="none" stroke-width="1" stroke-linecap="butt" stroke-linejoin="miter" stroke-miterlimit="10" stroke-dasharray="" stroke-dashoffset="0" font-family="Sans Serif" font-weight="normal" text-anchor="start" style="mix-blend-mode: normal"><tspan x="0" dy="0">Infinity</tspan></text></g></g></svg>