<svg version="1.1" xmlns="http://www.w3.org/2000/svg" xmlns:xlink="http://www.w3.org/1999/xlink" width="145.8337" height="55.63158" viewBox="0,0,145.8337,55.63158"><g transform="translate(-166.55839,-153.95502)"><g data-paper-data="{&quot;isPaintingLayer&quot;:true}" fill-rule="nonzero" stroke-linejoin="miter" stroke-miterlimit="10" stroke-dasharray="" stroke-dashoffset="0" style="mix-blend-mode: normal"><text transform="translate(295.01493,172.64134) rotate(135) scale(0.56494,0.56494)" font-size="40" xml:space="preserve" data-paper-data="{&quot;index&quot;:null}" fill="#e18a06" fill-rule="nonzero" stroke="none" stroke-width="1" stroke-linecap="butt" stroke-linejoin="miter" stroke-miterlimit="10" stroke-dasharray="" stroke-dashoffset="0" font-family="Sans Serif" font-weight="normal" text-anchor="start" style="mix-blend-mode: normal"><tspan x="0" dy="0">🔥</tspan></text><text transform="translate(183.93555,174.35375) rotate(45) scale(0.56494,-0.56494)" font-size="40" xml:space="preserve" data-paper-data="{&quot;index&quot;:null}" fill="#e18a06" fill-rule="nonzero" stroke="none" stroke-width="1" stroke-linecap="butt" stroke-linejoin="miter" stroke-miterlimit="10" stroke-dasharray="" stroke-dashoffset="0" font-family="Sans Serif" font-weight="normal" text-anchor="start" style="mix-blend-mode: normal"><tspan x="0" dy="0">🔥</tspan></text><path d="M184.50003,170.73037v-15.02532h111v15.02532z" fill="#555968" stroke="#9d0000" stroke-width="0" stroke-linecap="butt"/><path d="M295.50004,170.53642c0,0 -2.76598,4.36816 -11.4545,11.17181c-5.28191,4.13606 -13.3873,7.76113 -13.3873,7.76113l-61.72673,-0.12626c0,0 -9.44724,-4.80287 -14.10885,-8.27285c-7.27581,-5.41591 -10.32263,-10.53383 -10.32263,-10.53383z" fill="#99a0b9" stroke="#9d0000" stroke-width="0" stroke-linecap="butt"/><path d="M270.53319,189.51261l-0.17844,14.6918l-61.29146,0.09065l-0.25682,-15.02532z" fill="#555968" stroke="#9d0000" stroke-width="0" stroke-linecap="butt"/><path d="M209.4954,189.35143v14.5h60.83334v-14.66666h-61.5c0,0 -8.15435,-1.99465 -15.262,-7.48969c-6.16777,-5.28473 -8.62071,-10.89303 -8.62071,-10.89303v-14.83951h78.29013" fill="none" stroke="#000000" stroke-width="3.5" stroke-linecap="round"/><path d="M276.24849,155.70503h18.83333l-0.33333,14.97356h-92.5" fill="none" stroke="#000000" stroke-width="3.5" stroke-linecap="round"/><path d="M294.76081,171.43784c0,0 -2.55892,5.49934 -9.57432,11.03773c-6.43351,5.07901 -14.75902,6.62894 -14.75902,6.62894" fill="none" stroke="#000000" stroke-width="3.5" stroke-linecap="round"/><path d="M185.31022,170.53642h7.16667" fill="none" stroke="#000000" stroke-width="3.5" stroke-linecap="round"/></g></g></svg>