<svg version="1.1" xmlns="http://www.w3.org/2000/svg" xmlns:xlink="http://www.w3.org/1999/xlink" width="43.01533" height="18.0684" viewBox="0,0,43.01533,18.0684"><g transform="translate(-218.49233,-170.9658)"><g data-paper-data="{&quot;isPaintingLayer&quot;:true}" fill-rule="nonzero" stroke-linejoin="miter" stroke-miterlimit="10" stroke-dasharray="" stroke-dashoffset="0" style="mix-blend-mode: normal"><path d="M234.01317,172.03687c0,0 15.63284,0 20.44166,0c2.62218,0 6.06489,0.34946 6.0528,4.66784c-0.00596,2.12862 -0.01616,5.7498 -0.0189,6.93792c-0.00589,2.55982 -1.5893,4.39157 -4.10433,4.39157c-8.89611,0 -29.54702,0 -33.80487,0c-1.49471,0 -3.0872,-1.48119 -3.0872,-3.34381c0,-3.15777 0,-7.62987 0,-9.42387c0,-1.41798 1.66275,-3.30072 3.20298,-3.30072c3.98641,0 4.36428,0 4.36428,0" data-paper-data="{&quot;index&quot;:null}" fill-opacity="0.80967" fill="#c2d6ea" stroke="#000000" stroke-width="2" stroke-linecap="round"/><text transform="translate(222.31142,183.15024) scale(0.26252,0.26252)" font-size="40" xml:space="preserve" fill="#000000" fill-rule="nonzero" stroke="none" stroke-width="1" stroke-linecap="butt" stroke-linejoin="miter" stroke-miterlimit="10" stroke-dasharray="" stroke-dashoffset="0" font-family="Sans Serif" font-weight="normal" text-anchor="start" style="mix-blend-mode: normal"><tspan x="0" dy="0">Credits</tspan></text></g></g></svg>