<svg version="1.1" xmlns="http://www.w3.org/2000/svg" xmlns:xlink="http://www.w3.org/1999/xlink" width="86.43104" height="34.91401" viewBox="0,0,86.43104,34.91401"><g transform="translate(-196.78448,-162.54301)"><g data-paper-data="{&quot;isPaintingLayer&quot;:true}" fill-rule="nonzero" stroke="#000000" stroke-linejoin="miter" stroke-miterlimit="10" stroke-dasharray="" stroke-dashoffset="0" style="mix-blend-mode: normal"><path d="M227.67596,163.68861c0,0 32.18058,0 42.07965,0c5.39781,0 12.48472,0.71582 12.45984,9.56146c-0.01227,4.36019 -0.03326,11.77771 -0.0389,14.2114c-0.01213,5.24346 -3.27162,8.99555 -8.44886,8.99555c-18.31286,0 -60.82325,0 -69.58813,0c-3.07689,0 -6.35508,-3.03403 -6.35508,-6.84936c0,-6.46828 0,-15.62877 0,-19.30356c0,-2.90454 3.42282,-6.76109 6.59341,-6.76109c8.20612,0 8.98397,0 8.98397,0" data-paper-data="{&quot;index&quot;:null}" fill-opacity="0.80967" fill="#c2d6ea" stroke-width="2" stroke-linecap="round"/><path d="M222.85981,184.6475c-0.13369,0 -0.24734,-0.04345 -0.34092,-0.13035c-0.0869,-0.0869 -0.13035,-0.20054 -0.13035,-0.34092v-8.41268c0,-0.13369 0.04345,-0.24399 0.13035,-0.33089c0.09358,-0.09358 0.20723,-0.14038 0.34092,-0.14038c0.13369,0 0.24399,0.04679 0.3309,0.14038c0.09358,0.0869 0.14038,0.1972 0.14038,0.3309v3.74009h5.83574v-3.74008c0,-0.13369 0.04345,-0.24399 0.13035,-0.33089c0.0869,-0.09358 0.20054,-0.14038 0.34092,-0.14038c0.13369,0 0.24399,0.04679 0.3309,0.14038c0.0869,0.0869 0.13035,0.1972 0.13035,0.3309v8.41269c0,0.14038 -0.04345,0.25402 -0.13035,0.34092c-0.0869,0.0869 -0.1972,0.13035 -0.33089,0.13035c-0.14038,0 -0.25402,-0.04345 -0.34092,-0.13035c-0.0869,-0.0869 -0.13035,-0.20054 -0.13035,-0.34092v-3.84035h-5.83574v3.84036c0,0.14038 -0.04679,0.25402 -0.14038,0.34092c-0.0869,0.0869 -0.1972,0.13035 -0.33089,0.13035zM235.36088,184.70766c-0.64173,0 -1.21327,-0.14372 -1.71462,-0.43116c-0.50135,-0.28744 -0.89575,-0.68184 -1.18319,-1.18319c-0.28744,-0.50135 -0.43116,-1.07289 -0.43116,-1.71462c0,-0.64842 0.14372,-1.2233 0.43117,-1.72465c0.28744,-0.50135 0.68184,-0.89575 1.18319,-1.18319c0.50135,-0.28744 1.0729,-0.43116 1.71463,-0.43116c0.63504,0 1.20324,0.14372 1.7046,0.43117c0.50135,0.28744 0.89575,0.68184 1.18319,1.18319c0.28744,0.50135 0.4345,1.07623 0.44119,1.72465c0,0.64173 -0.14707,1.21327 -0.44119,1.71463c-0.28744,0.50135 -0.68184,0.89575 -1.18319,1.18319c-0.50135,0.28744 -1.06955,0.43117 -1.7046,0.43117zM235.36088,183.86539c0.46124,0 0.87569,-0.10696 1.24335,-0.32087c0.36766,-0.21391 0.6551,-0.50804 0.86233,-0.88238c0.20723,-0.37434 0.31084,-0.80216 0.31084,-1.28346c0,-0.4813 -0.10361,-0.90912 -0.31083,-1.28346c-0.20723,-0.38103 -0.49467,-0.6785 -0.86233,-0.8924c-0.36766,-0.22059 -0.78211,-0.33089 -1.24335,-0.33089c-0.46124,0 -0.87569,0.1103 -1.24335,0.3309c-0.36766,0.21391 -0.65844,0.51138 -0.87235,0.89241c-0.21391,0.37434 -0.32087,0.80216 -0.32087,1.28346c0,0.4813 0.10696,0.90912 0.32087,1.28346c0.21391,0.37434 0.5047,0.66847 0.87236,0.88238c0.36766,0.21391 0.78211,0.32087 1.24335,0.32087zM249.33193,184.6475c-0.13369,0 -0.24734,-0.04011 -0.34092,-0.12032c-0.0869,-0.0869 -0.13035,-0.1972 -0.13035,-0.33089v-3.4493c0,-0.5682 -0.14707,-1.01607 -0.44119,-1.34362c-0.29412,-0.33423 -0.67181,-0.50135 -1.13305,-0.50135c-0.49467,0 -0.90243,0.16712 -1.2233,0.50135c-0.31418,0.32755 -0.46793,0.7654 -0.46124,1.31355h-0.82222c0.00669,-0.53477 0.12032,-1.0027 0.34092,-1.40379c0.22728,-0.40777 0.53477,-0.72195 0.92249,-0.94254c0.39439,-0.22728 0.83893,-0.34092 1.3336,-0.34092c0.47461,0 0.89241,0.11364 1.25338,0.34092c0.36097,0.22059 0.64173,0.53477 0.84227,0.94254c0.20723,0.40108 0.31084,0.87904 0.31084,1.43387v3.4493c0,0.13369 -0.04345,0.24399 -0.13035,0.3309c-0.08022,0.08022 -0.18717,0.12032 -0.32087,0.12032zM240.94933,184.6475c-0.14038,0 -0.25402,-0.04011 -0.34092,-0.12032c-0.0869,-0.0869 -0.13035,-0.1972 -0.13035,-0.33089v-5.63519c0,-0.13369 0.04345,-0.24399 0.13035,-0.33089c0.0869,-0.0869 0.20054,-0.13035 0.34092,-0.13035c0.13369,0 0.24065,0.04345 0.32087,0.13035c0.0869,0.0869 0.13035,0.1972 0.13035,0.3309v5.63519c0,0.13369 -0.04345,0.24399 -0.13035,0.3309c-0.08022,0.08022 -0.18717,0.12032 -0.32087,0.12032zM245.15065,184.6475c-0.13369,0 -0.24399,-0.04011 -0.33089,-0.12032c-0.0869,-0.0869 -0.13035,-0.1972 -0.13035,-0.33089v-3.4493c0,-0.5682 -0.1504,-1.01607 -0.45121,-1.34362c-0.29412,-0.33423 -0.67181,-0.50135 -1.13305,-0.50135c-0.49467,0 -0.90243,0.16378 -1.2233,0.49133c-0.32087,0.32087 -0.4813,0.73866 -0.4813,1.25338h-0.65175c0.01337,-0.50804 0.12367,-0.95925 0.3309,-1.35365c0.21391,-0.39439 0.5047,-0.70189 0.87236,-0.92249c0.36766,-0.22728 0.78211,-0.34092 1.24335,-0.34092c0.47461,0 0.89241,0.11364 1.25338,0.34092c0.36766,0.22059 0.65176,0.53477 0.8523,0.94254c0.20054,0.40108 0.30081,0.87904 0.30081,1.43387v3.4493c0,0.13369 -0.04345,0.24399 -0.13035,0.3309c-0.08022,0.08022 -0.18717,0.12032 -0.32087,0.12032zM254.79385,184.70766c-0.64842,0 -1.2233,-0.14038 -1.72465,-0.42114c-0.49467,-0.28744 -0.88572,-0.68184 -1.17316,-1.18319c-0.28076,-0.50135 -0.42114,-1.07623 -0.42114,-1.72465c0,-0.6551 0.13369,-1.22999 0.40108,-1.72465c0.26739,-0.50135 0.63504,-0.89575 1.10297,-1.18319c0.47461,-0.28744 1.01941,-0.43116 1.63441,-0.43116c0.60162,0 1.12637,0.13704 1.57425,0.41111c0.45456,0.27407 0.80551,0.6551 1.05284,1.14308c0.24734,0.48798 0.371,1.04281 0.371,1.66449c0,0.12701 -0.04011,0.23063 -0.12032,0.31084c-0.08022,0.07353 -0.18383,0.1103 -0.31083,0.1103h-5.0837v-0.77208h5.18398l-0.51138,0.371c0.00669,-0.46124 -0.08022,-0.87569 -0.2607,-1.24335c-0.1738,-0.36766 -0.42114,-0.6551 -0.742,-0.86233c-0.32087,-0.20723 -0.70524,-0.31083 -1.15311,-0.31083c-0.45456,0 -0.85564,0.1103 -1.20324,0.3309c-0.34092,0.21391 -0.60497,0.51138 -0.79213,0.89241c-0.18717,0.37434 -0.28076,0.80551 -0.28076,1.29349c0,0.48798 0.10361,0.91914 0.31084,1.29349c0.21391,0.37434 0.5047,0.67181 0.87236,0.89241c0.36766,0.21391 0.79214,0.32087 1.27344,0.32087c0.28744,0 0.57488,-0.05013 0.86233,-0.1504c0.29412,-0.10027 0.52809,-0.22728 0.70189,-0.38103c0.0869,-0.07353 0.18717,-0.11029 0.30081,-0.11029c0.11364,-0.00669 0.20723,0.0234 0.28076,0.09025c0.10696,0.09358 0.16043,0.1972 0.16043,0.31084c0.00669,0.10696 -0.03676,0.20054 -0.13035,0.28076c-0.26739,0.22728 -0.60497,0.41445 -1.01273,0.56151c-0.40108,0.14707 -0.7888,0.22059 -1.16314,0.22059z" fill="#000000" stroke-width="0.5" stroke-linecap="square"/></g></g></svg>