<svg version="1.1" xmlns="http://www.w3.org/2000/svg" xmlns:xlink="http://www.w3.org/1999/xlink" width="19.24249" height="25.48386" viewBox="0,0,19.24249,25.48386"><g transform="translate(-230.37875,-167.25807)"><g data-paper-data="{&quot;isPaintingLayer&quot;:true}" fill="#ffffff" fill-rule="nonzero" stroke="none" stroke-width="1" stroke-linecap="square" stroke-linejoin="miter" stroke-miterlimit="10" stroke-dasharray="" stroke-dashoffset="0" style="mix-blend-mode: normal"><path d="M249.62122,182.94444c0,1.34089 -0.23846,2.60575 -0.71537,3.79458c-0.47692,1.18192 -1.13699,2.21869 -1.98023,3.11032c-0.83633,0.89162 -1.83509,1.59663 -2.99627,2.11501c-1.15427,0.51839 -2.40531,0.77758 -3.75311,0.77758c-1.3478,0 -2.61958,-0.25919 -3.81532,-0.77758c-1.18883,-0.51839 -2.22906,-1.22339 -3.12068,-2.11501c-0.88471,-0.89162 -1.5828,-1.9284 -2.09428,-3.11032c-0.51147,-1.18883 -0.76721,-2.45369 -0.76721,-3.79458c0,-1.58972 0.15552,-3.14142 0.46655,-4.65511c0.31103,-1.51369 0.76376,-2.94443 1.35817,-4.29224c0.60133,-1.35472 1.33398,-2.6023 2.19796,-3.74275c0.86398,-1.14045 1.842,-2.13921 2.93406,-2.99627h6.68718c-0.69118,0.44927 -1.36508,0.95037 -2.0217,1.50332c-0.65662,0.55294 -1.28214,1.14736 -1.87656,1.78325c-0.5875,0.63589 -1.13699,1.30633 -1.64847,2.01134c-0.50456,0.69809 -0.95383,1.42729 -1.3478,2.18759c0.49765,-0.33177 1.03677,-0.61515 1.61736,-0.85015c0.58059,-0.24191 1.17846,-0.36287 1.79362,-0.36287c1.38927,0 2.64377,0.235 3.76348,0.705c1.12663,0.46309 2.08046,1.1128 2.86149,1.94913c0.78795,0.83633 1.39273,1.83163 1.81435,2.9859c0.42853,1.14736 0.6428,2.40531 0.6428,3.77385zM244.66545,182.94444c0,-0.65662 -0.10713,-1.27523 -0.3214,-1.85582c-0.21427,-0.58059 -0.51839,-1.09207 -0.91236,-1.53442c-0.38706,-0.44236 -0.85706,-0.7914 -1.41001,-1.04714c-0.55294,-0.25574 -1.1681,-0.38361 -1.84545,-0.38361c-0.68427,0 -1.30288,0.12787 -1.85582,0.38361c-0.55294,0.25574 -1.02295,0.60478 -1.41001,1.04714c-0.38015,0.44236 -0.6739,0.95383 -0.88126,1.53442c-0.20735,0.58059 -0.31103,1.1992 -0.31103,1.85582c0,0.63589 0.10368,1.24413 0.31103,1.82472c0.21427,0.58059 0.51839,1.09552 0.91236,1.54479c0.39397,0.44927 0.86398,0.80868 1.41001,1.07824c0.54603,0.26265 1.15427,0.39397 1.82472,0.39397c0.67736,0 1.29251,-0.12441 1.84545,-0.37324c0.55294,-0.25574 1.02295,-0.60478 1.41001,-1.04714c0.39397,-0.44927 0.69809,-0.96765 0.91236,-1.55516c0.21427,-0.5875 0.3214,-1.20957 0.3214,-1.86619z"/></g></g></svg>