<svg version="1.1" xmlns="http://www.w3.org/2000/svg" xmlns:xlink="http://www.w3.org/1999/xlink" width="86.43104" height="34.91401" viewBox="0,0,86.43104,34.91401"><g transform="translate(-196.78449,-162.543)"><g data-paper-data="{&quot;isPaintingLayer&quot;:true}" fill-rule="nonzero" stroke="#000000" stroke-linejoin="miter" stroke-miterlimit="10" stroke-dasharray="" stroke-dashoffset="0" style="mix-blend-mode: normal"><path d="M252.32404,196.31142c0,0 -32.18058,0 -42.07965,0c-5.39781,0 -12.48472,-0.71582 -12.45984,-9.56146c0.01227,-4.36019 0.03326,-11.77771 0.0389,-14.2114c0.01213,-5.24346 3.27162,-8.99555 8.44886,-8.99555c18.31286,0 60.82325,0 69.58813,0c3.07689,0 6.35508,3.03403 6.35508,6.84936c0,6.46828 0,15.62877 0,19.30356c0,2.90454 -3.42282,6.76109 -6.59341,6.76109c-8.20612,0 -8.98397,0 -8.98397,0" data-paper-data="{&quot;index&quot;:null}" fill="#c2d6ea" stroke-width="2" stroke-linecap="round"/><path d="M228.82518,183.19012c-0.13108,0 -0.2425,-0.04261 -0.33425,-0.1278c-0.0852,-0.0852 -0.1278,-0.19662 -0.1278,-0.33425v-8.24805c0,-0.13108 0.0426,-0.23923 0.1278,-0.32443c0.09175,-0.09175 0.20317,-0.13763 0.33425,-0.13763h2.34956c0.57675,0 1.08794,0.1278 1.53361,0.3834c0.44567,0.2556 0.79301,0.60624 1.04206,1.05191c0.2556,0.44566 0.38341,0.9634 0.38341,1.55326c0,0.57019 -0.12781,1.07812 -0.38341,1.52379c-0.24905,0.43911 -0.5964,0.78645 -1.04206,1.04206c-0.44567,0.24904 -0.95686,0.37357 -1.53361,0.37357h-1.88752v2.78212c0,0.13763 -0.04588,0.24905 -0.13763,0.33425c-0.0852,0.0852 -0.19334,0.1278 -0.32442,0.1278zM229.28724,179.071h1.88752c0.39979,0 0.7537,-0.08848 1.06173,-0.26543c0.31459,-0.17695 0.56036,-0.41945 0.73731,-0.72749c0.17696,-0.31458 0.26543,-0.67177 0.26543,-1.07156c0,-0.41945 -0.08848,-0.78318 -0.26543,-1.09121c-0.17696,-0.31458 -0.42273,-0.56035 -0.73731,-0.73731c-0.30803,-0.18351 -0.66194,-0.27526 -1.06173,-0.27526h-1.88752zM236.81497,183.19012c-0.30803,0 -0.58657,-0.08521 -0.83562,-0.2556c-0.24905,-0.17695 -0.44238,-0.41617 -0.58002,-0.71764c-0.13108,-0.30803 -0.19662,-0.66194 -0.19662,-1.06173v-6.68496c0,-0.13108 0.03933,-0.23922 0.11797,-0.32442c0.0852,-0.0852 0.19334,-0.12781 0.32442,-0.12781c0.13108,0 0.23595,0.04261 0.31459,0.12781c0.0852,0.0852 0.1278,0.19334 0.1278,0.32442v6.68496c0,0.3408 0.06882,0.61606 0.20645,0.82579c0.13763,0.20972 0.31131,0.31458 0.52103,0.31458h0.29492c0.11797,0 0.213,0.0426 0.2851,0.1278c0.07209,0.07865 0.10814,0.18679 0.10814,0.32443c0,0.13108 -0.04915,0.23922 -0.14747,0.32442c-0.0983,0.07865 -0.22611,0.11796 -0.3834,0.11796zM241.21788,183.24908c-0.60296,0 -1.14365,-0.14091 -1.62208,-0.42272c-0.47188,-0.28837 -0.84874,-0.67833 -1.13055,-1.16987c-0.27526,-0.49809 -0.41289,-1.05517 -0.41289,-1.67123c0,-0.62262 0.14091,-1.1797 0.42273,-1.67124c0.28837,-0.49809 0.67832,-0.88805 1.16987,-1.16987c0.49154,-0.28837 1.04862,-0.43256 1.67124,-0.43256c0.61607,0 1.16659,0.14419 1.65158,0.43256c0.49154,0.28181 0.88149,0.67177 1.16987,1.16987c0.28837,0.49154 0.43583,1.04862 0.44239,1.67124l-0.36374,0.28509c0,0.56363 -0.13108,1.07156 -0.39324,1.52378c-0.26216,0.44566 -0.61934,0.79958 -1.07156,1.06172c-0.45222,0.26216 -0.96341,0.39324 -1.53361,0.39324zM241.31619,182.42331c0.45222,0 0.85528,-0.10486 1.20919,-0.31459c0.36046,-0.20972 0.64228,-0.50136 0.84545,-0.87494c0.20972,-0.37357 0.31459,-0.78975 0.31459,-1.24851c0,-0.47188 -0.10486,-0.89133 -0.31459,-1.25835c-0.20317,-0.36702 -0.48499,-0.65866 -0.84545,-0.87493c-0.35391,-0.21628 -0.75697,-0.32443 -1.20919,-0.32443c-0.44567,0 -0.84873,0.10815 -1.20919,0.32443c-0.36046,0.21628 -0.64884,0.50793 -0.86512,0.87493c-0.20972,0.36702 -0.31458,0.78647 -0.31458,1.25835c0,0.45877 0.10486,0.87494 0.31458,1.24851c0.21628,0.37357 0.50466,0.66521 0.86512,0.87494c0.36046,0.20972 0.76352,0.31459 1.20919,0.31459zM244.11797,183.19012c-0.13108,0 -0.23922,-0.03932 -0.32441,-0.11796c-0.0852,-0.0852 -0.1278,-0.19335 -0.1278,-0.32443v-2.01531l0.21628,-0.9241l0.69799,0.17696v2.76245c0,0.13108 -0.04588,0.23923 -0.13763,0.32443c-0.0852,0.07865 -0.19334,0.11796 -0.32442,0.11796zM247.44411,185.98205c-0.06554,0 -0.13763,-0.01638 -0.21628,-0.04915c-0.26216,-0.11796 -0.33425,-0.30476 -0.21628,-0.56036l3.78486,-8.35619c0.11797,-0.24904 0.30476,-0.32113 0.56036,-0.21627c0.26871,0.11141 0.34408,0.2982 0.22611,0.56035l-3.80454,8.35619c-0.07865,0.17695 -0.19007,0.26543 -0.33425,0.26543zM248.74178,182.9935c-0.11797,0.05244 -0.22938,0.06226 -0.33425,0.02949c-0.0983,-0.03932 -0.17695,-0.11797 -0.23594,-0.23594l-2.62483,-5.41678c-0.05244,-0.11796 -0.05899,-0.2261 -0.01966,-0.32442c0.03933,-0.10486 0.11797,-0.18678 0.23594,-0.24577c0.11797,-0.05244 0.2261,-0.05899 0.32441,-0.01966c0.10487,0.03277 0.18351,0.10814 0.23595,0.22611l2.57567,5.41678c0.05899,0.11796 0.07536,0.22939 0.04915,0.33425c-0.01966,0.09831 -0.08848,0.17695 -0.20644,0.23594z" fill="#000000" stroke-width="0.5" stroke-linecap="square"/></g></g></svg>