<svg version="1.1" xmlns="http://www.w3.org/2000/svg" xmlns:xlink="http://www.w3.org/1999/xlink" width="104.43096" height="218.12102" viewBox="0,0,104.43096,218.12102"><g transform="translate(-187.78456,-114.16027)"><g data-paper-data="{&quot;isPaintingLayer&quot;:true}" fill="#b0c3df" fill-rule="nonzero" stroke="#000000" stroke-width="2" stroke-linecap="round" stroke-linejoin="miter" stroke-miterlimit="10" stroke-dasharray="" stroke-dashoffset="0" style="mix-blend-mode: normal"><path d="M275.63813,115.16027c0,0 0.77785,0 8.98398,0c3.17058,0 6.59341,4.78363 6.59341,8.38637c0,4.55816 0,191.21561 0,199.2388c0,4.73249 -3.27819,8.49586 -6.35507,8.49586c-8.76488,0 -69.27528,0 -87.58813,0c-5.17724,0 -8.43673,-4.65403 -8.44886,-11.15796c-0.00564,-3.01872 -0.02663,-187.51422 -0.0389,-192.92255c-0.02488,-10.97202 7.06203,-11.85991 12.45985,-11.85991c9.89908,0 60.07965,0 60.07965,0" data-paper-data="{&quot;index&quot;:null}"/></g></g></svg>