<svg version="1.1" xmlns="http://www.w3.org/2000/svg" xmlns:xlink="http://www.w3.org/1999/xlink" width="17.34519" height="24.77886" viewBox="0,0,17.34519,24.77886"><g transform="translate(-231.3274,-167.61057)"><g data-paper-data="{&quot;isPaintingLayer&quot;:true}" fill="#ffffff" fill-rule="nonzero" stroke="none" stroke-width="1" stroke-linecap="square" stroke-linejoin="miter" stroke-miterlimit="10" stroke-dasharray="" stroke-dashoffset="0" style="mix-blend-mode: normal"><path d="M248.6726,184.95578c0,1.02986 -0.19699,1.99406 -0.59096,2.89259c-0.39397,0.89854 -0.92618,1.68648 -1.59663,2.36384c-0.67045,0.67045 -1.45494,1.20266 -2.35347,1.59663c-0.89854,0.38706 -1.86273,0.58059 -2.89259,0.58059h-9.91154v-4.95577h9.91154c0.34559,0 0.66699,-0.06221 0.9642,-0.18662c0.30412,-0.13132 0.56677,-0.30758 0.78795,-0.52875c0.22809,-0.22809 0.40434,-0.49074 0.52875,-0.78795c0.13132,-0.30412 0.19699,-0.62897 0.19699,-0.97457c0,-0.34559 -0.06566,-0.66699 -0.19699,-0.9642c-0.12441,-0.29721 -0.30066,-0.5564 -0.52875,-0.77758c-0.22118,-0.22809 -0.48383,-0.40434 -0.78795,-0.52875c-0.29721,-0.13132 -0.61861,-0.19699 -0.9642,-0.19699h-6.74938v-4.95577h6.74938c0.34559,0 0.66699,-0.06221 0.9642,-0.18662c0.30412,-0.13132 0.56677,-0.30758 0.78795,-0.52875c0.22809,-0.22809 0.40434,-0.49419 0.52875,-0.79831c0.13132,-0.30412 0.19699,-0.62897 0.19699,-0.97457c0,-0.34559 -0.06566,-0.66699 -0.19699,-0.9642c-0.12441,-0.30412 -0.30066,-0.56677 -0.52875,-0.78795c-0.22118,-0.22809 -0.48383,-0.40434 -0.78795,-0.52875c-0.29721,-0.12441 -0.61861,-0.18662 -0.9642,-0.18662h-9.91154v-4.96614h9.91154c1.02986,0 1.99406,0.19699 2.89259,0.59096c0.89854,0.39397 1.68303,0.92964 2.35347,1.607c0.67045,0.67045 1.20266,1.45494 1.59663,2.35347c0.39397,0.89854 0.59096,1.85928 0.59096,2.88223c0,0.90545 -0.16934,1.79016 -0.50802,2.65414c-0.33177,0.85706 -0.80177,1.62428 -1.41001,2.30163c0.60824,0.67736 1.07824,1.44802 1.41001,2.312c0.33868,0.85706 0.50802,1.73832 0.50802,2.64377z"/></g></g></svg>