<svg version="1.1" xmlns="http://www.w3.org/2000/svg" xmlns:xlink="http://www.w3.org/1999/xlink" width="19.24249" height="25.48385" viewBox="0,0,19.24249,25.48385"><g transform="translate(-230.37875,-167.25807)"><g data-paper-data="{&quot;isPaintingLayer&quot;:true}" fill="#ffffff" fill-rule="nonzero" stroke="none" stroke-width="1" stroke-linecap="square" stroke-linejoin="miter" stroke-miterlimit="10" stroke-dasharray="" stroke-dashoffset="0" style="mix-blend-mode: normal"><path d="M249.62125,177.06593c0,1.58972 -0.15897,3.14487 -0.47692,4.66547c-0.31794,1.51369 -0.77758,2.94443 -1.37891,4.29224c-0.59442,1.3478 -1.32361,2.59193 -2.18759,3.73238c-0.86398,1.14045 -1.842,2.13575 -2.93406,2.9859h-6.68718c0.705,-0.44927 1.38582,-0.95037 2.04244,-1.50332c0.65662,-0.55294 1.27869,-1.1439 1.86619,-1.77288c0.59442,-0.63589 1.1439,-1.30633 1.64847,-2.01134c0.51147,-0.705 0.9642,-1.43075 1.35817,-2.17722c-0.51147,0.33177 -1.05405,0.61861 -1.62773,0.86052c-0.57368,0.235 -1.1681,0.3525 -1.78325,0.3525c-1.4031,0 -2.6645,-0.23155 -3.78422,-0.69464c-1.1128,-0.47 -2.06663,-1.12317 -2.86149,-1.9595c-0.78795,-0.83633 -1.39273,-1.82817 -1.81435,-2.97553c-0.41471,-1.15427 -0.62206,-2.41913 -0.62206,-3.79458c0,-1.33398 0.23846,-2.59539 0.71537,-3.78422c0.47692,-1.19574 1.13354,-2.23943 1.96987,-3.13105c0.84324,-0.89162 1.842,-1.59663 2.99627,-2.11501c1.15427,-0.51839 2.40531,-0.77758 3.75311,-0.77758c1.35472,0 2.62649,0.25919 3.81532,0.77758c1.19574,0.51839 2.23597,1.22339 3.12068,2.11501c0.89162,0.89162 1.59317,1.93531 2.10465,3.13105c0.51147,1.18883 0.76721,2.45024 0.76721,3.78422zM244.32334,177.06593c0,-0.62897 -0.11059,-1.23721 -0.33177,-1.82472c-0.22118,-0.5875 -0.53221,-1.10589 -0.93309,-1.55516c-0.39397,-0.44927 -0.86743,-0.80523 -1.42038,-1.06787c-0.55294,-0.26956 -1.16118,-0.40434 -1.82472,-0.40434c-0.68427,0 -1.29942,0.13132 -1.84545,0.39397c-0.54603,0.25574 -1.01604,0.60478 -1.41001,1.04714c-0.38706,0.43544 -0.68427,0.94692 -0.89162,1.53442c-0.20735,0.5875 -0.31103,1.21302 -0.31103,1.87656c0,0.65662 0.10368,1.27869 0.31103,1.86619c0.20735,0.58059 0.50456,1.08861 0.89162,1.52405c0.39397,0.43544 0.86398,0.78103 1.41001,1.03677c0.54603,0.25574 1.16118,0.38361 1.84545,0.38361c0.67736,0 1.29596,-0.12787 1.85582,-0.38361c0.55986,-0.25574 1.03332,-0.60133 1.42038,-1.03677c0.39397,-0.43544 0.69809,-0.94346 0.91236,-1.52405c0.21427,-0.5875 0.3214,-1.20957 0.3214,-1.86619z"/></g></g></svg>