<svg version="1.1" xmlns="http://www.w3.org/2000/svg" xmlns:xlink="http://www.w3.org/1999/xlink" width="592.88202" height="455.71728" viewBox="0,0,592.88202,455.71728"><g transform="translate(56.34513,46.75601)"><g data-paper-data="{&quot;isPaintingLayer&quot;:true}" fill-rule="nonzero" stroke="none" stroke-width="0.5" stroke-linecap="butt" stroke-linejoin="miter" stroke-miterlimit="10" stroke-dasharray="" stroke-dashoffset="0" style="mix-blend-mode: normal"><path d="M53.03149,46.95741c0,-0.70829 0.57419,-1.28248 1.28248,-1.28248c0.70829,0 1.28248,0.57419 1.28248,1.28248c0,0.70829 -0.57419,1.28248 -1.28248,1.28248c-0.70829,0 -1.28248,-0.57419 -1.28248,-1.28248z" fill="#ffffff"/><path d="M284.10885,90.09186c0,-0.70829 0.57419,-1.28248 1.28248,-1.28248c0.70829,0 1.28248,0.57419 1.28248,1.28248c0,0.70829 -0.57419,1.28248 -1.28248,1.28248c-0.70829,0 -1.28248,-0.57419 -1.28248,-1.28248z" fill="#ffffff"/><path d="M154.70553,151.71249c0,-0.70829 0.57419,-1.28248 1.28248,-1.28248c0.70829,0 1.28248,0.57419 1.28248,1.28248c0,0.70829 -0.57419,1.28248 -1.28248,1.28248c-0.70829,0 -1.28248,-0.57419 -1.28248,-1.28248z" fill="#ffffff"/><path d="M407.35012,211.7926c0,-0.70829 0.57419,-1.28248 1.28248,-1.28248c0.70829,0 1.28248,0.57419 1.28248,1.28248c0,0.70829 -0.57419,1.28248 -1.28248,1.28248c-0.70829,0 -1.28248,-0.57419 -1.28248,-1.28248z" fill="#ffffff"/><path d="M207.08307,51.57896c0,-0.70829 0.57419,-1.28248 1.28248,-1.28248c0.70829,0 1.28248,0.57419 1.28248,1.28248c0,0.70829 -0.57419,1.28248 -1.28248,1.28248c-0.70829,0 -1.28248,-0.57419 -1.28248,-1.28248z" fill="#ffffff"/><path d="M85.38232,274.95375c0,-0.70829 0.57419,-1.28248 1.28248,-1.28248c0.70829,0 1.28248,0.57419 1.28248,1.28248c0,0.70829 -0.57419,1.28248 -1.28248,1.28248c-0.70829,0 -1.28248,-0.57419 -1.28248,-1.28248z" fill="#ffffff"/><path d="M271.78473,234.90034c0,-0.70829 0.57419,-1.28248 1.28248,-1.28248c0.70829,0 1.28248,0.57419 1.28248,1.28248c0,0.70829 -0.57419,1.28248 -1.28248,1.28248c-0.70829,0 -1.28248,-0.57419 -1.28248,-1.28248z" fill="#ffffff"/><path d="M57.65303,179.44177c0,-0.70829 0.57419,-1.28248 1.28248,-1.28248c0.70829,0 1.28248,0.57419 1.28248,1.28248c0,0.70829 -0.57419,1.28248 -1.28248,1.28248c-0.70829,0 -1.28248,-0.57419 -1.28248,-1.28248z" fill="#ffffff"/><path d="M405.8096,311.92613c0,-0.70829 0.57419,-1.28248 1.28248,-1.28248c0.70829,0 1.28248,0.57419 1.28248,1.28248c0,0.70829 -0.57419,1.28248 -1.28248,1.28248c-0.70829,0 -1.28248,-0.57419 -1.28248,-1.28248z" fill="#ffffff"/><path d="M160.86759,217.95467c0,-0.70829 0.57419,-1.28248 1.28248,-1.28248c0.70829,0 1.28248,0.57419 1.28248,1.28248c0,0.70829 -0.57419,1.28248 -1.28248,1.28248c-0.70829,0 -1.28248,-0.57419 -1.28248,-1.28248z" fill="#ffffff"/><path d="M194.75894,310.38562c0,-0.70829 0.57419,-1.28248 1.28248,-1.28248c0.70829,0 1.28248,0.57419 1.28248,1.28248c0,0.70829 -0.57419,1.28248 -1.28248,1.28248c-0.70829,0 -1.28248,-0.57419 -1.28248,-1.28248z" fill="#ffffff"/><path d="M40.70736,348.89851c0,-0.70829 0.57419,-1.28248 1.28248,-1.28248c0.70829,0 1.28248,0.57419 1.28248,1.28248c0,0.70829 -0.57419,1.28248 -1.28248,1.28248c-0.70829,0 -1.28248,-0.57419 -1.28248,-1.28248z" fill="#ffffff"/><path d="M401.18805,105.49702c0,-0.70829 0.57419,-1.28248 1.28248,-1.28248c0.70829,0 1.28248,0.57419 1.28248,1.28248c0,0.70829 -0.57419,1.28248 -1.28248,1.28248c-0.70829,0 -1.28248,-0.57419 -1.28248,-1.28248z" fill="#ffffff"/><path d="M271.78473,144.00991c0,-0.70829 0.57419,-1.28248 1.28248,-1.28248c0.70829,0 1.28248,0.57419 1.28248,1.28248c0,0.70829 -0.57419,1.28248 -1.28248,1.28248c-0.70829,0 -1.28248,-0.57419 -1.28248,-1.28248z" fill="#ffffff"/><path d="M345.72949,40.79535c0,-0.70829 0.57419,-1.28248 1.28248,-1.28248c0.70829,0 1.28248,0.57419 1.28248,1.28248c0,0.70829 -0.57419,1.28248 -1.28248,1.28248c-0.70829,0 -1.28248,-0.57419 -1.28248,-1.28248z" fill="#ffffff"/><path d="M88.46335,80.84876c0,-0.70829 0.57419,-1.28248 1.28248,-1.28248c0.70829,0 1.28248,0.57419 1.28248,1.28248c0,0.70829 -0.57419,1.28248 -1.28248,1.28248c-0.70829,0 -1.28248,-0.57419 -1.28248,-1.28248z" fill="#ffffff"/><path d="M316.45969,288.8184c0,-0.70829 0.57419,-1.28248 1.28248,-1.28248c0.70829,0 1.28248,0.57419 1.28248,1.28248c0,0.70829 -0.57419,1.28248 -1.28248,1.28248c-0.70829,0 -1.28248,-0.57419 -1.28248,-1.28248z" fill="#ffffff"/><path d="M448.94404,262.62962c0,-0.70829 0.57419,-1.28248 1.28248,-1.28248c0.70829,0 1.28248,0.57419 1.28248,1.28248c0,0.70829 -0.57419,1.28248 -1.28248,1.28248c-0.70829,0 -1.28248,-0.57419 -1.28248,-1.28248z" fill="#ffffff"/><path d="M416.59321,42.33587c0,-0.70829 0.57419,-1.28248 1.28248,-1.28248c0.70829,0 1.28248,0.57419 1.28248,1.28248c0,0.70829 -0.57419,1.28248 -1.28248,1.28248c-0.70829,0 -1.28248,-0.57419 -1.28248,-1.28248z" fill="#ffffff"/><path d="M123.89521,221.0357c0,-0.70829 0.57419,-1.28248 1.28248,-1.28248c0.70829,0 1.28248,0.57419 1.28248,1.28248c0,0.70829 -0.57419,1.28248 -1.28248,1.28248c-0.70829,0 -1.28248,-0.57419 -1.28248,-1.28248z" fill="#ffffff"/><path d="M22.22117,108.57805c0,-0.70829 0.57419,-1.28248 1.28248,-1.28248c0.70829,0 1.28248,0.57419 1.28248,1.28248c0,0.70829 -0.57419,1.28248 -1.28248,1.28248c-0.70829,0 -1.28248,-0.57419 -1.28248,-1.28248z" fill="#ffffff"/><path d="M36.08581,245.68395c0,-0.70829 0.57419,-1.28248 1.28248,-1.28248c0.70829,0 1.28248,0.57419 1.28248,1.28248c0,0.70829 -0.57419,1.28248 -1.28248,1.28248c-0.70829,0 -1.28248,-0.57419 -1.28248,-1.28248z" fill="#ffffff"/><path d="M148.54347,28.47123c0,-0.70829 0.57419,-1.28248 1.28248,-1.28248c0.70829,0 1.28248,0.57419 1.28248,1.28248c0,0.70829 -0.57419,1.28248 -1.28248,1.28248c-0.70829,0 -1.28248,-0.57419 -1.28248,-1.28248z" fill="#ffffff"/><path d="M199.38049,157.87455c0,-0.70829 0.57419,-1.28248 1.28248,-1.28248c0.70829,0 1.28248,0.57419 1.28248,1.28248c0,0.70829 -0.57419,1.28248 -1.28248,1.28248c-0.70829,0 -1.28248,-0.57419 -1.28248,-1.28248z" fill="#ffffff"/><path d="M154.70553,100.87547c0,-0.70829 0.57419,-1.28248 1.28248,-1.28248c0.70829,0 1.28248,0.57419 1.28248,1.28248c0,0.70829 -0.57419,1.28248 -1.28248,1.28248c-0.70829,0 -1.28248,-0.57419 -1.28248,-1.28248z" fill="#ffffff"/><path d="M227.10977,234.90034c0,-0.70829 0.57419,-1.28248 1.28248,-1.28248c0.70829,0 1.28248,0.57419 1.28248,1.28248c0,0.70829 -0.57419,1.28248 -1.28248,1.28248c-0.70829,0 -1.28248,-0.57419 -1.28248,-1.28248z" fill="#ffffff"/><path d="M251.75802,305.76407c0,-0.70829 0.57419,-1.28248 1.28248,-1.28248c0.70829,0 1.28248,0.57419 1.28248,1.28248c0,0.70829 -0.57419,1.28248 -1.28248,1.28248c-0.70829,0 -1.28248,-0.57419 -1.28248,-1.28248z" fill="#ffffff"/><path d="M364.21568,258.00808c0,-0.70829 0.57419,-1.28248 1.28248,-1.28248c0.70829,0 1.28248,0.57419 1.28248,1.28248c0,0.70829 -0.57419,1.28248 -1.28248,1.28248c-0.70829,0 -1.28248,-0.57419 -1.28248,-1.28248z" fill="#ffffff"/><path d="M248.67699,174.82023c0,-0.70829 0.57419,-1.28248 1.28248,-1.28248c0.70829,0 1.28248,0.57419 1.28248,1.28248c0,0.70829 -0.57419,1.28248 -1.28248,1.28248c-0.70829,0 -1.28248,-0.57419 -1.28248,-1.28248z" fill="#ffffff"/><path d="M458.18714,150.17197c0,-0.70829 0.57419,-1.28248 1.28248,-1.28248c0.70829,0 1.28248,0.57419 1.28248,1.28248c0,0.70829 -0.57419,1.28248 -1.28248,1.28248c-0.70829,0 -1.28248,-0.57419 -1.28248,-1.28248z" fill="#ffffff"/><path d="M282.56834,23.84968c0,-0.70829 0.57419,-1.28248 1.28248,-1.28248c0.70829,0 1.28248,0.57419 1.28248,1.28248c0,0.70829 -0.57419,1.28248 -1.28248,1.28248c-0.70829,0 -1.28248,-0.57419 -1.28248,-1.28248z" fill="#ffffff"/><path d="M211.70461,107.03753c0,-0.70829 0.57419,-1.28248 1.28248,-1.28248c0.70829,0 1.28248,0.57419 1.28248,1.28248c0,0.70829 -0.57419,1.28248 -1.28248,1.28248c-0.70829,0 -1.28248,-0.57419 -1.28248,-1.28248z" fill="#ffffff"/><path d="M17.59962,16.1471c0,-0.70829 0.57419,-1.28248 1.28248,-1.28248c0.70829,0 1.28248,0.57419 1.28248,1.28248c0,0.70829 -0.57419,1.28248 -1.28248,1.28248c-0.70829,0 -1.28248,-0.57419 -1.28248,-1.28248z" fill="#ffffff"/><path d="M110.03057,9.98504c0,-0.70829 0.57419,-1.28248 1.28248,-1.28248c0.70829,0 1.28248,0.57419 1.28248,1.28248c0,0.70829 -0.57419,1.28248 -1.28248,1.28248c-0.70829,0 -1.28248,-0.57419 -1.28248,-1.28248z" fill="#ffffff"/><path d="M165.48914,273.41324c0,-0.70829 0.57419,-1.28248 1.28248,-1.28248c0.70829,0 1.28248,0.57419 1.28248,1.28248c0,0.70829 -0.57419,1.28248 -1.28248,1.28248c-0.70829,0 -1.28248,-0.57419 -1.28248,-1.28248z" fill="#ffffff"/><path d="M25.3022,187.14435c0,-0.70829 0.57419,-1.28248 1.28248,-1.28248c0.70829,0 1.28248,0.57419 1.28248,1.28248c0,0.70829 -0.57419,1.28248 -1.28248,1.28248c-0.70829,0 -1.28248,-0.57419 -1.28248,-1.28248z" fill="#ffffff"/><path d="M103.86851,351.97954c0,-0.70829 0.57419,-1.28248 1.28248,-1.28248c0.70829,0 1.28248,0.57419 1.28248,1.28248c0,0.70829 -0.57419,1.28248 -1.28248,1.28248c-0.70829,0 -1.28248,-0.57419 -1.28248,-1.28248z" fill="#ffffff"/><path d="M338.02691,123.98321c0,-0.70829 0.57419,-1.28248 1.28248,-1.28248c0.70829,0 1.28248,0.57419 1.28248,1.28248c0,0.70829 -0.57419,1.28248 -1.28248,1.28248c-0.70829,0 -1.28248,-0.57419 -1.28248,-1.28248z" fill="#ffffff"/><path d="M330.32433,182.52281c0,-0.70829 0.57419,-1.28248 1.28248,-1.28248c0.70829,0 1.28248,0.57419 1.28248,1.28248c0,0.70829 -0.57419,1.28248 -1.28248,1.28248c-0.70829,0 -1.28248,-0.57419 -1.28248,-1.28248z" fill="#ffffff"/><path d="M370.37774,335.03387c0,-0.70829 0.57419,-1.28248 1.28248,-1.28248c0.70829,0 1.28248,0.57419 1.28248,1.28248c0,0.70829 -0.57419,1.28248 -1.28248,1.28248c-0.70829,0 -1.28248,-0.57419 -1.28248,-1.28248z" fill="#ffffff"/><path d="M225.56926,347.35799c0,-0.70829 0.57419,-1.28248 1.28248,-1.28248c0.70829,0 1.28248,0.57419 1.28248,1.28248c0,0.70829 -0.57419,1.28248 -1.28248,1.28248c-0.70829,0 -1.28248,-0.57419 -1.28248,-1.28248z" fill="#ffffff"/><path d="M324.16227,353.52006c0,-0.70829 0.57419,-1.28248 1.28248,-1.28248c0.70829,0 1.28248,0.57419 1.28248,1.28248c0,0.70829 -0.57419,1.28248 -1.28248,1.28248c-0.70829,0 -1.28248,-0.57419 -1.28248,-1.28248z" fill="#ffffff"/><path d="M139.30037,338.1149c0,-0.70829 0.57419,-1.28248 1.28248,-1.28248c0.70829,0 1.28248,0.57419 1.28248,1.28248c0,0.70829 -0.57419,1.28248 -1.28248,1.28248c-0.70829,0 -1.28248,-0.57419 -1.28248,-1.28248z" fill="#ffffff"/><path d="M36.08581,287.27788c0,-0.70829 0.57419,-1.28248 1.28248,-1.28248c0.70829,0 1.28248,0.57419 1.28248,1.28248c0,0.70829 -0.57419,1.28248 -1.28248,1.28248c-0.70829,0 -1.28248,-0.57419 -1.28248,-1.28248z" fill="#ffffff"/><path d="M-14.75121,285.73736c0,-0.70829 0.57419,-1.28248 1.28248,-1.28248c0.70829,0 1.28248,0.57419 1.28248,1.28248c0,0.70829 -0.57419,1.28248 -1.28248,1.28248c-0.70829,0 -1.28248,-0.57419 -1.28248,-1.28248z" fill="#ffffff"/><path d="M-56.34513,151.71249c0,-0.70829 0.57419,-1.28248 1.28248,-1.28248c0.70829,0 1.28248,0.57419 1.28248,1.28248c0,0.70829 -0.57419,1.28248 -1.28248,1.28248c-0.70829,0 -1.28248,-0.57419 -1.28248,-1.28248z" fill="#ffffff"/><path d="M-51.72359,56.20051c0,-0.70829 0.57419,-1.28248 1.28248,-1.28248c0.70829,0 1.28248,0.57419 1.28248,1.28248c0,0.70829 -0.57419,1.28248 -1.28248,1.28248c-0.70829,0 -1.28248,-0.57419 -1.28248,-1.28248z" fill="#ffffff"/><path d="M60.73407,-43.93301c0,-0.70829 0.57419,-1.28248 1.28248,-1.28248c0.70829,0 1.28248,0.57419 1.28248,1.28248c0,0.70829 -0.57419,1.28248 -1.28248,1.28248c-0.70829,0 -1.28248,-0.57419 -1.28248,-1.28248z" fill="#ffffff"/><path d="M190.13739,-45.47353c0,-0.70829 0.57419,-1.28248 1.28248,-1.28248c0.70829,0 1.28248,0.57419 1.28248,1.28248c0,0.70829 -0.57419,1.28248 -1.28248,1.28248c-0.70829,0 -1.28248,-0.57419 -1.28248,-1.28248z" fill="#ffffff"/><path d="M231.73132,9.98504c0,-0.70829 0.57419,-1.28248 1.28248,-1.28248c0.70829,0 1.28248,0.57419 1.28248,1.28248c0,0.70829 -0.57419,1.28248 -1.28248,1.28248c-0.70829,0 -1.28248,-0.57419 -1.28248,-1.28248z" fill="#ffffff"/><path d="M130.05728,-22.36579c0,-0.70829 0.57419,-1.28248 1.28248,-1.28248c0.70829,0 1.28248,0.57419 1.28248,1.28248c0,0.70829 -0.57419,1.28248 -1.28248,1.28248c-0.70829,0 -1.28248,-0.57419 -1.28248,-1.28248z" fill="#ffffff"/><path d="M304.13556,-0.79857c0,-0.70829 0.57419,-1.28248 1.28248,-1.28248c0.70829,0 1.28248,0.57419 1.28248,1.28248c0,0.70829 -0.57419,1.28248 -1.28248,1.28248c-0.70829,0 -1.28248,-0.57419 -1.28248,-1.28248z" fill="#ffffff"/><path d="M257.92009,-37.77095c0,-0.70829 0.57419,-1.28248 1.28248,-1.28248c0.70829,0 1.28248,0.57419 1.28248,1.28248c0,0.70829 -0.57419,1.28248 -1.28248,1.28248c-0.70829,0 -1.28248,-0.57419 -1.28248,-1.28248z" fill="#ffffff"/><path d="M342.64846,2.28246c0,-0.70829 0.57419,-1.28248 1.28248,-1.28248c0.70829,0 1.28248,0.57419 1.28248,1.28248c0,0.70829 -0.57419,1.28248 -1.28248,1.28248c-0.70829,0 -1.28248,-0.57419 -1.28248,-1.28248z" fill="#ffffff"/><path d="M364.21568,-40.85198c0,-0.70829 0.57419,-1.28248 1.28248,-1.28248c0.70829,0 1.28248,0.57419 1.28248,1.28248c0,0.70829 -0.57419,1.28248 -1.28248,1.28248c-0.70829,0 -1.28248,-0.57419 -1.28248,-1.28248z" fill="#ffffff"/><path d="M384.24238,-5.42012c0,-0.70829 0.57419,-1.28248 1.28248,-1.28248c0.70829,0 1.28248,0.57419 1.28248,1.28248c0,0.70829 -0.57419,1.28248 -1.28248,1.28248c-0.70829,0 -1.28248,-0.57419 -1.28248,-1.28248z" fill="#ffffff"/><path d="M472.05178,-10.04167c0,-0.70829 0.57419,-1.28248 1.28248,-1.28248c0.70829,0 1.28248,0.57419 1.28248,1.28248c0,0.70829 -0.57419,1.28248 -1.28248,1.28248c-0.70829,0 -1.28248,-0.57419 -1.28248,-1.28248z" fill="#ffffff"/><path d="M458.18714,33.09277c0,-0.70829 0.57419,-1.28248 1.28248,-1.28248c0.70829,0 1.28248,0.57419 1.28248,1.28248c0,0.70829 -0.57419,1.28248 -1.28248,1.28248c-0.70829,0 -1.28248,-0.57419 -1.28248,-1.28248z" fill="#ffffff"/><path d="M415.0527,-22.36579c0,-0.70829 0.57419,-1.28248 1.28248,-1.28248c0.70829,0 1.28248,0.57419 1.28248,1.28248c0,0.70829 -0.57419,1.28248 -1.28248,1.28248c-0.70829,0 -1.28248,-0.57419 -1.28248,-1.28248z" fill="#ffffff"/><path d="M473.5923,54.66c0,-0.70829 0.57419,-1.28248 1.28248,-1.28248c0.70829,0 1.28248,0.57419 1.28248,1.28248c0,0.70829 -0.57419,1.28248 -1.28248,1.28248c-0.70829,0 -1.28248,-0.57419 -1.28248,-1.28248z" fill="#ffffff"/><path d="M447.40353,80.84876c0,-0.70829 0.57419,-1.28248 1.28248,-1.28248c0.70829,0 1.28248,0.57419 1.28248,1.28248c0,0.70829 -0.57419,1.28248 -1.28248,1.28248c-0.70829,0 -1.28248,-0.57419 -1.28248,-1.28248z" fill="#ffffff"/><path d="M467.43023,97.79444c0,-0.70829 0.57419,-1.28248 1.28248,-1.28248c0.70829,0 1.28248,0.57419 1.28248,1.28248c0,0.70829 -0.57419,1.28248 -1.28248,1.28248c-0.70829,0 -1.28248,-0.57419 -1.28248,-1.28248z" fill="#ffffff"/><path d="M404.26909,165.57713c0,-0.70829 0.57419,-1.28248 1.28248,-1.28248c0.70829,0 1.28248,0.57419 1.28248,1.28248c0,0.70829 -0.57419,1.28248 -1.28248,1.28248c-0.70829,0 -1.28248,-0.57419 -1.28248,-1.28248z" fill="#ffffff"/><path d="M456.64662,204.09003c0,-0.70829 0.57419,-1.28248 1.28248,-1.28248c0.70829,0 1.28248,0.57419 1.28248,1.28248c0,0.70829 -0.57419,1.28248 -1.28248,1.28248c-0.70829,0 -1.28248,-0.57419 -1.28248,-1.28248z" fill="#ffffff"/><path d="M478.21384,291.89943c0,-0.70829 0.57419,-1.28248 1.28248,-1.28248c0.70829,0 1.28248,0.57419 1.28248,1.28248c0,0.70829 -0.57419,1.28248 -1.28248,1.28248c-0.70829,0 -1.28248,-0.57419 -1.28248,-1.28248z" fill="#ffffff"/><path d="M456.64662,322.70974c0,-0.70829 0.57419,-1.28248 1.28248,-1.28248c0.70829,0 1.28248,0.57419 1.28248,1.28248c0,0.70829 -0.57419,1.28248 -1.28248,1.28248c-0.70829,0 -1.28248,-0.57419 -1.28248,-1.28248z" fill="#ffffff"/><path d="M119.27367,294.98046c0,-0.70829 0.57419,-1.28248 1.28248,-1.28248c0.70829,0 1.28248,0.57419 1.28248,1.28248c0,0.70829 -0.57419,1.28248 -1.28248,1.28248c-0.70829,0 -1.28248,-0.57419 -1.28248,-1.28248z" fill="#ffffff"/><path d="M69.97716,108.57805c0,-0.70829 0.57419,-1.28248 1.28248,-1.28248c0.70829,0 1.28248,0.57419 1.28248,1.28248c0,0.70829 -0.57419,1.28248 -1.28248,1.28248c-0.70829,0 -1.28248,-0.57419 -1.28248,-1.28248z" fill="#fff000"/><path d="M34.5453,60.82206c0,-0.70829 0.57419,-1.28248 1.28248,-1.28248c0.70829,0 1.28248,0.57419 1.28248,1.28248c0,0.70829 -0.57419,1.28248 -1.28248,1.28248c-0.70829,0 -1.28248,-0.57419 -1.28248,-1.28248z" fill="#fff000"/><path d="M150.08398,39.25484c0,-0.70829 0.57419,-1.28248 1.28248,-1.28248c0.70829,0 1.28248,0.57419 1.28248,1.28248c0,0.70829 -0.57419,1.28248 -1.28248,1.28248c-0.70829,0 -1.28248,-0.57419 -1.28248,-1.28248z" fill="#fff000"/><path d="M234.81235,211.79261c0,-0.70829 0.57419,-1.28248 1.28248,-1.28248c0.70829,0 1.28248,0.57419 1.28248,1.28248c0,0.70829 -0.57419,1.28248 -1.28248,1.28248c-0.70829,0 -1.28248,-0.57419 -1.28248,-1.28248z" fill="#fff000"/><path d="M319.54072,113.1996c0,-0.70829 0.57419,-1.28248 1.28248,-1.28248c0.70829,0 1.28248,0.57419 1.28248,1.28248c0,0.70829 -0.57419,1.28248 -1.28248,1.28248c-0.70829,0 -1.28248,-0.57419 -1.28248,-1.28248z" fill="#fff000"/><path d="M194.75894,66.98412c0,-0.70829 0.57419,-1.28248 1.28248,-1.28248c0.70829,0 1.28248,0.57419 1.28248,1.28248c0,0.70829 -0.57419,1.28248 -1.28248,1.28248c-0.70829,0 -1.28248,-0.57419 -1.28248,-1.28248z" fill="#fff000"/><path d="M422.75528,248.76498c0,-0.70829 0.57419,-1.28248 1.28248,-1.28248c0.70829,0 1.28248,0.57419 1.28248,1.28248c0,0.70829 -0.57419,1.28248 -1.28248,1.28248c-0.70829,0 -1.28248,-0.57419 -1.28248,-1.28248z" fill="#fff000"/><path d="M110.03057,157.87455c0,-0.70829 0.57419,-1.28248 1.28248,-1.28248c0.70829,0 1.28248,0.57419 1.28248,1.28248c0,0.70829 -0.57419,1.28248 -1.28248,1.28248c-0.70829,0 -1.28248,-0.57419 -1.28248,-1.28248z" fill="#fff000"/><path d="M126.97625,108.57805c0,-0.70829 0.57419,-1.28248 1.28248,-1.28248c0.70829,0 1.28248,0.57419 1.28248,1.28248c0,0.70829 -0.57419,1.28248 -1.28248,1.28248c-0.70829,0 -1.28248,-0.57419 -1.28248,-1.28248z" fill="#fff000"/><path d="M37.62633,142.4694c0,-0.70829 0.57419,-1.28248 1.28248,-1.28248c0.70829,0 1.28248,0.57419 1.28248,1.28248c0,0.70829 -0.57419,1.28248 -1.28248,1.28248c-0.70829,0 -1.28248,-0.57419 -1.28248,-1.28248z" fill="#fff000"/><path d="M237.89338,274.95375c0,-0.70829 0.57419,-1.28248 1.28248,-1.28248c0.70829,0 1.28248,0.57419 1.28248,1.28248c0,0.70829 -0.57419,1.28248 -1.28248,1.28248c-0.70829,0 -1.28248,-0.57419 -1.28248,-1.28248z" fill="#fff000"/><path d="M294.89247,316.54768c0,-0.70829 0.57419,-1.28248 1.28248,-1.28248c0.70829,0 1.28248,0.57419 1.28248,1.28248c0,0.70829 -0.57419,1.28248 -1.28248,1.28248c-0.70829,0 -1.28248,-0.57419 -1.28248,-1.28248z" fill="#fff000"/><path d="M214.81646,188.68487c0,-0.70829 0.57419,-1.28248 1.28248,-1.28248c0.70829,0 1.28248,0.57419 1.28248,1.28248c0,0.70829 -0.57419,1.28248 -1.28248,1.28248c-0.70829,0 -1.28248,-0.57419 -1.28248,-1.28248z" fill="#fff000"/><path d="M378.08032,142.4694c0,-0.70829 0.57419,-1.28248 1.28248,-1.28248c0.70829,0 1.28248,0.57419 1.28248,1.28248c0,0.70829 -0.57419,1.28248 -1.28248,1.28248c-0.70829,0 -1.28248,-0.57419 -1.28248,-1.28248z" fill="#fff000"/><path d="M359.59413,56.20051c0,-0.70829 0.57419,-1.28248 1.28248,-1.28248c0.70829,0 1.28248,0.57419 1.28248,1.28248c0,0.70829 -0.57419,1.28248 -1.28248,1.28248c-0.70829,0 -1.28248,-0.57419 -1.28248,-1.28248z" fill="#fff000"/><path d="M316.45969,228.73828c0,-0.70829 0.57419,-1.28248 1.28248,-1.28248c0.70829,0 1.28248,0.57419 1.28248,1.28248c0,0.70829 -0.57419,1.28248 -1.28248,1.28248c-0.70829,0 -1.28248,-0.57419 -1.28248,-1.28248z" fill="#fff000"/><path d="M180.8943,273.41324c0,-0.70829 0.57419,-1.28248 1.28248,-1.28248c0.70829,0 1.28248,0.57419 1.28248,1.28248c0,0.70829 -0.57419,1.28248 -1.28248,1.28248c-0.70829,0 -1.28248,-0.57419 -1.28248,-1.28248z" fill="#fff000"/><path d="M0.65395,350.43903c0,-0.70829 0.57419,-1.28248 1.28248,-1.28248c0.70829,0 1.28248,0.57419 1.28248,1.28248c0,0.70829 -0.57419,1.28248 -1.28248,1.28248c-0.70829,0 -1.28248,-0.57419 -1.28248,-1.28248z" fill="#fff000"/><path d="M131.59779,399.73553c0,-0.70829 0.57419,-1.28248 1.28248,-1.28248c0.70829,0 1.28248,0.57419 1.28248,1.28248c0,0.70829 -0.57419,1.28248 -1.28248,1.28248c-0.70829,0 -1.28248,-0.57419 -1.28248,-1.28248z" fill="#fff000"/><path d="M-31.69688,316.54768c0,-0.70829 0.57419,-1.28248 1.28248,-1.28248c0.70829,0 1.28248,0.57419 1.28248,1.28248c0,0.70829 -0.57419,1.28248 -1.28248,1.28248c-0.70829,0 -1.28248,-0.57419 -1.28248,-1.28248z" fill="#fff000"/><path d="M-56.34513,202.54951c0,-0.70829 0.57419,-1.28248 1.28248,-1.28248c0.70829,0 1.28248,0.57419 1.28248,1.28248c0,0.70829 -0.57419,1.28248 -1.28248,1.28248c-0.70829,0 -1.28248,-0.57419 -1.28248,-1.28248z" fill="#fff000"/><path d="M-31.69688,108.57805c0,-0.70829 0.57419,-1.28248 1.28248,-1.28248c0.70829,0 1.28248,0.57419 1.28248,1.28248c0,0.70829 -0.57419,1.28248 -1.28248,1.28248c-0.70829,0 -1.28248,-0.57419 -1.28248,-1.28248z" fill="#fff000"/><path d="M60.73407,77.76773c0,-0.70829 0.57419,-1.28248 1.28248,-1.28248c0.70829,0 1.28248,0.57419 1.28248,1.28248c0,0.70829 -0.57419,1.28248 -1.28248,1.28248c-0.70829,0 -1.28248,-0.57419 -1.28248,-1.28248z" fill="#fff000"/><path d="M-22.45379,193.30642c0,-0.70829 0.57419,-1.28248 1.28248,-1.28248c0.70829,0 1.28248,0.57419 1.28248,1.28248c0,0.70829 -0.57419,1.28248 -1.28248,1.28248c-0.70829,0 -1.28248,-0.57419 -1.28248,-1.28248z" fill="#fff000"/><path d="M333.40536,153.25301c0,-0.70829 0.57419,-1.28248 1.28248,-1.28248c0.70829,0 1.28248,0.57419 1.28248,1.28248c0,0.70829 -0.57419,1.28248 -1.28248,1.28248c-0.70829,0 -1.28248,-0.57419 -1.28248,-1.28248z" fill="#fff000"/><path d="M190.13739,96.25392c0,-0.70829 0.57419,-1.28248 1.28248,-1.28248c0.70829,0 1.28248,0.57419 1.28248,1.28248c0,0.70829 -0.57419,1.28248 -1.28248,1.28248c-0.70829,0 -1.28248,-0.57419 -1.28248,-1.28248z" fill="#fff000"/><path d="M297.9735,188.68487c0,-0.70829 0.57419,-1.28248 1.28248,-1.28248c0.70829,0 1.28248,0.57419 1.28248,1.28248c0,0.70829 -0.57419,1.28248 -1.28248,1.28248c-0.70829,0 -1.28248,-0.57419 -1.28248,-1.28248z" fill="#fff000"/><path d="M243.45232,73.94235c0,-0.70829 0.57419,-1.28248 1.28248,-1.28248c0.70829,0 1.28248,0.57419 1.28248,1.28248c0,0.70829 -0.57419,1.28248 -1.28248,1.28248c-0.70829,0 -1.28248,-0.57419 -1.28248,-1.28248z" fill="#fff000"/><path d="M346.05067,84.20219c0,-0.70829 0.57419,-1.28248 1.28248,-1.28248c0.70829,0 1.28248,0.57419 1.28248,1.28248c0,0.70829 -0.57419,1.28248 -1.28248,1.28248c-0.70829,0 -1.28248,-0.57419 -1.28248,-1.28248z" fill="#fff000"/><path d="M187.02322,24.69514c0,-0.70829 0.57419,-1.28248 1.28248,-1.28248c0.70829,0 1.28248,0.57419 1.28248,1.28248c0,0.70829 -0.57419,1.28248 -1.28248,1.28248c-0.70829,0 -1.28248,-0.57419 -1.28248,-1.28248z" fill="#fff000"/><path d="M111.10044,43.16285c0,-0.70829 0.57419,-1.28248 1.28248,-1.28248c0.70829,0 1.28248,0.57419 1.28248,1.28248c0,0.70829 -0.57419,1.28248 -1.28248,1.28248c-0.70829,0 -1.28248,-0.57419 -1.28248,-1.28248z" fill="#fff000"/><path d="M361.44042,201.16431c0,-0.70829 0.57419,-1.28248 1.28248,-1.28248c0.70829,0 1.28248,0.57419 1.28248,1.28248c0,0.70829 -0.57419,1.28248 -1.28248,1.28248c-0.70829,0 -1.28248,-0.57419 -1.28248,-1.28248z" fill="#fff000"/><path d="M438.38918,127.29349c0,-0.70829 0.57419,-1.28248 1.28248,-1.28248c0.70829,0 1.28248,0.57419 1.28248,1.28248c0,0.70829 -0.57419,1.28248 -1.28248,1.28248c-0.70829,0 -1.28248,-0.57419 -1.28248,-1.28248z" fill="#fff000"/><path d="M415.81755,18.53924c0,-0.70829 0.57419,-1.28248 1.28248,-1.28248c0.70829,0 1.28248,0.57419 1.28248,1.28248c0,0.70829 -0.57419,1.28248 -1.28248,1.28248c-0.70829,0 -1.28248,-0.57419 -1.28248,-1.28248z" fill="#fff000"/><path d="M442.49312,342.75003c0,-0.70829 0.57419,-1.28248 1.28248,-1.28248c0.70829,0 1.28248,0.57419 1.28248,1.28248c0,0.70829 -0.57419,1.28248 -1.28248,1.28248c-0.70829,0 -1.28248,-0.57419 -1.28248,-1.28248z" fill="#fff000"/><path d="M353.23255,301.71069c0,-0.70829 0.57419,-1.28248 1.28248,-1.28248c0.70829,0 1.28248,0.57419 1.28248,1.28248c0,0.70829 -0.57419,1.28248 -1.28248,1.28248c-0.70829,0 -1.28248,-0.57419 -1.28248,-1.28248z" fill="#fff000"/><path d="M533.97193,282.89701c0,-0.70829 0.57419,-1.28248 1.28248,-1.28248c0.70829,0 1.28248,0.57419 1.28248,1.28248c0,0.70829 -0.57419,1.28248 -1.28248,1.28248c-0.70829,0 -1.28248,-0.57419 -1.28248,-1.28248z" fill="#fff000"/><path d="M513.94523,107.27821c0,-0.70829 0.57419,-1.28248 1.28248,-1.28248c0.70829,0 1.28248,0.57419 1.28248,1.28248c0,0.70829 -0.57419,1.28248 -1.28248,1.28248c-0.70829,0 -1.28248,-0.57419 -1.28248,-1.28248z" fill="#fff000"/><path d="M507.78316,218.19535c0,-0.70829 0.57419,-1.28248 1.28248,-1.28248c0.70829,0 1.28248,0.57419 1.28248,1.28248c0,0.70829 -0.57419,1.28248 -1.28248,1.28248c-0.70829,0 -1.28248,-0.57419 -1.28248,-1.28248z" fill="#fff000"/><path d="M517.02626,21.00933c0,-0.70829 0.57419,-1.28248 1.28248,-1.28248c0.70829,0 1.28248,0.57419 1.28248,1.28248c0,0.70829 -0.57419,1.28248 -1.28248,1.28248c-0.70829,0 -1.28248,-0.57419 -1.28248,-1.28248z" fill="#fff000"/><path d="M270.54373,407.67879c0,-0.70829 0.57419,-1.28248 1.28248,-1.28248c0.70829,0 1.28248,0.57419 1.28248,1.28248c0,0.70829 -0.57419,1.28248 -1.28248,1.28248c-0.70829,0 -1.28248,-0.57419 -1.28248,-1.28248z" fill="#fff000"/><path d="M273.62476,347.59868c0,-0.70829 0.57419,-1.28248 1.28248,-1.28248c0.70829,0 1.28248,0.57419 1.28248,1.28248c0,0.70829 -0.57419,1.28248 -1.28248,1.28248c-0.70829,0 -1.28248,-0.57419 -1.28248,-1.28248z" fill="#fff000"/><path d="M73.35771,210.49277c0,-0.70829 0.57419,-1.28248 1.28248,-1.28248c0.70829,0 1.28248,0.57419 1.28248,1.28248c0,0.70829 -0.57419,1.28248 -1.28248,1.28248c-0.70829,0 -1.28248,-0.57419 -1.28248,-1.28248z" fill="#fff000"/><path d="M150.3835,178.14194c0,-0.70829 0.57419,-1.28248 1.28248,-1.28248c0.70829,0 1.28248,0.57419 1.28248,1.28248c0,0.70829 -0.57419,1.28248 -1.28248,1.28248c-0.70829,0 -1.28248,-0.57419 -1.28248,-1.28248z" fill="#fff000"/><path d="M79.51977,138.08853c0,-0.70829 0.57419,-1.28248 1.28248,-1.28248c0.70829,0 1.28248,0.57419 1.28248,1.28248c0,0.70829 -0.57419,1.28248 -1.28248,1.28248c-0.70829,0 -1.28248,-0.57419 -1.28248,-1.28248z" fill="#fff000"/><path d="M236.65238,116.52131c0,-0.70829 0.57419,-1.28248 1.28248,-1.28248c0.70829,0 1.28248,0.57419 1.28248,1.28248c0,0.70829 -0.57419,1.28248 -1.28248,1.28248c-0.70829,0 -1.28248,-0.57419 -1.28248,-1.28248z" fill="#fff000"/><path d="M136.51886,68.76532c0,-0.70829 0.57419,-1.28248 1.28248,-1.28248c0.70829,0 1.28248,0.57419 1.28248,1.28248c0,0.70829 -0.57419,1.28248 -1.28248,1.28248c-0.70829,0 -1.28248,-0.57419 -1.28248,-1.28248z" fill="#fff000"/><path d="M68.73616,7.14469c0,-0.70829 0.57419,-1.28248 1.28248,-1.28248c0.70829,0 1.28248,0.57419 1.28248,1.28248c0,0.70829 -0.57419,1.28248 -1.28248,1.28248c-0.70829,0 -1.28248,-0.57419 -1.28248,-1.28248z" fill="#fff000"/><path d="M298.27302,51.81965c0,-0.70829 0.57419,-1.28248 1.28248,-1.28248c0.70829,0 1.28248,0.57419 1.28248,1.28248c0,0.70829 -0.57419,1.28248 -1.28248,1.28248c-0.70829,0 -1.28248,-0.57419 -1.28248,-1.28248z" fill="#fff000"/><path d="M387.62293,24.09036c0,-0.70829 0.57419,-1.28248 1.28248,-1.28248c0.70829,0 1.28248,0.57419 1.28248,1.28248c0,0.70829 -0.57419,1.28248 -1.28248,1.28248c-0.70829,0 -1.28248,-0.57419 -1.28248,-1.28248z" fill="#fff000"/></g></g></svg>